<svg id="男性アイコン" xmlns="http://www.w3.org/2000/svg" xmlns:xlink="http://www.w3.org/1999/xlink" width="70" height="70" viewBox="0 0 70 70">
  <defs>
    <clipPath id="clip-path">
      <rect id="長方形_53" data-name="長方形 53" width="62.61" height="63.37" fill="none"/>
    </clipPath>
  </defs>
  <g id="グループ_242" data-name="グループ 242">
    <path id="パス_274" data-name="パス 274" d="M30.208,0,0,30.208V64.517L64.516,0Z" transform="translate(0 -0.001)" fill="#fff2aa"/>
    <path id="パス_275" data-name="パス 275" d="M114.074,136.232h22.158V114.074Z" transform="translate(-66.232 -66.232)" fill="#fff2aa"/>
    <path id="パス_276" data-name="パス 276" d="M9.6,75.719H43.362L75.718,43.363V9.6Z" transform="translate(-5.718 -5.719)" fill="#fff2aa"/>
    <path id="パス_277" data-name="パス 277" d="M0,0V20.045L20.045,0Z" transform="translate(0 -0.001)" fill="#fff2aa"/>
  </g>
  <g id="グループ_244" data-name="グループ 244" transform="translate(3.695 6.63)">
    <g id="グループ_243" data-name="グループ 243" clip-path="url(#clip-path)">
      <path id="パス_278" data-name="パス 278" d="M89.857,127.337a2.872,2.872,0,0,1-1.613.015l-1.065,3.242a1.142,1.142,0,0,1,.235.368l.934,2.355h1.309l.78-2.557a.849.849,0,0,1,.34-.467l-.919-2.945s0-.007,0-.01" transform="translate(-56.846 -80.815)" fill="#78c8e6"/>
      <path id="パス_279" data-name="パス 279" d="M55.756,22.1q.132-1.642.264-3.284a.87.87,0,0,1,.575-.792c1.761-.776,3.65-1.62,5.44-2.468a28.868,28.868,0,0,0,3.992-2.19,8.232,8.232,0,0,0,1.4-1.169c.074-.08.147-.174.221-.268.019-.06.041-.079.054-.066a.976.976,0,0,1,.494-.378.8.8,0,0,1,.991.793,1.2,1.2,0,0,1-.159.563c.125-.023.26.02-.073.133-.07.124-.141.244-.2.349-.271.491-.549.978-.827,1.465.112-.064.227-.125.338-.191,1.285-.772,2.889-1.811,3.481-3.317a.78.78,0,0,1,1.51,0,11.255,11.255,0,0,0,1.93,2.9c.711.932,1.361,1.915,1.981,2.916A7.75,7.75,0,0,1,78.6,19.977l.364,2.866a27.608,27.608,0,0,0,1.046-5.17c.178-1.879.471-7.154-2.507-6.933a.809.809,0,0,1-.755-.6,7.883,7.883,0,0,0-2.01-3.353,12.8,12.8,0,0,0-8.2-2.273A12.3,12.3,0,0,0,59.427,7.13a15.33,15.33,0,0,0-2.664,2.677,8.337,8.337,0,0,0-1.618,2.758,16.765,16.765,0,0,0,.049,7.159,24.356,24.356,0,0,0,.561,2.381" transform="translate(-35.716 -2.855)" fill="#727272"/>
      <path id="パス_280" data-name="パス 280" d="M106.263,118.481a.905.905,0,0,1-.573.267.633.633,0,0,1-.136-.009l-2.8,1.019L99.1,121.086a.99.99,0,0,1,.042.1l1.561,5,.384-.166,7.41-3.2-1.787-4.509-.447.163" transform="translate(-64.618 -75.091)" fill="#fff"/>
      <path id="パス_281" data-name="パス 281" d="M95.315,27.406a.287.287,0,0,1-.049.094l.092-.029c.025-.044.05-.087.073-.133-.055.01-.107.033-.116.068" transform="translate(-62.118 -17.35)" fill="#78c8e6"/>
      <path id="パス_282" data-name="パス 282" d="M81.129,51.4l-.045-.005c.032.015.156.018.045.005" transform="translate(-52.871 -32.619)" fill="#78c8e6"/>
      <path id="パス_283" data-name="パス 283" d="M68.592,57.914c3.746-2.072,5.366-6.235,5.99-10.4a.79.79,0,0,1,.547-.574,8.7,8.7,0,0,0,2.1-.685c.818-.51,1.193-2.007,1.225-2.93.029-.857-.339-2.3-1.3-2.46a1.556,1.556,0,0,0-.633.046c-.105.266-.2.536-.316.8-.367.841-1.37.282-1.459-.415l-.792-6.231v-.007c-.035-.058-.066-.126-.1-.178q-.645-1.142-1.343-2.249a31.584,31.584,0,0,0-2.056-2.913,15.159,15.159,0,0,1-1.078-1.5c-1.5,2.086-4.121,3.441-6.334,4.323-.654.261-1.217-.633-.884-1.207.153-.263.3-.528.457-.792-1.039.61-2.122,1.141-3.208,1.649-1.641.768-3.294,1.508-4.95,2.24l-.532,6.629a.782.782,0,0,1-1.538.218c-.059-.163-.116-.326-.173-.489a.825.825,0,0,1-.174-.087,1.132,1.132,0,0,0-1.734.62,4.6,4.6,0,0,0-.122,2.635,2.823,2.823,0,0,0,1.317,2.063,4.9,4.9,0,0,0,1.7.576.771.771,0,0,1,.547.574A17.839,17.839,0,0,0,56.175,54.5c2.689,4.052,8.19,5.753,12.417,3.415M60.069,40.123a.825.825,0,0,1,0-1.644.825.825,0,0,1,0,1.644m9.074,0a.825.825,0,0,1,0-1.644.825.825,0,0,1,0,1.644m-1.495-4.889A6.436,6.436,0,0,1,69.579,35a4.579,4.579,0,0,1,1.7.308.935.935,0,0,1,.468.378.868.868,0,0,1,.079.634.833.833,0,0,1-.36.491.748.748,0,0,1-.6.083,3.05,3.05,0,0,0-.667-.2l-.077-.014-.136-.015q-.2-.019-.4-.024a6.23,6.23,0,0,0-.854.035l-.067.008c-.069.012-.139.023-.208.037-.13.026-.259.058-.386.094a.793.793,0,0,1-.963-.574.838.838,0,0,1,.547-1.011m-2.677,9.9a.825.825,0,0,1,0,1.644.825.825,0,0,1,0-1.644M63.065,50.7a.591.591,0,0,1,.045.041l.065.048a2.658,2.658,0,0,0,.235.148c.021.012.177.085.177.089.049.019.1.039.149.056a4.845,4.845,0,0,0,.554.14c-.166-.036.055.006.078.008q.144.014.288.016c.1,0,.2,0,.3-.007l.122-.014a3.392,3.392,0,0,0,.554-.142c.047-.016.093-.034.139-.052l.039-.016c-.013.005.146-.076.168-.088q.123-.069.24-.148c.037-.025.073-.051.108-.078h0a.778.778,0,0,1,1.107,0,.854.854,0,0,1,0,1.163,4.179,4.179,0,0,1-5.477,0,.863.863,0,0,1,0-1.163.772.772,0,0,1,1.107,0M57.8,35.687a.871.871,0,0,1,.468-.378,4.577,4.577,0,0,1,1.7-.308,6.438,6.438,0,0,1,1.931.233.843.843,0,0,1,.547,1.011.788.788,0,0,1-.963.574c-.136-.039-.273-.072-.411-.1a.826.826,0,0,1-.221-.037l-.055-.006a6.2,6.2,0,0,0-.828-.032c-.142,0-.283.012-.424.027l-.089.011-.122.02a3.005,3.005,0,0,0-.645.192c-.405.177-.846-.194-.963-.574a.877.877,0,0,1,.079-.634" transform="translate(-32.641 -17.906)" fill="#fff"/>
      <path id="パス_284" data-name="パス 284" d="M75.32,112.069a4.578,4.578,0,0,1,.584.2c-.121-.054.27.012.4.012.161,0,.37-.049.3-.018l.027-.01c.2-.092.427-.155.638-.232l7.045-2.563c-.126-1.142-.219-2.289-.289-3.436a11.328,11.328,0,0,1-4.509,3.31,10.507,10.507,0,0,1-7.563-.055,12.031,12.031,0,0,1-4.11-2.668,25.206,25.206,0,0,1-.212,2.768l2.36.825,5.332,1.864" transform="translate(-44.098 -67.29)" fill="#fff"/>
      <path id="パス_285" data-name="パス 285" d="M60.008,123.227l7.27,2.653,1.539-4.688-7.3-2.553a.754.754,0,0,1-.153-.02.65.65,0,0,1-.244-.118l-.291-.1-.942,3.8c-.074.3-.141.6-.211.9l.333.121" transform="translate(-38.911 -75.144)" fill="#fff"/>
      <path id="パス_286" data-name="パス 286" d="M91.7,24.889a.531.531,0,0,1,.047-.091c.046-.061.047-.119.032-.135l-.053.066a.668.668,0,0,0-.026.16" transform="translate(-59.793 -15.653)" fill="#78c8e6"/>
      <path id="パス_287" data-name="パス 287" d="M31.068,148.571a63.706,63.706,0,0,1,1.827-9.242l-.586-1.476-.008.024a.793.793,0,0,1-.963.574l-1.164-.425-7.439-2.715a7.636,7.636,0,0,1-1.125.5c-2.13.929-4.347,1.633-6.489,2.543q-1.874.8-3.725,1.65a13.233,13.233,0,0,0-2.866,1.6,13.259,13.259,0,0,0-4.3,7.4.861.861,0,0,1-.1.239H31.193a1.036,1.036,0,0,1-.125-.676" transform="translate(-2.697 -85.876)" fill="#fff"/>
      <path id="パス_288" data-name="パス 288" d="M90.5,156.421c-.693-2.729-1.083-5.523-1.894-8.219H87.458a65.16,65.16,0,0,0-1.755,8.987.6.6,0,0,1-.093.238h6.16l-.106-.555a.749.749,0,0,1-1.163-.452" transform="translate(-55.822 -94.058)" fill="#78c8e6"/>
      <path id="パス_289" data-name="パス 289" d="M126.417,148.091a.693.693,0,0,1-1.174-.165,26.734,26.734,0,0,0-2.313-4.279c-1.2-1.664-3.066-2.642-4.755-3.672a92.96,92.96,0,0,0-9.4-4.918.736.736,0,0,1-.277-.216l-1.03.444-7.586,3.272c-.407.176-.843-.191-.963-.574l-.183-.587-.471,1.545c.885,2.8,1.274,5.718,2,8.562a.773.773,0,0,1-.347.889l.106.555h26.654c-.076-.286-.157-.574-.26-.857" transform="translate(-64.075 -85.579)" fill="#fff"/>
      <path id="パス_290" data-name="パス 290" d="M95.6,27.328c-.023.046-.048.089-.073.133.333-.113.2-.156.073-.133" transform="translate(-62.291 -17.34)" fill="#323264"/>
      <path id="パス_291" data-name="パス 291" d="M91.774,24.722l.053-.066c-.012-.013-.035.006-.053.066" transform="translate(-59.841 -15.646)" fill="#323264"/>
      <path id="パス_292" data-name="パス 292" d="M77.41,56.31a.825.825,0,0,0,0,1.644.825.825,0,0,0,0-1.644" transform="translate(-49.982 -35.738)" fill="#3f3f3f"/>
      <path id="パス_293" data-name="パス 293" d="M91.5,76.169a.825.825,0,0,0,0-1.644.825.825,0,0,0,0,1.644" transform="translate(-59.168 -47.298)" fill="#3f3f3f"/>
      <path id="パス_294" data-name="パス 294" d="M83.834,90.518a4.179,4.179,0,0,0,5.477,0,.853.853,0,0,0,0-1.163.778.778,0,0,0-1.107,0h0c-.035.027-.072.053-.109.078q-.117.08-.24.148c-.022.012-.181.093-.168.088l-.039.016c-.046.019-.092.036-.139.052a3.377,3.377,0,0,1-.554.142c-.034,0-.1.012-.123.014-.1.007-.2.009-.3.007s-.192-.007-.288-.016c-.022,0-.244-.044-.077-.008a4.926,4.926,0,0,1-.554-.14c-.05-.017-.1-.037-.149-.057,0,0-.156-.077-.177-.089q-.121-.068-.235-.148c-.022-.015-.043-.032-.065-.048a.6.6,0,0,0-.045-.041.771.771,0,0,0-1.107,0,.862.862,0,0,0,0,1.163" transform="translate(-54.516 -56.561)" fill="#3f3f3f"/>
      <path id="パス_295" data-name="パス 295" d="M103.489,56.31a.825.825,0,0,0,0,1.644.825.825,0,0,0,0-1.644" transform="translate(-66.987 -35.738)" fill="#3f3f3f"/>
      <path id="パス_296" data-name="パス 296" d="M99.941,48.6q.192-.055.386-.095c.069-.014.139-.024.208-.037l.067-.008a6.17,6.17,0,0,1,.854-.035c.133,0,.267.011.4.024l.136.016.077.014a3.051,3.051,0,0,1,.667.2.75.75,0,0,0,.6-.083.832.832,0,0,0,.36-.491.867.867,0,0,0-.079-.633.933.933,0,0,0-.468-.378,4.579,4.579,0,0,0-1.7-.308,6.425,6.425,0,0,0-1.931.233.838.838,0,0,0-.547,1.011.793.793,0,0,0,.963.574" transform="translate(-64.518 -29.691)" fill="#3f3f3f"/>
      <path id="パス_297" data-name="パス 297" d="M73,48.679a3.027,3.027,0,0,1,.645-.192l.122-.02.089-.01c.141-.014.283-.023.424-.027a6.207,6.207,0,0,1,.828.032l.055.006a.823.823,0,0,0,.221.037q.208.041.411.1a.789.789,0,0,0,.963-.574.843.843,0,0,0-.547-1.011,6.425,6.425,0,0,0-1.931-.233,4.58,4.58,0,0,0-1.7.308.827.827,0,0,0-.547,1.011c.117.38.558.752.963.574m2.166-.211.045.005c.111.013-.013.009-.045-.005" transform="translate(-46.954 -29.691)" fill="#3f3f3f"/>
      <path id="パス_298" data-name="パス 298" d="M62.52,61.518a27.345,27.345,0,0,0-2.425-4.435,15.625,15.625,0,0,0-4.79-3.851,90.842,90.842,0,0,0-9.572-5.059s0-.009,0-.014l-2.448-6.178a.794.794,0,0,0-.963-.574l-.6.217c-.135-1.348-.225-2.7-.3-4.055a.956.956,0,0,0-.243-.587l.015-.023a18.086,18.086,0,0,0,2.182-6.473,5.283,5.283,0,0,0,2.546-1.167A6.083,6.083,0,0,0,47.352,24.8c-.161-1.431-.916-3.03-2.344-3.411a2.683,2.683,0,0,0-.514-.081,31.942,31.942,0,0,0,1.035-4.118c.509-2.818.862-6.176-.433-8.839A3.508,3.508,0,0,0,42.32,6.246a8.637,8.637,0,0,0-2.276-3.555.892.892,0,0,0-.079-.054.944.944,0,0,0-.079-.075A13.757,13.757,0,0,0,31.95.01,13.845,13.845,0,0,0,23.9,2.165a16.179,16.179,0,0,0-5.566,6.024c-1.1,2.16-.891,5.073-.613,7.413a29.176,29.176,0,0,0,1.213,5.346,2.569,2.569,0,0,0-2.169.933,5.1,5.1,0,0,0-.852,3.765,5.089,5.089,0,0,0,1.538,3.439,5.506,5.506,0,0,0,2.234,1.083,18.958,18.958,0,0,0,2.237,6.839c.085.141.181.273.271.41,0,.021-.006.042-.006.064.01.608,0,1.217-.017,1.825-.016.552-.042,1.1-.085,1.655-.015.2-.037.4-.057.6l-.451-.158a.788.788,0,0,0-.963.574L19.15,47.893a.874.874,0,0,0-.108.207c-2.482,1.052-5.024,1.928-7.505,2.993-1.587.682-3.167,1.386-4.73,2.127a10.839,10.839,0,0,0-3.83,3.153A16.112,16.112,0,0,0,.024,62.695a.8.8,0,0,0,.126.676H1.439a.869.869,0,0,0,.1-.238,13.26,13.26,0,0,1,4.3-7.4,13.24,13.24,0,0,1,2.866-1.6q1.852-.852,3.725-1.65c2.142-.91,4.359-1.613,6.489-2.543a7.617,7.617,0,0,0,1.125-.5l7.439,2.715,1.164.425A.793.793,0,0,0,29.6,52l.008-.024.586,1.476a63.7,63.7,0,0,0-1.827,9.242,1.038,1.038,0,0,0,.125.676h1.292a.594.594,0,0,0,.094-.238,65.109,65.109,0,0,1,1.755-8.987h1.149c.811,2.7,1.2,5.49,1.894,8.219a.749.749,0,0,0,1.163.452l-.3-1.584.3,1.584a.772.772,0,0,0,.347-.889c-.723-2.845-1.112-5.761-2-8.562l.471-1.545.183.587c.12.384.556.75.963.574L43.4,49.708l1.03-.444a.726.726,0,0,0,.277.216A93.073,93.073,0,0,1,54.1,54.4c1.689,1.03,3.553,2.007,4.755,3.671a26.763,26.763,0,0,1,2.313,4.279.693.693,0,0,0,1.174.165,3.835,3.835,0,0,0-.8-1.375,3.835,3.835,0,0,1,.8,1.375.846.846,0,0,0,.178-.995M19.429,9.709a8.331,8.331,0,0,1,1.618-2.758,15.3,15.3,0,0,1,2.664-2.677,12.3,12.3,0,0,1,7.108-2.619,12.8,12.8,0,0,1,8.2,2.273,7.891,7.891,0,0,1,2.01,3.353.808.808,0,0,0,.755.6c2.978-.221,2.685,5.054,2.507,6.933a27.582,27.582,0,0,1-1.046,5.17l-.364-2.866a7.75,7.75,0,0,0-1.428-2.878c-.62-1-1.269-1.984-1.98-2.916a11.247,11.247,0,0,1-1.93-2.9.78.78,0,0,0-1.51,0c-.592,1.506-2.2,2.546-3.481,3.317-.111.066-.225.126-.338.191.278-.487.556-.974.827-1.465.058-.1.129-.225.2-.349l-.092.029a.287.287,0,0,0,.049-.094c.008-.035.061-.058.116-.068a1.2,1.2,0,0,0,.159-.563.8.8,0,0,0-.991-.793.975.975,0,0,0-.494.378c.015.016.015.074-.032.135a.531.531,0,0,0-.047.091.655.655,0,0,1,.026-.16c-.074.094-.146.189-.221.268a8.248,8.248,0,0,1-1.4,1.169,28.848,28.848,0,0,1-3.992,2.19c-1.79.848-3.679,1.692-5.44,2.468a.87.87,0,0,0-.575.792q-.132,1.642-.264,3.284a24.356,24.356,0,0,1-.561-2.381,16.759,16.759,0,0,1-.05-7.159m1.689,19.552a.771.771,0,0,0-.547-.574,4.9,4.9,0,0,1-1.7-.576,2.823,2.823,0,0,1-1.317-2.063,4.6,4.6,0,0,1,.122-2.636,1.132,1.132,0,0,1,1.734-.619.837.837,0,0,0,.175.087c.057.163.114.326.173.489a.782.782,0,0,0,1.538-.219l.532-6.629c1.656-.732,3.308-1.473,4.949-2.24,1.086-.509,2.169-1.039,3.208-1.649-.152.264-.3.528-.456.792-.333.574.23,1.468.884,1.207,2.212-.883,4.833-2.237,6.334-4.323a15.046,15.046,0,0,0,1.078,1.5,31.581,31.581,0,0,1,2.056,2.913q.7,1.106,1.343,2.249c.03.053.061.12.1.178v.007l.792,6.231c.089.7,1.092,1.255,1.459.415.114-.26.211-.53.316-.8a1.556,1.556,0,0,1,.633-.046c.959.16,1.327,1.6,1.3,2.46-.031.922-.406,2.42-1.225,2.93a8.7,8.7,0,0,1-2.1.685.789.789,0,0,0-.547.574c-.623,4.167-2.244,8.33-5.99,10.4-4.227,2.338-9.728.638-12.417-3.415a17.841,17.841,0,0,1-2.416-7.332m7.248,21.477L21.1,48.084l-.332-.121c.071-.3.137-.6.211-.9l.941-3.8.291.1a.652.652,0,0,0,.244.118.758.758,0,0,0,.153.02l7.3,2.553-1.54,4.688m5.227-.794-.78,2.557H31.5l-.934-2.355a1.158,1.158,0,0,0-.235-.368L31.4,46.537a2.875,2.875,0,0,0,1.613-.015s0,.007,0,.01l.919,2.945a.851.851,0,0,0-.34.467m-.422-5.209c-.211.077-.433.14-.637.232l-.027.01c.073-.031-.136.018-.3.018-.132,0-.523-.066-.4-.012a4.579,4.579,0,0,0-.584-.2l-5.332-1.864-2.36-.825a25.283,25.283,0,0,0,.212-2.768,12.031,12.031,0,0,0,4.11,2.668,10.507,10.507,0,0,0,7.563.055,11.327,11.327,0,0,0,4.509-3.31c.071,1.148.164,2.295.289,3.436L33.17,44.735m3.3,6.2-.384.166-1.561-5a.923.923,0,0,0-.042-.1l3.651-1.328,2.8-1.019a.688.688,0,0,0,.136.009.906.906,0,0,0,.573-.267l.447-.163,1.786,4.508-7.41,3.2" transform="translate(0 0)" fill="#3f3f3f"/>
    </g>
  </g>
</svg>
