<svg id="女性アイコン" xmlns="http://www.w3.org/2000/svg" xmlns:xlink="http://www.w3.org/1999/xlink" width="70" height="70.375" viewBox="0 0 70 70.375">
  <defs>
    <clipPath id="clip-path">
      <rect id="長方形_52" data-name="長方形 52" width="58.61" height="63.375" fill="none"/>
    </clipPath>
  </defs>
  <g id="グループ_245" data-name="グループ 245">
    <path id="パス_274" data-name="パス 274" d="M30.208,0,0,30.208V64.517L64.516,0Z" transform="translate(0 -0.001)" fill="#fff2aa"/>
    <path id="パス_275" data-name="パス 275" d="M114.074,136.232h22.158V114.074Z" transform="translate(-66.232 -66.232)" fill="#fff2aa"/>
    <path id="パス_276" data-name="パス 276" d="M9.6,75.719H43.362L75.718,43.363V9.6Z" transform="translate(-5.718 -5.719)" fill="#fff2aa"/>
    <path id="パス_277" data-name="パス 277" d="M0,0V20.045L20.045,0Z" transform="translate(0 -0.001)" fill="#fff2aa"/>
  </g>
  <g id="グループ_246" data-name="グループ 246" transform="translate(6 7)">
    <g id="グループ_237" data-name="グループ 237" clip-path="url(#clip-path)">
      <path id="パス_253" data-name="パス 253" d="M110.03,85.492a1.682,1.682,0,0,1-.272.077,2.2,2.2,0,0,1-1.178-.1,14.639,14.639,0,0,1-2.43,5.011c-.222.3-.458.577-.7.852.007.029.017.055.021.087.331,2.318.869,4.844,2.472,6.645a8.363,8.363,0,0,0,2.669,1.863q1.624.813,3.186,1.743c.071.042.14.088.211.13-.964-5.509-3.063-10.79-3.978-16.306" transform="translate(-67.238 -54.497)" fill="#727272"/>
      <path id="パス_254" data-name="パス 254" d="M72.185,113.026a8.612,8.612,0,0,1-2.139-2.344,14.408,14.408,0,0,1-1.807-5.242,10.894,10.894,0,0,1-10.963,2.091,12.734,12.734,0,0,1-3.409-1.948c-.331,2.333-.814,4.743-2.289,6.607a7.829,7.829,0,0,1-2.264,1.886.806.806,0,0,1,.182.336c.565,2.055,1.037,4.134,1.5,6.216a.826.826,0,0,1,.31.025q1.82.494,3.65.945c1.807.45,3.623.891,5.457,1.217a8.049,8.049,0,0,0,3.483-.107c2.849-.641,5.654-1.532,8.424-2.451l1.465-5.927a.82.82,0,0,1,.133-.288,11.083,11.083,0,0,1-1.73-1.015" transform="translate(-31.445 -67.232)" fill="#fff"/>
      <path id="パス_255" data-name="パス 255" d="M83.136,88.5h0" transform="translate(-53.011 -56.429)" fill="#78c8e6"/>
      <path id="パス_256" data-name="パス 256" d="M34.907,79.082A77.283,77.283,0,0,1,31.16,96.555c.236-.1.471-.2.707-.3,1.5-.627,3.026-1.218,4.5-1.908A6.352,6.352,0,0,0,38.809,92.5c1.443-1.894,1.728-4.55,2.032-6.837a13.163,13.163,0,0,1-3.272-6.04,1.73,1.73,0,0,1-.324.095,2.208,2.208,0,0,1-1.361-.171,2.05,2.05,0,0,1-1.14-1.969A2.349,2.349,0,0,1,34.875,77a3.931,3.931,0,0,1-.678-.713c-.143.72-.241,1.4-.337,2.069.5-.169,1.116.07,1.047.726" transform="translate(-19.869 -48.643)" fill="#727272"/>
      <path id="パス_257" data-name="パス 257" d="M51.707,9.356c-.464-.939.943-1.764,1.408-.823A13.4,13.4,0,0,0,58.2,13.724,15,15,0,0,0,65.359,16.1,13.163,13.163,0,0,0,60,9.538.816.816,0,0,1,60.82,8.13c4.635,2.684,6.786,8.069,7.7,13.16a4.073,4.073,0,0,1,1.3-.217,18.394,18.394,0,0,0,.365-3.983,14.175,14.175,0,0,0-3.8-9.856,13.645,13.645,0,0,0-9.943-4.177.776.776,0,0,1-.787-.82c-.424.11-.841.2-1.244.3a.652.652,0,0,1-.587.642,10.643,10.643,0,0,0-4.9,2.335,19.1,19.1,0,0,0-5.793,8.176A12.086,12.086,0,0,0,43.184,21a3.69,3.69,0,0,1,1.314.265c3.061-2.951,4.072-7.361,5.219-11.306a.831.831,0,0,1,1.583.014,6.518,6.518,0,0,1,.519-.419c-.036-.068-.079-.133-.113-.2" transform="translate(-27.157 -1.427)" fill="#727272"/>
      <path id="パス_258" data-name="パス 258" d="M69.346,35.715c-.484-.341-1.324-.011-1.792.234a.848.848,0,0,1-.328.1.689.689,0,0,1-1.031-.511,30.733,30.733,0,0,0-1.143-4.912.9.9,0,0,1-.14.013,16.369,16.369,0,0,1-8.446-2.624,15.185,15.185,0,0,1-5.559-5.574,6.577,6.577,0,0,0-.519.419.784.784,0,0,1-.011.42c-1.23,4.228-2.365,8.894-5.657,12.044a.861.861,0,0,1-1.4.509,1.735,1.735,0,0,0-1.278-.287,1.236,1.236,0,0,0-.236.053l-.014,0-.007.008a1.5,1.5,0,0,0-.267.408,5.26,5.26,0,0,0-.326,2.591,4.672,4.672,0,0,0,.684,2.383,2.419,2.419,0,0,0,.483.477,2.035,2.035,0,0,1,1.492-.06,2.2,2.2,0,0,1,1.051.807,1.676,1.676,0,0,1,.095.162.821.821,0,0,1,.284.6,10.959,10.959,0,0,0,2.7,6.75c2.852,3.346,7.6,5.092,11.741,3.081a12.513,12.513,0,0,0,6.569-9.145,1.758,1.758,0,0,1-.02-.426,2.316,2.316,0,0,1,.15-.632c0-.026.006-.052.008-.079A.813.813,0,0,1,67,41.773a2.1,2.1,0,0,1,1.485-.472,2.614,2.614,0,0,0,.538-.37,3.967,3.967,0,0,0,1.019-2.379c.113-.838.094-2.282-.7-2.838M56.07,41.586a.816.816,0,0,1,0,1.631.816.816,0,0,1,0-1.631m-4.79-4.97a.816.816,0,0,1,0-1.631.816.816,0,0,1,0,1.631m.782-3.458-.136-.021c-.194-.009-.062-.009-.009,0h.021c-.071,0-.143-.017-.215-.024-.142-.014-.284-.023-.426-.027s-.261,0-.391,0q-.1,0-.195.013l-.092.01-.08.013c-.059.011-.117.022-.175.036-.108.024-.215.052-.321.084a6.115,6.115,0,0,0-.622.228.786.786,0,0,1-.628-.082.815.815,0,0,1-.292-1.116.9.9,0,0,1,.487-.375,5.8,5.8,0,0,1,1.557-.411,6.859,6.859,0,0,1,1.951.1.815.815,0,0,1,.195,1.49.887.887,0,0,1-.628.082m7.2,13.47a4.661,4.661,0,0,1-6.545.11.815.815,0,1,1,1.153-1.153c.084.087.179.161.265.246,0,0,0,0,0,0l.016.009c.046.03.091.062.138.092q.141.089.29.164c.05.025.1.047.151.072-.154-.076-.014-.006.024.007a5.021,5.021,0,0,0,.657.181l.064.012.129.013c.115.009.231.014.346.013s.254-.009.382-.018l.022,0c.058-.009.116-.019.174-.031a3.81,3.81,0,0,0,.632-.189c.036-.02.185-.088.22-.108a3.485,3.485,0,0,0,.3-.184l.086-.064.084-.072c.09-.081.174-.167.256-.255a.824.824,0,0,1,1.153,0,.833.833,0,0,1,0,1.153m1.461-10.012a.816.816,0,0,1,0-1.631.816.816,0,0,1,0,1.631M63.643,32.9a.831.831,0,0,1-.375.487.817.817,0,0,1-.628.082A6.212,6.212,0,0,0,62,33.239c-.106-.031-.213-.059-.321-.083q-.088-.019-.176-.035l-.05-.008-.123-.013c-.065-.005-.13-.009-.2-.012-.13-.005-.262-.005-.392,0s-.286.014-.428.029l-.107.012-.066.008-.024,0L60,33.158a.839.839,0,0,1-1-.57.831.831,0,0,1,.082-.628.816.816,0,0,1,.487-.375,6.886,6.886,0,0,1,1.951-.1,5.771,5.771,0,0,1,1.556.411.968.968,0,0,1,.487.375.825.825,0,0,1,.082.628" transform="translate(-26.246 -14.307)" fill="#fff"/>
      <path id="パス_259" data-name="パス 259" d="M21.855,145.982c-1.335-4.859-2.155-9.848-3.49-14.707-.007-.024-.007-.045-.012-.067-1.07.478-2.185.875-3.221,1.3-.956.394-1.918.8-2.862,1.238a.839.839,0,0,1-.4.191A18.477,18.477,0,0,0,7.312,136.9c-1.4,1.289-2.043,3.441-2.639,5.19-.447,1.312-.851,2.645-1.188,3.99a.719.719,0,0,1-.529.556H22.668c-.009-.026-.017-.052-.026-.078a.747.747,0,0,1-.787-.573" transform="translate(-1.885 -83.663)" fill="#fff"/>
      <path id="パス_260" data-name="パス 260" d="M74.2,156.647l1.282-5.185q-1.419.458-2.845.889a54.35,54.35,0,0,1-5.467,1.438,10.257,10.257,0,0,1-4.008-.138c-2.746-.521-5.465-1.218-8.164-1.946.5,2.263,1,4.525,1.614,6.759a.793.793,0,0,1-.786,1.006c.009.026.017.053.026.078H74.135c.012-.057.027-.113.043-.169a.776.776,0,0,1-.43-.915l.449-1.816" transform="translate(-35.067 -96.578)" fill="#78c8e6"/>
      <path id="パス_261" data-name="パス 261" d="M125.762,146.457a32.444,32.444,0,0,0-1.862-6.332,7.11,7.11,0,0,0-1.493-2.285,32.933,32.933,0,0,0-3.28-2.541,59.062,59.062,0,0,0-6.475-4.087q-.223.9-.445,1.8L109,145.984a.769.769,0,0,1-1.143.482c-.016.055-.03.111-.043.169h18.008a.884.884,0,0,1-.061-.178" transform="translate(-68.747 -83.665)" fill="#fff"/>
      <path id="パス_262" data-name="パス 262" d="M93.332,49.105a6.184,6.184,0,0,1,.641.234.814.814,0,0,0,.628-.082.816.816,0,0,0,.292-1.115.969.969,0,0,0-.487-.375,5.761,5.761,0,0,0-1.557-.411,6.911,6.911,0,0,0-1.951.1.818.818,0,0,0-.487.375.815.815,0,0,0,.921,1.2l.116-.018.024,0,.066-.009.107-.012c.142-.014.286-.024.429-.029s.262,0,.392,0c.065,0,.13.007.2.012l.123.013.05.008c.059.01.117.022.176.034.108.024.215.051.321.083" transform="translate(-57.579 -30.174)" fill="#3f3f3f"/>
      <path id="パス_263" data-name="パス 263" d="M65.216,47.451a6.873,6.873,0,0,0-1.951-.1,5.788,5.788,0,0,0-1.556.411.9.9,0,0,0-.487.375.815.815,0,0,0,.292,1.115.784.784,0,0,0,.628.082,6.237,6.237,0,0,1,.622-.228c.106-.032.213-.06.321-.084.058-.013.117-.025.175-.036l.08-.013.092-.01c.065-.006.13-.01.195-.013.13-.006.261-.007.391,0s.284.013.426.027c.071.007.144.021.215.024h-.011l.136.021a.886.886,0,0,0,.628-.082.815.815,0,0,0-.195-1.49" transform="translate(-38.966 -30.173)" fill="#3f3f3f"/>
      <path id="パス_264" data-name="パス 264" d="M70.692,51.95h-.009c-.053-.008-.184-.007.009,0" transform="translate(-45.011 -33.121)" fill="#323264"/>
      <path id="パス_265" data-name="パス 265" d="M93.748,57.064a.816.816,0,0,0,0,1.631.816.816,0,0,0,0-1.631" transform="translate(-59.275 -36.386)" fill="#3f3f3f"/>
      <path id="パス_266" data-name="パス 266" d="M80.919,76.91a.816.816,0,0,0,0-1.631.816.816,0,0,0,0,1.631" transform="translate(-51.095 -48.001)" fill="#3f3f3f"/>
      <path id="パス_267" data-name="パス 267" d="M74.2,86.058c-.047-.029-.091-.062-.138-.092l-.016-.009s0,0,0,0c-.086-.084-.18-.159-.265-.246a.815.815,0,0,0-1.153,1.153,4.661,4.661,0,0,0,6.545-.109.832.832,0,0,0,0-1.153.823.823,0,0,0-1.153,0c-.082.089-.166.175-.255.255l-.084.072-.086.064a3.482,3.482,0,0,1-.3.184c-.036.02-.184.088-.221.108a3.845,3.845,0,0,1-.632.189c-.058.012-.116.021-.174.03l-.022,0c-.128.009-.254.018-.382.018s-.231,0-.346-.014c-.043,0-.086-.008-.129-.013l-.064-.012a5.018,5.018,0,0,1-.657-.181c-.038-.013-.177-.083-.024-.007-.05-.025-.1-.047-.151-.072q-.148-.075-.29-.165m2.085.442h0" transform="translate(-46.161 -54.431)" fill="#3f3f3f"/>
      <path id="パス_268" data-name="パス 268" d="M67.7,57.064a.816.816,0,0,0,0,1.631.816.816,0,0,0,0-1.631" transform="translate(-42.667 -36.386)" fill="#3f3f3f"/>
      <path id="パス_269" data-name="パス 269" d="M2.249,173.775h-.4a.87.87,0,0,0,.4,0" transform="translate(-1.178 -110.805)" fill="#323264"/>
      <path id="パス_270" data-name="パス 270" d="M157.509,173.775a.821.821,0,0,0,1.415,0Z" transform="translate(-100.434 -110.805)" fill="#323264"/>
      <path id="パス_271" data-name="パス 271" d="M58.587,62.357a40.7,40.7,0,0,0-1.555-5.6,12.514,12.514,0,0,0-1.348-2.7A10.565,10.565,0,0,0,53.34,51.83c-1.54-1.2-3.125-2.336-4.761-3.4-1-6.92-4.019-13.457-4.527-20.457a.863.863,0,0,0-.062-.258l0,0a5.923,5.923,0,0,0,1.461-3.77A4.626,4.626,0,0,0,44.2,20.2a.937.937,0,0,0,.032-.1,18.213,18.213,0,0,0-.637-10.416,15.425,15.425,0,0,0-7.24-8.048A15.841,15.841,0,0,0,29.289,0,.766.766,0,0,0,28.5.81c.237-.061.475-.128.713-.207-.238.079-.477.146-.713.207a.777.777,0,0,0,.787.82,13.646,13.646,0,0,1,9.943,4.177,14.173,14.173,0,0,1,3.8,9.856,18.394,18.394,0,0,1-.365,3.983,4.076,4.076,0,0,0-1.3.217c-.918-5.091-3.069-10.477-7.7-13.16A.816.816,0,0,0,32.84,8.11,13.163,13.163,0,0,1,38.2,14.675,15,15,0,0,1,31.044,12.3,13.4,13.4,0,0,1,25.957,7.1c-.465-.941-1.872-.116-1.408.823.034.069.077.134.113.2a5.427,5.427,0,0,1,.748-.461,5.427,5.427,0,0,0-.748.461A15.181,15.181,0,0,0,30.221,13.7a16.363,16.363,0,0,0,8.446,2.624.86.86,0,0,0,.14-.013,30.783,30.783,0,0,1,1.144,4.912.689.689,0,0,0,1.03.511.844.844,0,0,0,.328-.1c.467-.244,1.307-.575,1.792-.234.79.556.809,2,.7,2.838a3.971,3.971,0,0,1-1.018,2.379,2.62,2.62,0,0,1-.539.37,2.1,2.1,0,0,0-1.485.472.813.813,0,0,0-.578.756c0,.026-.006.052-.008.078a2.317,2.317,0,0,0-.15.632,1.74,1.74,0,0,0,.02.426A12.514,12.514,0,0,1,33.469,38.5c-4.144,2.011-8.888.266-11.741-3.081a10.961,10.961,0,0,1-2.7-6.75.819.819,0,0,0-.284-.6,1.6,1.6,0,0,0-.095-.162A2.2,2.2,0,0,0,17.6,27.1a2.033,2.033,0,0,0-1.492.06,2.442,2.442,0,0,1-.484-.477,4.674,4.674,0,0,1-.683-2.383,5.264,5.264,0,0,1,.325-2.591,1.5,1.5,0,0,1,.268-.408l.007-.008.015,0a1.281,1.281,0,0,1,.236-.053,1.734,1.734,0,0,1,1.277.287.861.861,0,0,0,1.4-.509c3.292-3.15,4.427-7.815,5.657-12.044a.781.781,0,0,0,.011-.42,6.387,6.387,0,0,0-1.451,1.838,6.387,6.387,0,0,1,1.451-1.838.831.831,0,0,0-1.583-.014C21.413,12.479,20.4,16.89,17.341,19.84a3.694,3.694,0,0,0-1.315-.265,12.086,12.086,0,0,1-.046-7.313,19.106,19.106,0,0,1,5.793-8.176,10.643,10.643,0,0,1,4.9-2.335.652.652,0,0,0,.587-.642,4.771,4.771,0,0,0-2.391,1.125,4.771,4.771,0,0,1,2.391-1.125.888.888,0,0,0-1.02-.931C22.606.8,19.62,3.428,17.458,6.271c-2.233,2.934-3.87,6.394-3.605,10.149a17.618,17.618,0,0,0,.619,3.651c-.014.013-.033.02-.047.033a5.024,5.024,0,0,0-1.134,3.691,6.929,6.929,0,0,0,.957,3.749c.025.036.055.066.081.1.061-.308.128-.621.211-.95-.082.329-.149.642-.211.95a3.917,3.917,0,0,0,.678.713,2.34,2.34,0,0,0-.131.575,2,2,0,0,0,.282,1.174,2.024,2.024,0,0,0,.858.8,2.209,2.209,0,0,0,1.361.171,1.738,1.738,0,0,0,.324-.095,13.165,13.165,0,0,0,3.273,6.04c-.3,2.287-.589,4.943-2.032,6.837A6.349,6.349,0,0,1,16.5,45.7c-1.477.69-3,1.281-4.5,1.908-.237.1-.472.2-.708.3a77.288,77.288,0,0,0,3.747-17.474c.069-.656-.55-.9-1.047-.726a27.9,27.9,0,0,1-.539,2.961,27.9,27.9,0,0,0,.539-2.961.841.841,0,0,0-.584.726A73.988,73.988,0,0,1,9.22,48.851a20.679,20.679,0,0,0-4.788,3.086c-1.545,1.376-2.3,3.484-2.983,5.384C.9,58.847.422,60.406.028,61.979a.8.8,0,0,0,.641.99h.4a.72.72,0,0,0,.529-.556c.337-1.345.741-2.677,1.188-3.989.6-1.749,1.239-3.9,2.639-5.191a18.476,18.476,0,0,1,4.557-2.958.843.843,0,0,0,.4-.191c.944-.441,1.906-.844,2.862-1.238,1.036-.426,2.151-.823,3.221-1.3,0,.023.005.044.012.067,1.335,4.859,2.155,9.848,3.49,14.707a.816.816,0,0,0,1.572-.433c-.614-2.234-1.118-4.5-1.614-6.759,2.7.729,5.418,1.425,8.164,1.946a10.257,10.257,0,0,0,4.008.138,54.353,54.353,0,0,0,5.467-1.438q1.427-.429,2.845-.889L39.13,60.069l-.449,1.816c-.252,1.019,1.32,1.453,1.572.433L43.46,49.346l.445-1.8a58.994,58.994,0,0,1,6.476,4.087,32.879,32.879,0,0,1,3.279,2.541,7.113,7.113,0,0,1,1.493,2.285,32.43,32.43,0,0,1,1.862,6.333.885.885,0,0,0,.061.178H58.49a.783.783,0,0,0,.1-.612M17.371,29.077a1.283,1.283,0,0,1-.041.147c-.018.034-.038.068-.059.1s-.042.043-.063.063-.066.041-.1.059-.074.022-.111.031-.081,0-.121,0-.074-.019-.111-.031-.067-.038-.1-.059-.043-.042-.063-.063-.041-.066-.06-.1-.022-.073-.031-.111,0-.081,0-.121.019-.074.031-.111.038-.067.06-.1.041-.043.063-.063.066-.041.1-.06.074-.022.111-.031.08,0,.121,0,.074.019.111.031.068.039.1.06.043.042.063.063.041.066.059.1a1.391,1.391,0,0,1,.041.147c0,.008,0,.016,0,.024s0,.016,0,.024m24.283-.084c.009-.037.019-.074.031-.111s.038-.067.059-.1.042-.043.063-.063.066-.041.1-.06.073-.022.111-.031.081,0,.121,0,.074.019.111.031.067.039.1.06.043.041.063.063.041.066.06.1a1.388,1.388,0,0,1,.041.147c0,.008,0,.016,0,.024s0,.016,0,.024a1.382,1.382,0,0,1-.041.147c-.018.034-.039.068-.06.1s-.041.043-.063.063-.066.041-.1.059-.073.022-.111.031-.081,0-.121,0-.074-.019-.111-.031-.068-.038-.1-.059-.043-.042-.063-.063-.041-.066-.059-.1-.022-.073-.031-.111,0-.081,0-.121m.682,18.1-1.465,5.926c-2.77.92-5.576,1.81-8.424,2.451a8.045,8.045,0,0,1-3.483.107c-1.834-.325-3.65-.767-5.457-1.216q-1.83-.455-3.65-.946a.835.835,0,0,0-.31-.025c-.458-2.082-.93-4.161-1.495-6.216a.807.807,0,0,0-.182-.336,7.822,7.822,0,0,0,2.264-1.886c1.475-1.864,1.958-4.274,2.289-6.607A12.734,12.734,0,0,0,25.832,40.3a10.9,10.9,0,0,0,10.963-2.091A14.408,14.408,0,0,0,38.6,43.448a8.612,8.612,0,0,0,2.139,2.344,11.113,11.113,0,0,0,1.73,1.015.82.82,0,0,0-.133.288m4.222.074c-1.042-.617-2.1-1.2-3.186-1.743A8.356,8.356,0,0,1,40.7,43.565c-1.6-1.8-2.141-4.327-2.472-6.645,0-.032-.014-.058-.021-.088.243-.274.479-.556.7-.851a14.629,14.629,0,0,0,2.43-5.011,2.2,2.2,0,0,0,1.178.1,1.685,1.685,0,0,0,.273-.077c.915,5.517,3.014,10.8,3.978,16.307-.071-.043-.14-.088-.211-.13" transform="translate(0 0.001)" fill="#3f3f3f"/>
      <path id="パス_272" data-name="パス 272" d="M46.423,79.4a1.357,1.357,0,0,0-.041-.147q-.028-.052-.06-.1c-.02-.022-.041-.043-.063-.063s-.066-.041-.1-.059-.074-.022-.111-.031-.081,0-.121,0-.074.019-.111.031-.068.038-.1.059-.043.042-.063.063-.041.066-.059.1-.022.073-.031.111,0,.081,0,.121.019.074.031.111.038.067.059.1.042.043.063.063.066.041.1.06.073.022.111.031.081,0,.121,0,.074-.019.111-.031.068-.039.1-.06.043-.041.063-.063.041-.066.06-.1a1.388,1.388,0,0,0,.041-.147c0-.008,0-.016,0-.024s0-.016,0-.024" transform="translate(-29.052 -50.374)" fill="#fff"/>
      <path id="パス_273" data-name="パス 273" d="M115.811,79.4a1.356,1.356,0,0,0-.041-.147c-.018-.034-.039-.068-.06-.1s-.042-.043-.063-.063-.066-.041-.1-.059-.074-.022-.111-.031-.081,0-.121,0-.074.019-.111.031-.068.038-.1.059-.043.042-.063.063-.041.066-.059.1-.022.073-.031.111,0,.081,0,.121.019.074.031.111.038.067.059.1.042.043.063.063.066.041.1.06.073.022.111.031.081,0,.121,0,.074-.019.111-.031.068-.039.1-.06.043-.041.063-.063.041-.066.06-.1a1.358,1.358,0,0,0,.041-.147c0-.008,0-.016,0-.024s0-.016,0-.024" transform="translate(-73.296 -50.374)" fill="#fff"/>
    </g>
  </g>
</svg>
