<svg xmlns="http://www.w3.org/2000/svg" xmlns:xlink="http://www.w3.org/1999/xlink" width="71.075" height="70.351" viewBox="0 0 71.075 70.351">
  <defs>
    <clipPath id="clip-path">
      <rect id="長方形_10" data-name="長方形 10" width="52.476" height="48.278" fill="#e6da95"/>
    </clipPath>
  </defs>
  <g id="グループ_365" data-name="グループ 365" transform="matrix(0.788, -0.616, 0.616, 0.788, 0, 32.308)">
    <g id="グループ_13" data-name="グループ 13" transform="translate(0 0)" clip-path="url(#clip-path)">
      <path id="パス_48" data-name="パス 48" d="M48.371,0a18.053,18.053,0,0,0-1.855,3.1,4.12,4.12,0,0,0-.5,3.635c.536,1.232.85,1.627.712,2.782-.063.539.033,2.26-.322,2.539a5.117,5.117,0,0,1-.013-.95c.053-.3.109-.644.153-.939A4.213,4.213,0,0,0,46.3,8.126l-.087-.2c-.459-1.056-3.662-5.031-4.231-4.948a2.584,2.584,0,0,1,.707.89l.408.94c.384.885.3,3.078.667,3.929L43.878,9c.649,1.495,1.765,1.667,2.013,2.239l.408.939c.427.985-1.257,7.223-1.921,7.742a3.687,3.687,0,0,1,.417-1.947A5.046,5.046,0,0,0,44.87,15.9l-.816-1.878c-.281-.648-2-3.577-2.392-3.666a5.375,5.375,0,0,1,.654,3.313,12.207,12.207,0,0,0,.038,3.072l.234.535c.344.8.969,1.127,1.19,1.637a2.2,2.2,0,0,1-.061,2.477c-.378.69-.678,1.418-1.133,2.108s-2.369,3.555-3.041,3.911c.1-1.274,2.485-2.31,2.239-4.395-.057-.48-.032-1.005-.123-1.382-.129-.519-.318-.973-.446-1.509a13.682,13.682,0,0,0-.544-1.549c-.18-.512-.158-.917-.409-1.495l-.27.115.146.337c.581,1.338-.755,3.359-1.2,4.471a3.016,3.016,0,0,0-.408,2.338c.528,1.253.971,1.762.72,2.784-.4,1.637-1.993,2.411-3.393,3.605a23.172,23.172,0,0,1-5.1,2.989c.256-1.381,3.347-1.261,3.8-4.444a16.509,16.509,0,0,0,.091-2.963c-.006-.627-.268-2.684-.2-3.1l-.1-.022a5.157,5.157,0,0,0-.036.652,3.073,3.073,0,0,1-.132.671,3.43,3.43,0,0,1-.648,1.188,25.581,25.581,0,0,1-1.821,2.171c-2.547,3.007-.067,3.02-1.047,5.309-.463,1.082-1.39,1.129-2.667,1.558a29.122,29.122,0,0,1-3.211.758,19.475,19.475,0,0,1-3.054.362c-.49.03-1.012.049-1.479.063-.363.013-1.115-.078-1.443-.03-.043-.289.225-.415.56-.557l.135-.058c1.028-.44,2.209-.151,3.463-.688a3.687,3.687,0,0,0,2.109-1.668,9.952,9.952,0,0,0,1.286-1.993,26.783,26.783,0,0,0,1.671-4.4c-.28.2-.277.333-.388.625-.157.415-.232.305-.508.632-.654.779-.416.48-1.473,1.03-.577.3-1.163.579-1.859.877-.765.326-1.211.674-1.761.916a3.181,3.181,0,0,0-1.955,2.45,2.94,2.94,0,0,1-1.724,2.542l-.2.087c-.688.3-4.517-.539-5.214-.8C12.063,34.55,8.59,33.6,8.112,33c1.151-.494,2.294.233,3.25.4a7.926,7.926,0,0,0,3.449-.094,13.823,13.823,0,0,0,3.961-3.1c.6-.685,2.916-2.861,3.029-3.471-.365.194-.7.7-1,.827l-1.283.551a9.951,9.951,0,0,1-3.455.39,22.222,22.222,0,0,0-3.5.365l-.743.317a5.252,5.252,0,0,0-1.483,1.527c-.421.638-.4,1.111-1.424,1.55-1.476.632-1.5.449-2.523-.126-.7-.395-1.367-.858-2.045-1.321a24.414,24.414,0,0,1-1.971-1.5C2.008,29.005.753,27.646.406,27.8L0,27.969a34.135,34.135,0,0,0,4.394,3.7A20.021,20.021,0,0,0,6.78,33.117a4.352,4.352,0,0,1,2.244,1.8l.525,1.208c.281.646-.545,2.248.145,3.834l.174.4a17.454,17.454,0,0,0,2.589,2.761,13.722,13.722,0,0,1,2.589,2.895l.467,1.072c.185.425.033.707.2,1.189.238-.4-.06-3.662-.119-4.436a14.371,14.371,0,0,0-1.034-4.851l-.03-.069C13.312,36.128,9.8,36.15,8.964,34.229c.76.139,1.865.808,2.67,1.018.929.243,1.826.556,2.781.735,1.017.191,1.863.3,2.9.442.791.111.691-.072,1.421.362a5.418,5.418,0,0,1,1.116,1.127l.087.2c.158.365.026.43.186.795l.377.873c.541,1.243,2.965,2.252,3.975,2.65a6.25,6.25,0,0,1,3.839,2.988l.135-.057-.641-1.476c-.253-.583-.608-.951-.873-1.455a13.542,13.542,0,0,0-.787-1.669,14.72,14.72,0,0,0-2-2.4A7.226,7.226,0,0,0,21.6,37.305a7.386,7.386,0,0,1-2.7-.655,20.843,20.843,0,0,1,2.612-.1c.853-.076,1.74-.106,2.66-.221a23.244,23.244,0,0,0,2.814-.6A14.893,14.893,0,0,1,29.853,35c1.2.363.963.908,1.846,1.818a3.4,3.4,0,0,0,2.327.617c.839.063,1.657.147,2.491.206,1.207.088,1.749.922,2.225,1.008A16.47,16.47,0,0,0,35.1,35.013a4.8,4.8,0,0,0-2.293-.563c-.573-.019-2.378.614-2.67.245l1.754-.752a20.836,20.836,0,0,0,3.6-2.08c.683-.47,2.629-2.181,2.972-2.327l.271-.116a1.723,1.723,0,0,1,1.225.01c.635.245.464.239.907.81a2.268,2.268,0,0,0,2.209.772c.824-.111,1.815-.34,2.625-.413,1.105-.1,1.986.627,2.285.584a19.468,19.468,0,0,0-3.734-2.836,2.851,2.851,0,0,0-2.354-.127c-.957.4-2.092,1.08-2.741.7.017-.07,2.2-2.681,2.464-3.028a14.485,14.485,0,0,0,1.095-1.568c.244-.421.714-1.371,1.2-1.58l.878-.377c.678-.29,1.427.263,2.143-.043l.338-.144c1.469-.63,2.029-2.143,3.65-2.838l.2-.087c.383-.165.443-.031.935-.242-.452-.265-4.611.227-5.567.636l-.2.087c-1.556.667-1.325,2.287-2.531,2.836.062-.329.861-1.805,1.061-2.3a25.167,25.167,0,0,0,.9-2.421,22.026,22.026,0,0,1,.723-2.492c.463-1.169,1-1.125,2.395-1.722.951-.408,1.457-1.9,1.755-2.641a7.142,7.142,0,0,1,.647-1.41,1.556,1.556,0,0,1,.527-.626c.263-.16.639-.363.7-.614-.912.391-1.623.859-2.3,1.148a7.123,7.123,0,0,0-2.044,1.3c-1.831,1.3-.9,2.709-1.5,3.632-.084-.461.324-2.819.339-3.644a7.57,7.57,0,0,1,.587-3.547,3.826,3.826,0,0,0,.679-3.509,9.807,9.807,0,0,1-.267-1.993c-.022-1.114.275-1.054.4-1.731" transform="translate(0 0)" fill="#e6da95" fill-rule="evenodd"/>
    </g>
  </g>
</svg>
