<svg xmlns="http://www.w3.org/2000/svg" width="48" height="48"><defs><clipPath id="clip-path"><path id="長方形_23" data-name="長方形 23" fill="none" d="M0 0h20v10H0z"/></clipPath></defs><g id="戻るボタン" transform="translate(-1548 -1405)"><circle id="楕円形_1" data-name="楕円形 1" cx="24" cy="24" r="24" transform="translate(1548 1405)" fill="#dbaf38"/><g id="グループ_64" data-name="グループ 64" transform="translate(1562 1424)"><g id="グループ_63" data-name="グループ 63" clip-path="url('#clip-path')"><path id="パス_52" data-name="パス 52" d="M18.7 10a1.423 1.423 0 0 1-.966-.36L10 2.473 2.269 9.64a1.481 1.481 0 0 1-1.843.074.983.983 0 0 1-.087-1.553L8.564.535A2.125 2.125 0 0 1 10 0a2.123 2.123 0 0 1 1.436.536l8.225 7.625a.983.983 0 0 1-.088 1.553A1.444 1.444 0 0 1 18.7 10" fill="#fff"/></g></g></g></svg>