<svg xmlns="http://www.w3.org/2000/svg" xmlns:xlink="http://www.w3.org/1999/xlink" width="264.642" height="53.53" viewBox="0 0 264.642 53.53">
  <defs>
    <clipPath id="clip-path">
      <rect id="長方形_221" data-name="長方形 221" width="264.642" height="53.53" fill="#d1ba38"/>
    </clipPath>
  </defs>
  <g id="表彰部門枠" transform="translate(0 0)">
    <rect id="長方形_217" data-name="長方形 217" width="168.806" height="1.924" transform="translate(47.918 4.601)" fill="#d1ba38"/>
    <rect id="長方形_218" data-name="長方形 218" width="168.807" height="0.481" transform="translate(47.918 1.416)" fill="#d1ba38"/>
    <rect id="長方形_219" data-name="長方形 219" width="168.806" height="1.924" transform="translate(47.918 48.02)" fill="#d1ba38"/>
    <rect id="長方形_220" data-name="長方形 220" width="168.806" height="0.481" transform="translate(47.918 52.649)" fill="#d1ba38"/>
    <g id="グループ_431" data-name="グループ 431" transform="translate(0 0)">
      <g id="グループ_430" data-name="グループ 430" clip-path="url(#clip-path)">
        <path id="パス_632" data-name="パス 632" d="M250.712,7.865c2.122,4.127,1.672,5.608,2.988,9.649a20.361,20.361,0,0,0,3.226,6.313l.725-.625.6-.5a2.967,2.967,0,0,1,.249-2.495c.752-1.322,1.917-1.283,2.691-1.795s.942-.757,1.067-1.985.734-2.1.683-3.556A5.67,5.67,0,0,0,262.69,11a11.212,11.212,0,0,1-3.08,3.952c-1.991,1.482-1.232-.549-.4-1.654s2.565-1.783,3.862-3.389,1.958-3.405,1.324-5.12a9.7,9.7,0,0,0-.994,1.888c-.285.844-.8.927-.714.494a4.769,4.769,0,0,0,.49-3.418,3.573,3.573,0,0,0-3.134-2.9,3.2,3.2,0,0,0-3.433,2.53c-.245,1.5.588,3.273,2.068,3.149a1.216,1.216,0,0,0,.721-2.143.71.71,0,0,0-1.043.415c-.057.268-1.089-1.306-.042-2.465s3.074-.328,3.312,1.367-.853,3.891-2.17,5.54c-1.053,1.32-4.742,4.864-3.8,10.031-.152.3-.388.385-.732-.394a10.229,10.229,0,0,1-.071-7.027c.729-1.8,3.22-2.524,3.22-2.524s-1.441-1.647-2.951-.784a3.879,3.879,0,0,0-1.8,2.471c-.233-2.223.309-4.075,1.221-4.633s1.515-2.942,1.21-4.179A2.8,2.8,0,0,1,255.976.15a7.332,7.332,0,0,0-4.157,3.4,4.723,4.723,0,0,0-.282,3.423c-.1.357-1.29-.768-1.492-2.251s.606-1.894.606-1.894a1.884,1.884,0,0,0-.847-2c-1.1-.933-3.907.4-3.907.4a26.373,26.373,0,0,1,4.815,6.638" transform="translate(0 0.013)" fill="#d1ba38"/>
        <path id="パス_633" data-name="パス 633" d="M221.012,4.965c1.347,1.173,2.763,1.44,3.744.884s1.769-1.166,2.325-1.386c0,0-2.1,3.344-.09,5.981,0,0,.445-3.785,2.266-5.1s.042.422,1.285,2.434c0,0,1.244-.183,1.345-.54a7.669,7.669,0,0,0,2.511,5.819,4.7,4.7,0,0,0,7.256-1.564c1.259-2.361.651-4.393,2.119-4.558s4.9.989,5.716,6.094c0,0-2.218-.81-3.39-.411a2.952,2.952,0,0,0-1.619,1.716s1.694.391,1.879,1.249-.119,2.36,1.278,3.443,2.649.041,4.349,1.962c0,0-1.009-.174-1.37.33a4.812,4.812,0,0,0,1.275,1.926,8.279,8.279,0,0,0,4.277,1.64l.4-.51a8.893,8.893,0,0,1-3.416-4.535c-1.3-3.365-1.189-6.461-3.775-12.084s-7.58-8-14.293-7.732S225.844,3.781,223.2,3.7s-1.926-1.537-1.926-1.537.739.22.922-.8-1.81-1.058-2.342-.276-.19,2.7,1.157,3.87m13.1,2.674a6.085,6.085,0,0,1,6.095-4.423,6.5,6.5,0,0,1,4.968,1.852A5.1,5.1,0,0,0,238.73,8.2c-.623,1.74-1.369,3.375-2.966,3.035s-2.081-1.883-1.651-3.593" transform="translate(0 0)" fill="#d1ba38"/>
        <path id="パス_634" data-name="パス 634" d="M262.569,23.256a2.449,2.449,0,0,0,1.307-2.588c-.149-1.231-.845-1.868-1.75-1.86a1.118,1.118,0,0,0-.9,1.642.848.848,0,0,0,1.4.209c.266-.412.4.186.354.6-.051.485-.45,1.209-1.148,1.085s-.949-1.044-1.8-1.058-2.859,1.377-3.643,3.872c.784,2.495,2.8,3.885,3.643,3.871s1.1-.933,1.8-1.057,1.1.6,1.148,1.084c.044.419-.088,1.016-.354.6a.847.847,0,0,0-1.4.209,1.119,1.119,0,0,0,.9,1.642c.9.008,1.6-.631,1.75-1.861a2.448,2.448,0,0,0-1.307-2.587c-.643-.3-1.523-.407-1.523-1.906s.88-1.607,1.523-1.906" transform="translate(0 1.603)" fill="#d1ba38"/>
        <path id="パス_635" data-name="パス 635" d="M259.212,37.883c-.835-1.1-1.593-3.135.4-1.654a11.212,11.212,0,0,1,3.08,3.952,5.67,5.67,0,0,0,.249-1.87c.051-1.453-.559-2.329-.684-3.556s-.292-1.472-1.066-1.985-1.939-.473-2.691-1.795a2.967,2.967,0,0,1-.249-2.495l-.6-.5-.725-.625a20.361,20.361,0,0,0-3.226,6.313c-1.316,4.04-.866,5.522-2.988,9.649a26.373,26.373,0,0,1-4.815,6.638s2.807,1.33,3.907.4a1.886,1.886,0,0,0,.847-2s-.809-.411-.607-1.894,1.391-2.607,1.492-2.251a4.726,4.726,0,0,0,.283,3.423,7.332,7.332,0,0,0,4.157,3.4,2.8,2.8,0,0,1-.218-2.062c.3-1.237-.3-3.623-1.21-4.179s-1.455-2.41-1.221-4.633a3.883,3.883,0,0,0,1.8,2.472c1.509.863,2.951-.785,2.951-.785s-2.491-.725-3.221-2.524a10.229,10.229,0,0,1,.072-7.027c.344-.779.58-.69.732-.394-.94,5.167,2.749,8.711,3.8,10.031,1.317,1.65,2.408,3.846,2.17,5.541s-2.265,2.524-3.312,1.366-.015-2.732.042-2.465a.71.71,0,0,0,1.043.415,1.216,1.216,0,0,0-.721-2.143c-1.48-.124-2.313,1.651-2.068,3.149a3.206,3.206,0,0,0,3.433,2.531,3.574,3.574,0,0,0,3.134-2.9,4.774,4.774,0,0,0-.49-3.418c-.087-.432.429-.351.714.494a9.7,9.7,0,0,0,.994,1.888c.634-1.715-.027-3.514-1.324-5.12s-3.027-2.284-3.862-3.389" transform="translate(0 2.332)" fill="#d1ba38"/>
        <path id="パス_636" data-name="パス 636" d="M249.379,43.527c2.585-5.623,2.474-8.719,3.774-12.084a8.889,8.889,0,0,1,3.418-4.535l-.4-.51a8.276,8.276,0,0,0-4.277,1.64,4.819,4.819,0,0,0-1.276,1.926c.362.5,1.371.33,1.371.33-1.7,1.921-2.953.878-4.35,1.962s-1.1,2.584-1.278,3.443-1.877,1.249-1.877,1.249a2.946,2.946,0,0,0,1.617,1.715c1.173.4,3.39-.41,3.39-.41-.809,5.1-4.248,6.257-5.715,6.092s-.86-2.2-2.119-4.557a4.7,4.7,0,0,0-7.255-1.564,7.667,7.667,0,0,0-2.512,5.819c-.1-.357-1.345-.54-1.345-.54-1.244,2.011.535,3.752-1.286,2.434s-2.265-5.1-2.265-5.1c-2.013,2.637.091,5.981.091,5.981-.557-.22-1.347-.83-2.327-1.386s-2.4-.289-3.743.884-1.688,3.087-1.157,3.87,2.523.741,2.341-.276-.921-.8-.921-.8-.718-1.46,1.926-1.537,5.17,3.412,11.884,3.683,11.708-2.111,14.294-7.732m-9.172,4.537a6.088,6.088,0,0,1-6.1-4.423c-.43-1.71.056-3.255,1.653-3.594s2.341,1.3,2.964,3.036a5.1,5.1,0,0,0,6.447,3.129,6.5,6.5,0,0,1-4.969,1.852" transform="translate(0 2.25)" fill="#d1ba38"/>
        <path id="パス_637" data-name="パス 637" d="M13.93,43.32c-2.122-4.127-1.672-5.608-2.988-9.649a20.361,20.361,0,0,0-3.226-6.313l-.725.625-.6.5a2.967,2.967,0,0,1-.249,2.495C5.392,32.3,4.227,32.258,3.453,32.77s-.942.757-1.067,1.985-.734,2.1-.683,3.556a5.67,5.67,0,0,0,.249,1.87,11.212,11.212,0,0,1,3.08-3.952c1.991-1.481,1.233.549.4,1.654s-2.565,1.783-3.862,3.389S-.39,44.677.244,46.392A9.7,9.7,0,0,0,1.238,44.5c.285-.844.8-.926.714-.494a4.769,4.769,0,0,0-.49,3.418,3.574,3.574,0,0,0,3.134,2.9A3.207,3.207,0,0,0,8.029,47.8c.245-1.5-.588-3.273-2.068-3.149a1.216,1.216,0,0,0-.721,2.143.712.712,0,0,0,1.044-.415c.056-.268,1.088,1.306.041,2.465s-3.073.328-3.312-1.366.853-3.892,2.17-5.541c1.053-1.32,4.742-4.864,3.8-10.031.152-.3.388-.385.732.394a10.235,10.235,0,0,1,.072,7.027c-.73,1.8-3.221,2.524-3.221,2.524s1.442,1.647,2.951.785a3.883,3.883,0,0,0,1.8-2.472c.234,2.223-.309,4.075-1.221,4.633s-1.515,2.942-1.21,4.179a2.8,2.8,0,0,1-.218,2.062,7.332,7.332,0,0,0,4.157-3.4,4.723,4.723,0,0,0,.282-3.423c.1-.357,1.29.768,1.493,2.251s-.607,1.894-.607,1.894a1.886,1.886,0,0,0,.847,2c1.1.933,3.907-.4,3.907-.4A26.372,26.372,0,0,1,13.93,43.32" transform="translate(0 2.332)" fill="#d1ba38"/>
        <path id="パス_638" data-name="パス 638" d="M43.63,46.314c-1.346-1.173-2.763-1.44-3.744-.884s-1.769,1.167-2.325,1.386c0,0,2.1-3.344.091-5.981,0,0-.446,3.785-2.267,5.1s-.042-.423-1.285-2.435c0,0-1.244.183-1.344.54a7.675,7.675,0,0,0-2.513-5.819,4.7,4.7,0,0,0-7.255,1.565c-1.259,2.36-.653,4.392-2.119,4.557s-4.907-.989-5.716-6.094c0,0,2.218.81,3.39.411a2.949,2.949,0,0,0,1.618-1.716s-1.694-.391-1.878-1.249.12-2.36-1.278-3.443-2.649-.04-4.349-1.962c0,0,1.009.174,1.37-.33a4.812,4.812,0,0,0-1.275-1.926A8.279,8.279,0,0,0,8.474,26.4l-.4.51a8.891,8.891,0,0,1,3.417,4.536c1.3,3.364,1.189,6.46,3.775,12.083s7.58,8,14.293,7.732S38.8,47.5,41.441,47.575s1.926,1.537,1.926,1.537-.74-.219-.922.8,1.811,1.058,2.341.276.19-2.7-1.156-3.87m-13.1-2.674a6.086,6.086,0,0,1-6.094,4.423,6.493,6.493,0,0,1-4.97-1.852,5.1,5.1,0,0,0,6.447-3.129c.623-1.74,1.368-3.375,2.965-3.035s2.082,1.883,1.652,3.593" transform="translate(0 2.25)" fill="#d1ba38"/>
        <path id="パス_639" data-name="パス 639" d="M2.81,27.976c.7.124.949,1.043,1.8,1.057s2.859-1.376,3.643-3.871c-.784-2.495-2.8-3.885-3.643-3.872s-1.1.933-1.8,1.057-1.1-.6-1.148-1.084c-.044-.419.088-1.016.354-.6a.848.848,0,0,0,1.4-.211,1.118,1.118,0,0,0-.9-1.641c-.905-.009-1.6.631-1.75,1.86a2.45,2.45,0,0,0,1.307,2.588c.643.3,1.524.407,1.524,1.906s-.881,1.606-1.524,1.9A2.451,2.451,0,0,0,.766,29.655c.15,1.231.845,1.869,1.75,1.861a1.119,1.119,0,0,0,.9-1.642.848.848,0,0,0-1.4-.211c-.266.412-.4-.184-.354-.6.05-.485.45-1.208,1.148-1.084" transform="translate(0 1.603)" fill="#d1ba38"/>
        <path id="パス_640" data-name="パス 640" d="M5.43,13.3c.835,1.1,1.593,3.135-.4,1.654A11.212,11.212,0,0,1,1.952,11a5.67,5.67,0,0,0-.249,1.87c-.051,1.453.56,2.329.683,3.556s.293,1.472,1.067,1.985,1.939.472,2.691,1.795a2.967,2.967,0,0,1,.249,2.495l.6.5.725.625a20.378,20.378,0,0,0,3.226-6.313c1.316-4.04.866-5.522,2.988-9.649a26.367,26.367,0,0,1,4.815-6.639S15.938-.1,14.838.831a1.885,1.885,0,0,0-.847,2s.809.411.607,1.894S13.207,7.333,13.1,6.977a4.723,4.723,0,0,0-.282-3.423A7.332,7.332,0,0,0,8.666.151a2.8,2.8,0,0,1,.218,2.062c-.3,1.237.3,3.623,1.21,4.179s1.455,2.409,1.221,4.633a3.883,3.883,0,0,0-1.8-2.472c-1.509-.863-2.951.784-2.951.784s2.491.726,3.221,2.525a10.232,10.232,0,0,1-.072,7.026c-.344.78-.58.69-.732.4.94-5.167-2.749-8.711-3.8-10.031C3.866,7.6,2.775,5.406,3.013,3.711S5.278,1.186,6.325,2.344s.015,2.732-.041,2.465A.712.712,0,0,0,5.24,4.394a1.216,1.216,0,0,0,.721,2.143c1.48.124,2.313-1.651,2.068-3.149A3.2,3.2,0,0,0,4.6.857a3.573,3.573,0,0,0-3.134,2.9,4.77,4.77,0,0,0,.49,3.418c.088.432-.429.349-.714-.494A9.7,9.7,0,0,0,.244,4.794C-.39,6.507.271,8.308,1.568,9.914S4.6,12.2,5.43,13.3" transform="translate(0 0.013)" fill="#d1ba38"/>
        <path id="パス_641" data-name="パス 641" d="M42.446,1.372c.181,1.016.921.8.921.8s.718,1.461-1.926,1.537S36.271.293,29.557.022,17.849,2.132,15.263,7.754s-2.474,8.718-3.774,12.083a8.889,8.889,0,0,1-3.418,4.536l.4.509a8.269,8.269,0,0,0,4.277-1.639,4.819,4.819,0,0,0,1.276-1.926c-.362-.5-1.371-.331-1.371-.331,1.7-1.921,2.953-.878,4.349-1.961s1.1-2.585,1.279-3.443,1.877-1.249,1.877-1.249a2.949,2.949,0,0,0-1.617-1.716c-1.173-.4-3.391.41-3.391.41.81-5.1,4.249-6.257,5.716-6.092s.86,2.2,2.119,4.557a4.7,4.7,0,0,0,7.255,1.564,7.671,7.671,0,0,0,2.512-5.819c.1.357,1.345.542,1.345.542,1.244-2.012-.536-3.753,1.285-2.435s2.266,5.1,2.266,5.1c2.013-2.638-.091-5.981-.091-5.981.557.219,1.347.829,2.327,1.386s2.4.288,3.743-.886S45.318,1.877,44.787,1.1s-2.523-.741-2.341.276M28.877,11.233c-1.6.34-2.341-1.3-2.965-3.036a5.1,5.1,0,0,0-6.446-3.129,6.493,6.493,0,0,1,4.969-1.851A6.086,6.086,0,0,1,30.529,7.64c.431,1.709-.055,3.254-1.652,3.593" transform="translate(0 0)" fill="#d1ba38"/>
      </g>
    </g>
  </g>
</svg>
