<svg xmlns="http://www.w3.org/2000/svg" xmlns:xlink="http://www.w3.org/1999/xlink" width="1570" height="451.5" viewBox="0 0 1570 451.5">
  <defs>
    <clipPath id="clip-path">
      <rect id="長方形_163" data-name="長方形 163" width="160" height="160" fill="#e6da95"/>
    </clipPath>
    <linearGradient id="linear-gradient" x2="1" y2="0.5" gradientUnits="objectBoundingBox">
      <stop offset="0" stop-color="#e6da95"/>
      <stop offset="1" stop-color="#e6da95" stop-opacity="0"/>
    </linearGradient>
    <linearGradient id="linear-gradient-2" x1="0.5" x2="0.5" y2="1" xlink:href="#linear-gradient"/>
    <linearGradient id="linear-gradient-3" x1="1" x2="0" xlink:href="#linear-gradient"/>
  </defs>
  <g id="大きい枠" transform="translate(-175 -1530)">
    <g id="グループ_380" data-name="グループ 380" transform="translate(178 1531.5)">
      <g id="グループ_379" data-name="グループ 379" transform="translate(0 0.001)" clip-path="url(#clip-path)">
        <path id="パス_455" data-name="パス 455" d="M16.724,14.353c-6.8-1.112-12.748.831-14.049,5.457-.945,3.379,1.848,7.252,5.6,6.548s4.882-4.925,3.24-6.289c-1.538-1.286-2.949.743-2.715,1.268a1.588,1.588,0,0,1-1.546,2.167c-2.068,0-3.574-3.422-.085-5.4,5.713-3.237,13.217-.384,13.217-.384a5.307,5.307,0,0,0-.409,5.919A25.074,25.074,0,0,1,34.343,23.1c7.625,2.093,21.421,10.538,21.421,10.538A82.572,82.572,0,0,0,16.724,14.353" transform="translate(6.357 35.861)" fill="#e6da95"/>
        <path id="パス_456" data-name="パス 456" d="M23.644,19.977a5.314,5.314,0,0,0-5.919.409s-2.853-7.5.384-13.214c1.979-3.493,5.4-1.986,5.4.085A1.59,1.59,0,0,1,21.338,8.8c-.526-.235-2.551,1.176-1.268,2.718,1.368,1.642,5.585.508,6.289-3.244s-3.169-6.545-6.548-5.6c-4.626,1.3-6.57,7.248-5.457,14.045A82.592,82.592,0,0,0,33.639,55.763S25.193,41.967,23.1,34.342a25.074,25.074,0,0,1,.544-14.365" transform="translate(35.862 6.357)" fill="#e6da95"/>
        <path id="パス_457" data-name="パス 457" d="M7.479,114.666c6.154-3.1,4.6-12.2,4.185-19.421s2.864-11.37,2.864-11.37-1.176,5.362,2.985,11.3c4.409,6.3,12.887,6.406,18.014,3.127s4.591-8.6,2.128-9.927a1.987,1.987,0,0,0-3.07,1.975c.448,2.221,2.608,1.9,1.979,3.414s-4.321,3-8.065,2.125c-6.2-1.439-8.389-7.369-7.067-6.84,7.142,2.857,10.542-2.647,10.723-5.166a4.808,4.808,0,0,0-2.437-4.669s-.188,2.306-3.994,2.686C17.787,82.7,21.663,69.762,37.4,60.46l.295-.416c.274-.185.554-.355.821-.551,7.316-5.422,15.207-12.677,13.612-25.6C50.364,19.611,35.172,16.84,27.469,17.6c-7.589.746-26.985,10.5-22.519,31.569.224,1.052,1.538,4.662,4.754,4.988,2.53.259,4.463-4.129.792-5.429-2.544-.9-3.425-3.631-3.564-6.836-.16-3.78,5.475-21.613,23.276-21.773C47.483,19.959,51.619,33.606,49.3,40.83c-2.146,6.673-10.506,6.953-10.78,2.693s2.32-4.843,2.32-4.843a5.364,5.364,0,0,0-5.55-1.936C32.528,37.348,27,42,31.313,49.425c.8,1.375-6.108-.082-8.7-6.7-1.567-4-.522-8.318,1.045-9.256s1.563,1.5,4.09,1.634a2.219,2.219,0,0,0,1.688-3.713c-1.865-2.5-7.834-2.235-10.624,3.962s-1.3,15.541,6.371,19.4c7.234,3.631,12.965,1.467,12.965,1.467s-4.05,4.3-12.095,5S7.7,61.679,5.273,68.981C2.91,76.09,9.977,80.645,15.3,77.337c-1.215,1.958-2.437,4.129-3.724,6.637-4.765,9.288-2.494,22.345-6.886,25C2.391,110.363.9,109.411,0,108.3v5.482a6.224,6.224,0,0,0,7.479.881m4.534-43.521c1.4-3.329,7.856-4.335,14.781-6.364a40.7,40.7,0,0,0-11.306,12.24c-1.069-.249-5.3-1.538-3.475-5.877" transform="translate(0 44.633)" fill="#e6da95"/>
        <path id="パス_458" data-name="パス 458" d="M108.974,4.686c-2.654,4.392-15.715,2.118-25,6.882-2.508,1.286-4.679,2.508-6.637,3.724C80.645,9.973,76.09,2.91,68.981,5.273c-7.3,2.427-7.06,12.738-7.763,20.778s-5,12.095-5,12.095,2.164-5.731-1.467-12.965c-3.855-7.678-13.2-9.163-19.4-6.374s-6.459,8.762-3.958,10.627A2.22,2.22,0,0,0,35.1,27.746c-.131-2.526-2.572-2.526-1.634-4.09s5.259-2.615,9.256-1.048c6.619,2.6,8.076,9.5,6.7,8.7C42,27,37.348,32.528,36.744,35.285a5.364,5.364,0,0,0,1.936,5.55s.583-2.594,4.843-2.32S47.5,47.149,40.83,49.3c-7.22,2.324-20.871-1.812-20.714-19.087.16-17.8,17.993-23.436,21.773-23.276,3.2.139,5.937,1.016,6.836,3.564,1.3,3.67,5.688,1.737,5.429-.792-.327-3.216-3.937-4.53-4.988-4.754C28.092.483,18.343,19.879,17.6,27.469c-.757,7.7,2.015,22.9,16.3,24.662,12.919,1.592,20.174-6.3,25.6-13.615.2-.263.366-.547.551-.817l.416-.295C69.762,21.663,82.7,17.787,81.9,25.724c-.377,3.805-2.683,3.99-2.683,3.99a4.808,4.808,0,0,0,4.669,2.441c2.519-.181,8.023-3.581,5.166-10.723-.529-1.322,5.4.863,6.84,7.067.871,3.745-.615,7.44-2.125,8.065s-1.194-1.535-3.414-1.979a1.987,1.987,0,0,0-1.975,3.07c1.325,2.462,6.651,3,9.927-2.128s3.173-13.6-3.127-18.018c-5.941-4.157-11.3-2.985-11.3-2.985s4.146-3.283,11.366-2.86,16.323,1.968,19.421-4.185A6.223,6.223,0,0,0,113.785,0H108.3c1.109.9,2.061,2.391.672,4.686M64.781,26.794c2.029-6.925,3.034-13.381,6.364-14.781,4.338-1.826,5.628,2.4,5.877,3.475a40.74,40.74,0,0,0-12.24,11.306" transform="translate(44.635 -0.002)" fill="#e6da95"/>
        <path id="パス_459" data-name="パス 459" d="M9.46,9.085c.05,5.713,5.71,25.866,23.781,42.967,0,0-16.312-21.361-13.576-35.353,0,0-3.247-1.393-5.237,1.329,0,0-2.739-7.838-1.649-12.254C13.93,1.1,16.947.835,18,2.007c.821.913-.2,2.48-.732,2.317A1.86,1.86,0,0,0,15.5,6.85c.65,1.8,5.273.792,5.82-2.878A4.714,4.714,0,0,0,20.194,0H12.985A12.06,12.06,0,0,0,9.46,9.085" transform="translate(24.151 -0.002)" fill="#e6da95"/>
        <path id="パス_460" data-name="パス 460" d="M3.972,21.317c3.674-.547,4.679-5.17,2.882-5.82a1.866,1.866,0,0,0-2.53,1.777c.163.537-1.4,1.553-2.317.732C.835,16.95,1.1,13.93,5.774,12.779c4.416-1.087,12.258,1.652,12.258,1.652-2.722,1.99-1.329,5.234-1.329,5.234,13.988-2.736,35.349,13.576,35.349,13.576C34.951,15.17,14.8,9.514,9.085,9.46A12.065,12.065,0,0,0,0,12.985V20.2a4.72,4.72,0,0,0,3.972,1.119" transform="translate(0 24.15)" fill="#e6da95"/>
        <path id="パス_461" data-name="パス 461" d="M0,2.981A98.082,98.082,0,0,0,11.867,18.938C3.631,20.238,4,25.394,4,25.394c17.954-2.519,39.95,18.575,43.17,21.773-3.2-3.219-24.292-25.216-21.77-43.173,0,0-5.155-.362-6.459,7.874A98.082,98.082,0,0,0,2.981,0H0Z" transform="translate(0 -0.002)" fill="#e6da95"/>
      </g>
    </g>
    <rect id="長方形_181" data-name="長方形 181" width="720" height="4" transform="translate(175 1530)" fill="url(#linear-gradient)"/>
    <rect id="長方形_182" data-name="長方形 182" width="4" height="450" transform="translate(175 1531.5)" fill="url(#linear-gradient-2)"/>
    <g id="グループ_392" data-name="グループ 392" transform="translate(1612 1531.5)">
      <g id="グループ_379-2" data-name="グループ 379" transform="translate(-30)" clip-path="url(#clip-path)">
        <path id="パス_455-2" data-name="パス 455" d="M41.531,14.353c6.8-1.112,12.748.831,14.049,5.457.945,3.379-1.848,7.252-5.6,6.548S45.1,21.434,46.74,20.07c1.538-1.286,2.949.743,2.715,1.268A1.588,1.588,0,0,0,51,23.505c2.068,0,3.574-3.422.085-5.4-5.713-3.237-13.217-.384-13.217-.384a5.307,5.307,0,0,1,.409,5.919A25.074,25.074,0,0,0,23.911,23.1C16.286,25.193,2.49,33.639,2.49,33.639A82.572,82.572,0,0,1,41.531,14.353" transform="translate(95.389 35.861)" fill="#e6da95"/>
        <path id="パス_456-2" data-name="パス 456" d="M24.042,19.977a5.314,5.314,0,0,1,5.919.409s2.853-7.5-.384-13.214c-1.979-3.493-5.4-1.986-5.4.085A1.59,1.59,0,0,0,26.348,8.8c.526-.235,2.551,1.176,1.268,2.718-1.368,1.642-5.585.508-6.289-3.244s3.169-6.545,6.548-5.6c4.626,1.3,6.57,7.248,5.457,14.045A82.592,82.592,0,0,1,14.047,55.763s8.446-13.8,10.538-21.421a25.074,25.074,0,0,0-.544-14.365" transform="translate(76.452 6.357)" fill="#e6da95"/>
        <path id="パス_457-2" data-name="パス 457" d="M44.859,114.666c-6.154-3.1-4.6-12.2-4.185-19.421s-2.864-11.37-2.864-11.37,1.176,5.362-2.985,11.3c-4.409,6.3-12.887,6.406-18.014,3.127s-4.591-8.6-2.128-9.927a1.987,1.987,0,0,1,3.07,1.975c-.448,2.221-2.608,1.9-1.979,3.414s4.321,3,8.065,2.125c6.2-1.439,8.389-7.369,7.067-6.84-7.142,2.857-10.542-2.647-10.723-5.166a4.808,4.808,0,0,1,2.437-4.669s.188,2.306,3.994,2.686c7.938.792,4.061-12.141-11.679-21.443l-.295-.416c-.274-.185-.554-.355-.821-.551C6.5,54.072-1.388,46.817.208,33.9,1.973,19.611,17.166,16.84,24.869,17.6c7.589.746,26.985,10.5,22.519,31.569-.224,1.052-1.538,4.662-4.754,4.988-2.53.259-4.463-4.129-.792-5.429,2.544-.9,3.425-3.631,3.564-6.836.16-3.78-5.475-21.613-23.276-21.773C4.855,19.959.719,33.606,3.043,40.83c2.146,6.673,10.506,6.953,10.78,2.693S11.5,38.68,11.5,38.68a5.364,5.364,0,0,1,5.55-1.936c2.757.6,8.286,5.251,3.972,12.681-.8,1.375,6.108-.082,8.7-6.7,1.567-4,.522-8.318-1.045-9.256s-1.563,1.5-4.09,1.634A2.219,2.219,0,0,1,22.9,31.389c1.865-2.5,7.834-2.235,10.624,3.962s1.3,15.541-6.371,19.4c-7.234,3.631-12.965,1.467-12.965,1.467s4.05,4.3,12.095,5,18.348.462,20.778,7.763c2.363,7.11-4.7,11.665-10.023,8.357,1.215,1.958,2.437,4.129,3.724,6.637,4.765,9.288,2.494,22.345,6.886,25,2.3,1.389,3.791.437,4.686-.672v5.482a6.224,6.224,0,0,1-7.479.881M40.325,71.144c-1.4-3.329-7.856-4.335-14.781-6.364A40.7,40.7,0,0,1,36.85,77.021c1.069-.249,5.3-1.538,3.475-5.877" transform="translate(107.662 44.633)" fill="#e6da95"/>
        <path id="パス_458-2" data-name="パス 458" d="M24.014,4.686c2.654,4.392,15.715,2.118,25,6.882,2.508,1.286,4.679,2.508,6.637,3.724C52.342,9.973,56.9,2.91,64.007,5.273c7.3,2.427,7.06,12.738,7.763,20.778s5,12.095,5,12.095-2.164-5.731,1.467-12.965c3.855-7.678,13.2-9.163,19.4-6.374s6.459,8.762,3.958,10.627a2.22,2.22,0,0,1-3.713-1.688c.131-2.526,2.572-2.526,1.634-4.09s-5.259-2.615-9.256-1.048c-6.619,2.6-8.076,9.5-6.7,8.7C90.993,27,95.64,32.528,96.244,35.285a5.364,5.364,0,0,1-1.936,5.55s-.583-2.594-4.843-2.32-3.979,8.634,2.693,10.78c7.22,2.324,20.871-1.812,20.714-19.087C112.712,12.4,94.88,6.772,91.1,6.932c-3.2.139-5.937,1.016-6.836,3.564-1.3,3.67-5.688,1.737-5.429-.792.327-3.216,3.937-4.53,4.988-4.754C104.9.483,114.645,19.879,115.391,27.469c.757,7.7-2.015,22.9-16.3,24.662-12.919,1.592-20.174-6.3-25.6-13.615-.2-.263-.366-.547-.551-.817l-.416-.295c-9.3-15.74-22.235-19.616-21.439-11.679.377,3.805,2.683,3.99,2.683,3.99A4.808,4.808,0,0,1,49.1,32.155c-2.519-.181-8.023-3.581-5.166-10.723.529-1.322-5.4.863-6.84,7.067-.871,3.745.615,7.44,2.125,8.065s1.194-1.535,3.414-1.979a1.987,1.987,0,0,1,1.975,3.07c-1.325,2.462-6.651,3-9.927-2.128s-3.173-13.6,3.127-18.018c5.941-4.157,11.3-2.985,11.3-2.985s-4.146-3.283-11.366-2.86S21.42,13.633,18.322,7.479A6.223,6.223,0,0,1,19.2,0h5.482c-1.109.9-2.061,2.391-.672,4.686M68.207,26.794c-2.029-6.925-3.034-13.381-6.364-14.781-4.338-1.826-5.628,2.4-5.877,3.475a40.74,40.74,0,0,1,12.24,11.306" transform="translate(-17.623 -0.002)" fill="#e6da95"/>
        <path id="パス_459-2" data-name="パス 459" d="M33.24,9.085c-.05,5.713-5.71,25.866-23.781,42.967,0,0,16.312-21.361,13.576-35.353,0,0,3.247-1.393,5.237,1.329,0,0,2.739-7.838,1.649-12.254C28.771,1.1,25.754.835,24.7,2.007c-.821.913.2,2.48.732,2.317A1.86,1.86,0,0,1,27.2,6.85c-.65,1.8-5.273.792-5.82-2.878A4.714,4.714,0,0,1,22.507,0h7.209A12.06,12.06,0,0,1,33.24,9.085" transform="translate(93.148 -0.002)" fill="#e6da95"/>
        <path id="パス_460-2" data-name="パス 460" d="M48.08,21.317c-3.674-.547-4.679-5.17-2.882-5.82a1.866,1.866,0,0,1,2.53,1.777c-.163.537,1.4,1.553,2.317.732,1.173-1.055.91-4.075-3.766-5.227-4.416-1.087-12.258,1.652-12.258,1.652,2.722,1.99,1.329,5.234,1.329,5.234C21.361,16.929,0,33.241,0,33.241,17.1,15.17,37.254,9.514,42.967,9.46a12.065,12.065,0,0,1,9.085,3.525V20.2a4.72,4.72,0,0,1-3.972,1.119" transform="translate(107.948 24.15)" fill="#e6da95"/>
        <path id="パス_461-2" data-name="パス 461" d="M47.167,2.981A98.082,98.082,0,0,1,35.3,18.938c8.236,1.3,7.87,6.456,7.87,6.456C25.216,22.875,3.219,43.969,0,47.167,3.2,43.948,24.292,21.951,21.77,3.994c0,0,5.155-.362,6.459,7.874A98.082,98.082,0,0,1,44.186,0h2.981Z" transform="translate(112.833 -0.002)" fill="#e6da95"/>
      </g>
    </g>
    <rect id="長方形_183" data-name="長方形 183" width="720" height="4" transform="translate(1025 1530)" fill="url(#linear-gradient-3)"/>
    <rect id="長方形_184" data-name="長方形 184" width="4" height="450" transform="translate(1741 1531.5)" fill="url(#linear-gradient-2)"/>
  </g>
</svg>
