<svg xmlns="http://www.w3.org/2000/svg" xmlns:xlink="http://www.w3.org/1999/xlink" width="424.975" height="58.937" viewBox="0 0 424.975 58.937">
  <defs>
    <clipPath id="clip-path">
      <rect id="長方形_321" data-name="長方形 321" width="424.975" height="58.937" fill="none"/>
    </clipPath>
  </defs>
  <g id="グループ_457" data-name="グループ 457" transform="translate(0 0)">
    <g id="グループ_456" data-name="グループ 456" transform="translate(0 0)" clip-path="url(#clip-path)">
      <path id="パス_919" data-name="パス 919" d="M117.758,56.276h-4.8a4.8,4.8,0,0,1-4.8-4.8v-4.8h4.8a4.8,4.8,0,0,1,4.8,4.8Z" transform="translate(-4.236 -1.828)" fill="#ffb96b"/>
      <path id="パス_920" data-name="パス 920" d="M188.672,15.438c4.423,8.781,7.374,17.356,6.442,25.4h44.544c-.927-8.01,2-16.556,6.4-25.308a2.333,2.333,0,0,0,1.553.6,2.585,2.585,0,1,0-2.421-2.68c0,.034,0,.066,0,.1a2.682,2.682,0,0,0,.718,1.836c-7.173,8.035-12.372,9.5-13.879-1.294a2.3,2.3,0,0,0,.381.031,2.586,2.586,0,1,0-2.418-2.683c0,.034,0,.067,0,.1a2.59,2.59,0,0,0,1.476,2.379C226.309,22.346,222,20.9,218.6,8.876a4.6,4.6,0,0,0,2.731-4.282,4.314,4.314,0,1,0-8.618-.329q-.006.164,0,.329a4.536,4.536,0,0,0,3.4,4.5c-3.4,11.841-7.7,13.213-12.839,4.777a2.608,2.608,0,0,0,1.366-2.327,2.423,2.423,0,1,0-2.42,2.582,2.271,2.271,0,0,0,.528-.061c-1.5,10.861-6.736,9.359-13.953,1.243a2.669,2.669,0,0,0,.645-1.755,2.424,2.424,0,1,0-2.423,2.581,2.34,2.34,0,0,0,1.651-.691" transform="translate(-5.806 -0.201)" fill="#ead973" fill-rule="evenodd"/>
      <rect id="長方形_320" data-name="長方形 320" width="41.83" height="1.322" transform="translate(190.69 40.636)" fill="#ead973"/>
      <path id="パス_921" data-name="パス 921" d="M69.159,28.5l.788-3.117,13.279-7.234-5.9,11L71.9,26.387Z" transform="translate(-10.952 1.715)" fill="#2a9ad5"/>
      <path id="パス_922" data-name="パス 922" d="M68.3,24.053l-2.9-2.369L82.73,18.262Z" transform="translate(-10.954 1.715)" fill="#2a9ad5"/>
      <path id="パス_923" data-name="パス 923" d="M193.475,52.28c4.8-.961,8.647-1.922,9.608-2.882a2.235,2.235,0,0,0,.961-1.922c0-.961-1.492-.215-1.922,0a46.866,46.866,0,0,1-13.452,2.882c-3.962,0-14.442-.484-18.256-.961-7.687-.961-20.177-3.843-22.38-5.148a8.392,8.392,0,0,0,2.095-5.093,6.99,6.99,0,0,0-2.448-5.3,10.748,10.748,0,0,0-7.225-2.359.853.853,0,1,0,0,1.693,8.766,8.766,0,0,1,5.883,1.87,5.392,5.392,0,0,1,1.882,4.094,5.917,5.917,0,0,1-2.345,4.654c-5.594-1.267-12.015-3.648-18.692-6.124-1.381-.512-2.785-1.034-4.207-1.554a12,12,0,0,0-1.8-.653c-.555-.2-1.111-.4-1.67-.6-3.123-1.546-5.286-3.966-5.936-6.645a6.26,6.26,0,0,1,1.2-5.572c2.62-3.119,6.083-3.249,8.353-2,3.8,2.1,2.318,4.887,2.136,5.2a.8.8,0,0,0,.394,1.141,1.018,1.018,0,0,0,1.292-.349c.025-.044,2.588-4.446-2.815-7.432-3.562-1.968-8.041-.971-10.89,2.421a7.8,7.8,0,0,0-1.533,6.94,10.4,10.4,0,0,0,2.424,4.456c-8.033-2.614-16.3-4.654-24.039-4.654a24.732,24.732,0,0,0-10.22,1.9.961.961,0,0,0-.242.1l-.208.118a13.469,13.469,0,0,0-1.474.858c-3.419,2.039-6.528,4.217-9.544,6.336-5.164,3.624-9.626,6.754-13.95,7.933-6.272,1.708-11.639,1.42-15.95-.855a13.4,13.4,0,0,1-6.4-7c-1.047-3.028-.894-9.334,7.172-11.532,5.432-1.48,8.606,1.3,9.334,3.4a4.112,4.112,0,0,1-.142,3.225,3.916,3.916,0,0,1-2.564,1.963,5.141,5.141,0,0,1-3.569-.172A1.932,1.932,0,0,1,41.273,33.4a.966.966,0,0,0-1.139-.644.855.855,0,0,0-.728,1.011,3.661,3.661,0,0,0,1.971,2.367,7.171,7.171,0,0,0,5.089.327,5.786,5.786,0,0,0,3.743-2.883,5.61,5.61,0,0,0,.226-4.419,7.469,7.469,0,0,0-3.928-4.073,11.066,11.066,0,0,0-7.788-.448c-8.821,2.4-9.877,9.479-8.436,13.648a14.88,14.88,0,0,0,7.246,7.955,19.95,19.95,0,0,0,9.393,2.171,31.137,31.137,0,0,0,8.091-1.152c4.669-1.271,9.26-4.493,14.573-8.223,1.581-1.108,3.189-2.234,4.845-3.345a7.8,7.8,0,0,0-.437,2.617,8.337,8.337,0,0,0,8.7,8.975c5.955,0,8.06-3.548,8.344-5.425a.871.871,0,0,0-.821-.951.938.938,0,0,0-1.072.727,4.378,4.378,0,0,1-1,1.942c-1.154,1.335-2.988,2.012-5.452,2.012-3.282,0-6.792-1.913-6.792-7.28a6.516,6.516,0,0,1,2.831-5.36c.63-.38,1.266-.755,1.921-1.124.02-.012.037-.026.057-.039a22.746,22.746,0,0,1,9.382-1.695c9.125,0,19.146,2.98,28.619,6.336a12.443,12.443,0,0,0,1.787.639l.009,0c2.014.727,4,1.463,5.944,2.184,6.047,2.243,11.889,4.408,17.176,5.77a11.327,11.327,0,0,1-3.7.568c-9.972,0-18.686-3.4-27.118-6.694-7.1-2.772-13.808-5.39-20.3-5.39-6.91,0-9.5,2.1-9.606,2.189a.776.776,0,0,0-.046,1.185,1.048,1.048,0,0,0,1.344.055c.022-.017,2.253-1.734,8.308-1.734,6.092,0,12.62,2.548,19.532,5.248,8.209,3.2,17.513,6.837,27.886,6.837a11.983,11.983,0,0,0,6.381-1.635c2.97,1.829,10.535,3.24,12.578,3.751a114.072,114.072,0,0,0,11.53,1.922c6.726.961,18.256,1.922,23.06.961" transform="translate(-1.165 -0.714)" fill="#ffda00"/>
      <path id="パス_924" data-name="パス 924" d="M193.475,52.28c4.8-.961,8.647-1.922,9.608-2.882a2.235,2.235,0,0,0,.961-1.922c0-.961-1.492-.215-1.922,0a46.866,46.866,0,0,1-13.452,2.882c-3.962,0-14.442-.484-18.256-.961-7.687-.961-20.177-3.843-22.38-5.148a8.392,8.392,0,0,0,2.095-5.093,6.99,6.99,0,0,0-2.448-5.3,10.748,10.748,0,0,0-7.225-2.359.853.853,0,1,0,0,1.693,8.766,8.766,0,0,1,5.883,1.87,5.392,5.392,0,0,1,1.882,4.094,5.917,5.917,0,0,1-2.345,4.654c-5.594-1.267-12.015-3.648-18.692-6.124-1.381-.512-2.785-1.034-4.207-1.554a12,12,0,0,0-1.8-.653c-.555-.2-1.111-.4-1.67-.6-3.123-1.546-5.286-3.966-5.936-6.645a6.26,6.26,0,0,1,1.2-5.572c2.62-3.119,6.083-3.249,8.353-2,3.8,2.1,2.318,4.887,2.136,5.2a.8.8,0,0,0,.394,1.141,1.018,1.018,0,0,0,1.292-.349c.025-.044,2.588-4.446-2.815-7.432-3.562-1.968-8.041-.971-10.89,2.421a7.8,7.8,0,0,0-1.533,6.94,10.4,10.4,0,0,0,2.424,4.456c-8.033-2.614-16.3-4.654-24.039-4.654a24.732,24.732,0,0,0-10.22,1.9.961.961,0,0,0-.242.1l-.208.118a13.469,13.469,0,0,0-1.474.858c-3.419,2.039-6.528,4.217-9.544,6.336-5.164,3.624-9.626,6.754-13.95,7.933-6.272,1.708-11.639,1.42-15.95-.855a13.4,13.4,0,0,1-6.4-7c-1.047-3.028-.894-9.334,7.172-11.532,5.432-1.48,8.606,1.3,9.334,3.4a4.112,4.112,0,0,1-.142,3.225,3.916,3.916,0,0,1-2.564,1.963,5.141,5.141,0,0,1-3.569-.172A1.932,1.932,0,0,1,41.273,33.4a.966.966,0,0,0-1.139-.644.855.855,0,0,0-.728,1.011,3.661,3.661,0,0,0,1.971,2.367,7.171,7.171,0,0,0,5.089.327,5.786,5.786,0,0,0,3.743-2.883,5.61,5.61,0,0,0,.226-4.419,7.469,7.469,0,0,0-3.928-4.073,11.066,11.066,0,0,0-7.788-.448c-8.821,2.4-9.877,9.479-8.436,13.648a14.88,14.88,0,0,0,7.246,7.955,19.95,19.95,0,0,0,9.393,2.171,31.137,31.137,0,0,0,8.091-1.152c4.669-1.271,9.26-4.493,14.573-8.223,1.581-1.108,3.189-2.234,4.845-3.345a7.8,7.8,0,0,0-.437,2.617,8.337,8.337,0,0,0,8.7,8.975c5.955,0,8.06-3.548,8.344-5.425a.871.871,0,0,0-.821-.951.938.938,0,0,0-1.072.727,4.378,4.378,0,0,1-1,1.942c-1.154,1.335-2.988,2.012-5.452,2.012-3.282,0-6.792-1.913-6.792-7.28a6.516,6.516,0,0,1,2.831-5.36c.63-.38,1.266-.755,1.921-1.124.02-.012.037-.026.057-.039a22.746,22.746,0,0,1,9.382-1.695c9.125,0,19.146,2.98,28.619,6.336a12.443,12.443,0,0,0,1.787.639l.009,0c2.014.727,4,1.463,5.944,2.184,6.047,2.243,11.889,4.408,17.176,5.77a11.327,11.327,0,0,1-3.7.568c-9.972,0-18.686-3.4-27.118-6.694-7.1-2.772-13.808-5.39-20.3-5.39-6.91,0-9.5,2.1-9.606,2.189a.776.776,0,0,0-.046,1.185,1.048,1.048,0,0,0,1.344.055c.022-.017,2.253-1.734,8.308-1.734,6.092,0,12.62,2.548,19.532,5.248,8.209,3.2,17.513,6.837,27.886,6.837a11.983,11.983,0,0,0,6.381-1.635c2.97,1.829,10.535,3.24,12.578,3.751a114.072,114.072,0,0,0,11.53,1.922C177.141,52.28,188.671,53.241,193.475,52.28Z" transform="translate(-1.165 -0.714)" fill="#ead973" stroke="#ead973" stroke-miterlimit="10" stroke-width="0.3"/>
      <path id="パス_925" data-name="パス 925" d="M16.671,46.752a.853.853,0,1,0,0-1.695,13.992,13.992,0,0,1-8.555-3.73C4.209,37.71,2.177,31.973,2.063,24.248c2.662,2.63,6.478,3.509,10.19,4.364,6.552,1.509,12.211,2.811,10.877,13.595a.874.874,0,0,0,.843.934.935.935,0,0,0,1.054-.748c1.516-12.241-5.821-13.93-12.293-15.42C8.3,25.953,4.121,24.99,2,21.148a1,1,0,0,0-1.058-.455.886.886,0,0,0-.754.8c-.374,9.6,1.843,16.682,6.592,21.047a15.8,15.8,0,0,0,9.888,4.213" transform="translate(-0.006 -0.81)" fill="#e6da95" stroke="#e6da95" stroke-width="1"/>
      <path id="パス_926" data-name="パス 926" d="M16.671,46.752a.853.853,0,1,0,0-1.695,13.992,13.992,0,0,1-8.555-3.73C4.209,37.71,2.177,31.973,2.063,24.248c2.662,2.63,6.478,3.509,10.19,4.364,6.552,1.509,12.211,2.811,10.877,13.595a.874.874,0,0,0,.843.934.935.935,0,0,0,1.054-.748c1.516-12.241-5.821-13.93-12.293-15.42C8.3,25.953,4.121,24.99,2,21.148a1,1,0,0,0-1.058-.455.886.886,0,0,0-.754.8c-.374,9.6,1.843,16.682,6.592,21.047A15.8,15.8,0,0,0,16.671,46.752Z" transform="translate(-0.006 -0.81)" fill="#ead973" stroke="#ead973" stroke-miterlimit="10" stroke-width="0.3"/>
      <path id="パス_927" data-name="パス 927" d="M45.926,54.016A34.838,34.838,0,0,0,70.621,44.2a.783.783,0,0,0-.078-1.2,1.042,1.042,0,0,0-1.349.07,33.046,33.046,0,0,1-25.031,9.2c-8.578-.416-21.341-4.087-33.437-19.211a1.038,1.038,0,0,0-1.331-.2.788.788,0,0,0-.226,1.182C21.707,49.724,35.061,53.532,44.06,53.97q.934.045,1.866.045" transform="translate(-0.352 -1.281)" fill="#e6da95" stroke="#e6da95" stroke-width="1"/>
      <path id="パス_928" data-name="パス 928" d="M45.926,54.016A34.838,34.838,0,0,0,70.621,44.2a.783.783,0,0,0-.078-1.2,1.042,1.042,0,0,0-1.349.07,33.046,33.046,0,0,1-25.031,9.2c-8.578-.416-21.341-4.087-33.437-19.211a1.038,1.038,0,0,0-1.331-.2.788.788,0,0,0-.226,1.182C21.707,49.724,35.061,53.532,44.06,53.97Q44.994,54.015,45.926,54.016Z" transform="translate(-0.352 -1.281)" fill="#ead973" stroke="#ead973" stroke-miterlimit="10" stroke-width="0.3"/>
      <path id="パス_929" data-name="パス 929" d="M241.719,52.28c-4.8-.961-8.647-1.922-9.608-2.882a2.235,2.235,0,0,1-.961-1.922c0-.961,1.492-.215,1.922,0a46.866,46.866,0,0,0,13.452,2.882c3.962,0,14.442-.484,18.256-.961,7.687-.961,20.177-3.843,22.38-5.148a8.392,8.392,0,0,1-2.095-5.093,6.99,6.99,0,0,1,2.448-5.3,10.748,10.748,0,0,1,7.225-2.359.853.853,0,1,1,0,1.693,8.766,8.766,0,0,0-5.883,1.87,5.392,5.392,0,0,0-1.882,4.094,5.917,5.917,0,0,0,2.345,4.654c5.594-1.267,12.015-3.648,18.692-6.124,1.381-.512,2.785-1.034,4.207-1.554a12,12,0,0,1,1.8-.653c.555-.2,1.111-.4,1.67-.6,3.123-1.546,5.286-3.966,5.936-6.645a6.26,6.26,0,0,0-1.2-5.572c-2.62-3.119-6.083-3.249-8.353-2-3.8,2.1-2.318,4.887-2.136,5.2a.8.8,0,0,1-.394,1.141,1.018,1.018,0,0,1-1.292-.349c-.025-.044-2.588-4.446,2.815-7.432,3.562-1.968,8.042-.971,10.89,2.421a7.8,7.8,0,0,1,1.533,6.94,10.4,10.4,0,0,1-2.424,4.456c8.033-2.614,16.3-4.654,24.039-4.654a24.732,24.732,0,0,1,10.22,1.9.961.961,0,0,1,.242.1l.208.118a13.469,13.469,0,0,1,1.474.858c3.419,2.039,6.528,4.217,9.544,6.336,5.164,3.624,9.626,6.754,13.95,7.933,6.272,1.708,11.639,1.42,15.95-.855a13.4,13.4,0,0,0,6.4-7c1.047-3.028.894-9.334-7.172-11.532-5.432-1.48-8.606,1.3-9.334,3.4a4.112,4.112,0,0,0,.142,3.225,3.916,3.916,0,0,0,2.564,1.963,5.141,5.141,0,0,0,3.569-.172,1.932,1.932,0,0,0,1.064-1.269.967.967,0,0,1,1.139-.644.855.855,0,0,1,.728,1.011,3.661,3.661,0,0,1-1.971,2.367,7.171,7.171,0,0,1-5.089.327,5.786,5.786,0,0,1-3.743-2.883,5.61,5.61,0,0,1-.226-4.419,7.469,7.469,0,0,1,3.928-4.073,11.066,11.066,0,0,1,7.788-.448c8.821,2.4,9.877,9.479,8.436,13.648a14.88,14.88,0,0,1-7.246,7.955,19.95,19.95,0,0,1-9.393,2.171,31.137,31.137,0,0,1-8.091-1.152c-4.669-1.271-9.26-4.493-14.573-8.223-1.58-1.108-3.189-2.234-4.845-3.345a7.8,7.8,0,0,1,.437,2.617,8.337,8.337,0,0,1-8.7,8.975c-5.955,0-8.06-3.548-8.344-5.425a.871.871,0,0,1,.821-.951.938.938,0,0,1,1.072.727,4.378,4.378,0,0,0,1,1.942c1.154,1.335,2.988,2.012,5.452,2.012,3.282,0,6.792-1.913,6.792-7.28a6.516,6.516,0,0,0-2.831-5.36c-.63-.38-1.266-.755-1.92-1.124-.021-.012-.037-.026-.058-.039a22.746,22.746,0,0,0-9.382-1.695c-9.125,0-19.146,2.98-28.619,6.336a12.445,12.445,0,0,1-1.787.639l-.009,0c-2.014.727-4,1.463-5.944,2.184-6.047,2.243-11.889,4.408-17.176,5.77a11.327,11.327,0,0,0,3.7.568c9.972,0,18.686-3.4,27.118-6.694,7.1-2.772,13.808-5.39,20.3-5.39,6.91,0,9.5,2.1,9.606,2.189a.776.776,0,0,1,.046,1.185,1.048,1.048,0,0,1-1.344.055c-.022-.017-2.253-1.734-8.308-1.734-6.092,0-12.62,2.548-19.532,5.248-8.209,3.2-17.513,6.837-27.886,6.837a11.983,11.983,0,0,1-6.381-1.635c-2.97,1.829-10.535,3.24-12.578,3.751a114.072,114.072,0,0,1-11.53,1.922c-6.726.961-18.256,1.922-23.06.961" transform="translate(-9.054 -0.714)" fill="#ffda00"/>
      <path id="パス_930" data-name="パス 930" d="M241.719,52.28c-4.8-.961-8.647-1.922-9.608-2.882a2.235,2.235,0,0,1-.961-1.922c0-.961,1.492-.215,1.922,0a46.866,46.866,0,0,0,13.452,2.882c3.962,0,14.442-.484,18.256-.961,7.687-.961,20.177-3.843,22.38-5.148a8.392,8.392,0,0,1-2.095-5.093,6.99,6.99,0,0,1,2.448-5.3,10.748,10.748,0,0,1,7.225-2.359.853.853,0,1,1,0,1.693,8.766,8.766,0,0,0-5.883,1.87,5.392,5.392,0,0,0-1.882,4.094,5.917,5.917,0,0,0,2.345,4.654c5.594-1.267,12.015-3.648,18.692-6.124,1.381-.512,2.785-1.034,4.207-1.554a12,12,0,0,1,1.8-.653c.555-.2,1.111-.4,1.67-.6,3.123-1.546,5.286-3.966,5.936-6.645a6.26,6.26,0,0,0-1.2-5.572c-2.62-3.119-6.083-3.249-8.353-2-3.8,2.1-2.318,4.887-2.136,5.2a.8.8,0,0,1-.394,1.141,1.018,1.018,0,0,1-1.292-.349c-.025-.044-2.588-4.446,2.815-7.432,3.562-1.968,8.042-.971,10.89,2.421a7.8,7.8,0,0,1,1.533,6.94,10.4,10.4,0,0,1-2.424,4.456c8.033-2.614,16.3-4.654,24.039-4.654a24.732,24.732,0,0,1,10.22,1.9.961.961,0,0,1,.242.1l.208.118a13.469,13.469,0,0,1,1.474.858c3.419,2.039,6.528,4.217,9.544,6.336,5.164,3.624,9.626,6.754,13.95,7.933,6.272,1.708,11.639,1.42,15.95-.855a13.4,13.4,0,0,0,6.4-7c1.047-3.028.894-9.334-7.172-11.532-5.432-1.48-8.606,1.3-9.334,3.4a4.112,4.112,0,0,0,.142,3.225,3.916,3.916,0,0,0,2.564,1.963,5.141,5.141,0,0,0,3.569-.172,1.932,1.932,0,0,0,1.064-1.269.967.967,0,0,1,1.139-.644.855.855,0,0,1,.728,1.011,3.661,3.661,0,0,1-1.971,2.367,7.171,7.171,0,0,1-5.089.327,5.786,5.786,0,0,1-3.743-2.883,5.61,5.61,0,0,1-.226-4.419,7.469,7.469,0,0,1,3.928-4.073,11.066,11.066,0,0,1,7.788-.448c8.821,2.4,9.877,9.479,8.436,13.648a14.88,14.88,0,0,1-7.246,7.955,19.95,19.95,0,0,1-9.393,2.171,31.137,31.137,0,0,1-8.091-1.152c-4.669-1.271-9.26-4.493-14.573-8.223-1.58-1.108-3.189-2.234-4.845-3.345a7.8,7.8,0,0,1,.437,2.617,8.337,8.337,0,0,1-8.7,8.975c-5.955,0-8.06-3.548-8.344-5.425a.871.871,0,0,1,.821-.951.938.938,0,0,1,1.072.727,4.378,4.378,0,0,0,1,1.942c1.154,1.335,2.988,2.012,5.452,2.012,3.282,0,6.792-1.913,6.792-7.28a6.516,6.516,0,0,0-2.831-5.36c-.63-.38-1.266-.755-1.92-1.124-.021-.012-.037-.026-.058-.039a22.746,22.746,0,0,0-9.382-1.695c-9.125,0-19.146,2.98-28.619,6.336a12.445,12.445,0,0,1-1.787.639l-.009,0c-2.014.727-4,1.463-5.944,2.184-6.047,2.243-11.889,4.408-17.176,5.77a11.327,11.327,0,0,0,3.7.568c9.972,0,18.686-3.4,27.118-6.694,7.1-2.772,13.808-5.39,20.3-5.39,6.91,0,9.5,2.1,9.606,2.189a.776.776,0,0,1,.046,1.185,1.048,1.048,0,0,1-1.344.055c-.022-.017-2.253-1.734-8.308-1.734-6.092,0-12.62,2.548-19.532,5.248-8.209,3.2-17.513,6.837-27.886,6.837a11.983,11.983,0,0,1-6.381-1.635c-2.97,1.829-10.535,3.24-12.578,3.751a114.072,114.072,0,0,1-11.53,1.922C258.053,52.28,246.523,53.241,241.719,52.28Z" transform="translate(-9.054 -0.714)" fill="#ead973" stroke="#ead973" stroke-miterlimit="10" stroke-width="0.3"/>
      <path id="パス_931" data-name="パス 931" d="M424.607,46.752a.853.853,0,1,1,0-1.695,13.992,13.992,0,0,0,8.555-3.73c3.912-3.617,5.943-9.354,6.057-17.079-2.661,2.63-6.478,3.509-10.19,4.364-6.552,1.509-12.211,2.811-10.877,13.595a.874.874,0,0,1-.843.934.935.935,0,0,1-1.054-.748c-1.516-12.241,5.821-13.93,12.293-15.42,4.428-1.019,8.612-1.982,10.731-5.825a1,1,0,0,1,1.058-.455.886.886,0,0,1,.754.8c.374,9.6-1.843,16.682-6.592,21.047a15.8,15.8,0,0,1-9.888,4.213" transform="translate(-16.296 -0.81)" fill="#ffda00"/>
      <path id="パス_932" data-name="パス 932" d="M424.607,46.752a.853.853,0,1,1,0-1.695,13.992,13.992,0,0,0,8.555-3.73c3.912-3.617,5.943-9.354,6.057-17.079-2.661,2.63-6.478,3.509-10.19,4.364-6.552,1.509-12.211,2.811-10.877,13.595a.874.874,0,0,1-.843.934.935.935,0,0,1-1.054-.748c-1.516-12.241,5.821-13.93,12.293-15.42,4.428-1.019,8.612-1.982,10.731-5.825a1,1,0,0,1,1.058-.455.886.886,0,0,1,.754.8c.374,9.6-1.843,16.682-6.592,21.047A15.8,15.8,0,0,1,424.607,46.752Z" transform="translate(-16.296 -0.81)" fill="#ead973" stroke="#ead973" stroke-miterlimit="10" stroke-width="0.3"/>
      <path id="パス_933" data-name="パス 933" d="M393.851,54.016A34.838,34.838,0,0,1,369.157,44.2a.783.783,0,0,1,.078-1.2,1.043,1.043,0,0,1,1.349.07,33.046,33.046,0,0,0,25.031,9.2c8.578-.416,21.341-4.087,33.437-19.211a1.038,1.038,0,0,1,1.331-.2.788.788,0,0,1,.226,1.182c-12.537,15.674-25.891,19.483-34.891,19.921q-.934.045-1.866.045" transform="translate(-14.45 -1.281)" fill="#ffda00"/>
      <path id="パス_934" data-name="パス 934" d="M393.851,54.016A34.838,34.838,0,0,1,369.157,44.2a.783.783,0,0,1,.078-1.2,1.043,1.043,0,0,1,1.349.07,33.046,33.046,0,0,0,25.031,9.2c8.578-.416,21.341-4.087,33.437-19.211a1.038,1.038,0,0,1,1.331-.2.788.788,0,0,1,.226,1.182c-12.537,15.674-25.891,19.483-34.891,19.921Q394.783,54.015,393.851,54.016Z" transform="translate(-14.45 -1.281)" fill="#ead973" stroke="#ead973" stroke-miterlimit="10" stroke-width="0.3"/>
      <path id="パス_935" data-name="パス 935" d="M329.526,57.528l.864-3.418,14.562-7.933-6.467,12.067-5.95-3.033Z" transform="translate(-19.627 -1.809)" fill="#ff903f"/>
      <path id="パス_936" data-name="パス 936" d="M328.948,52.641l-3.185-2.6,19.009-3.753Z" transform="translate(-19.992 -1.798)" fill="#ff903f"/>
      <path id="パス_937" data-name="パス 937" d="M168.15,37.276h4.8a4.8,4.8,0,0,0,4.8-4.8v-4.8h-4.8a4.8,4.8,0,0,0-4.8,4.8Z" transform="translate(-6.586 -1.084)" fill="#d9f293"/>
      <path id="パス_938" data-name="パス 938" d="M272.758,37.276h-4.8a4.8,4.8,0,0,1-4.8-4.8v-4.8h4.8a4.8,4.8,0,0,1,4.8,4.8Z" transform="translate(-10.307 -1.084)" fill="#b4e0f5"/>
      <path id="パス_939" data-name="パス 939" d="M369.432,31.693l.829-3.277,13.958-7.6-6.2,11.567-5.7-2.908Z" transform="translate(-12.627 -0.948)" fill="#91cf59"/>
      <path id="パス_940" data-name="パス 940" d="M368.722,27.013l-3.053-2.49,18.22-3.6Z" transform="translate(-12.821 -0.943)" fill="#91cf59"/>
    </g>
  </g>
</svg>
