<svg xmlns="http://www.w3.org/2000/svg" width="229.682" height="150.952" viewBox="0 0 229.682 150.952">
  <g id="logo" transform="translate(-846.453 -76.29)">
    <rect id="長方形_298" data-name="長方形 298" width="20.647" height="0.615" transform="translate(950.97 95.201)" fill="#dcb200"/>
    <path id="パス_762" data-name="パス 762" d="M1099.3,242.233a3.986,3.986,0,1,0,4.034,4.126c0-.049,0-.1,0-.149a4.006,4.006,0,0,0-4.038-3.978" transform="translate(-137.85 -44.297)" fill="#dcb200" fill-rule="evenodd"/>
    <path id="パス_763" data-name="パス 763" d="M1110.779,243.325a2.275,2.275,0,1,0,2.3,2.356c0-.029,0-.058,0-.087a2.288,2.288,0,0,0-2.305-2.269" transform="translate(-140.293 -44.497)" fill="#dcb200" fill-rule="evenodd"/>
    <path id="パス_764" data-name="パス 764" d="M1089.026,243.325a2.275,2.275,0,1,0,2.3,2.356c0-.029,0-.058,0-.087a2.288,2.288,0,0,0-2.306-2.269" transform="translate(-136.311 -44.497)" fill="#dcb200" fill-rule="evenodd"/>
    <path id="パス_765" data-name="パス 765" d="M1080.142,242.475a1.612,1.612,0,1,0,1.631,1.669c0-.02,0-.039,0-.06a1.62,1.62,0,0,0-1.632-1.609h0" transform="translate(-134.817 -44.342)" fill="#dcb200" fill-rule="evenodd"/>
    <path id="パス_766" data-name="パス 766" d="M1120.293,242.475a1.612,1.612,0,1,1-1.632,1.669c0-.02,0-.039,0-.06a1.619,1.619,0,0,1,1.632-1.609h0" transform="translate(-142.19 -44.342)" fill="#dcb200" fill-rule="evenodd"/>
    <path id="パス_767" data-name="パス 767" d="M1033.431,191.169a3.042,3.042,0,0,0,1.758.659,28.293,28.293,0,0,0,3.453-.322,8.625,8.625,0,0,0,2.51-.775c.895,0,2.254.541,2.254,1.025,0,.351-.225.659-.8.7-.623.059-2.029.117-3.852.307.591.249,1.055.556,1.055.878,0,.293-.271.614-.351,1.025-.112.614-.224,1.536-.3,2.473,1.038-.087,2-.16,2.684-.2a13.141,13.141,0,0,0,1.377-.278c.846,0,2.429.848,2.429,1.449a.7.7,0,0,1-.751.7,38.629,38.629,0,0,0-4.412-.527,25.187,25.187,0,0,0-5.387.57,11.283,11.283,0,0,1-1.791.468,2.751,2.751,0,0,1-1.773-1.331,2.033,2.033,0,0,1-.176-.981l.208-.087a2.335,2.335,0,0,0,1.566.659c.72,0,2.526-.146,4.4-.293.048-.936.1-2.122.1-2.9a2.65,2.65,0,0,0-.351-1.449c-1.04.147-1.726.293-2.191.293a1.8,1.8,0,0,1-1.263-.8,3.931,3.931,0,0,1-.574-1.156Z" transform="translate(-126.209 -34.879)" fill="#dcb200"/>
    <path id="パス_768" data-name="パス 768" d="M1051.836,189.621c.448.454.656.659,1.168.659,1.47,0,6.665-.556,7.8-.7.592-.074.831-.351,1.231-.351.608,0,2.189,1.347,2.189,1.961,0,.512-.878.556-1.263.761-.7.366-1.95,1-3.276,1.581a.462.462,0,0,1-.032.351,12.651,12.651,0,0,1-7.21,7l-.225-.249c3.1-1.932,5.2-5.678,5.2-6.644,0-.468-.543-.731-1.2-1l.032-.22a4.684,4.684,0,0,1,1.119-.117,4.137,4.137,0,0,1,1.741.41,9.309,9.309,0,0,0,2.175-2.152c.16-.293.063-.366-.24-.366a60.057,60.057,0,0,0-6.266,1.068c-.623.161-.846.556-1.327.556a2.491,2.491,0,0,1-1.743-1.361,2.349,2.349,0,0,1-.112-1.127Z" transform="translate(-129.91 -34.604)" fill="#dcb200"/>
    <path id="パス_769" data-name="パス 769" d="M1068.816,189.817v-.234a3.363,3.363,0,0,1,1.279-.337c.7,0,2.173.732,2.173,1.258,0,.38-.352.6-.383,1.2-.049.63-.032,3.2-.032,4.2,0,.776-.32,1.1-.864,1.1-.528,0-1.039-.731-1.039-1.6a12.791,12.791,0,0,0,.225-1.8,27.354,27.354,0,0,0-.1-2.868.578.578,0,0,0-.352-.542,5.02,5.02,0,0,0-.911-.38m1.951,11.166-.177-.264c3.037-1.521,4.635-3.439,4.875-6.337a29,29,0,0,0,.032-3.907c-.015-.337-.047-.5-.351-.659a4.1,4.1,0,0,0-.958-.337l-.016-.234a3.4,3.4,0,0,1,1.5-.63c.672,0,2.095.732,2.095,1.171,0,.38-.32.542-.351.981-.049.849-.145,2.723-.192,3.615-.225,3.5-2.51,5.562-6.458,6.6" transform="translate(-133.066 -34.493)" fill="#dcb200"/>
    <path id="パス_770" data-name="パス 770" d="M1084.607,194.277c.48.586.752.981,1.6.981,1.709,0,6.538-.293,7.513-.365,1.071-.088,1.789-.206,2.174-.206.958,0,1.79.454,1.79,1.084,0,.424-.383.629-1.055.629-.64,0-1.2-.044-2.318-.044-1.215,0-4.8.205-6.027.337-1.151.1-1.391.454-2,.454-.623,0-1.615-.952-1.9-1.669a2.178,2.178,0,0,1-.048-1.111Z" transform="translate(-135.899 -35.528)" fill="#dcb200"/>
    <path id="パス_771" data-name="パス 771" d="M1103.286,189.621c.449.454.655.659,1.167.659,1.471,0,6.666-.556,7.8-.7.591-.074.831-.351,1.231-.351.606,0,2.189,1.347,2.189,1.961,0,.512-.88.556-1.263.761-.7.366-1.95,1-3.278,1.581a.449.449,0,0,1-.032.351,12.643,12.643,0,0,1-7.208,7l-.225-.249c3.1-1.932,5.195-5.678,5.195-6.644,0-.468-.543-.731-1.2-1l.032-.22a4.677,4.677,0,0,1,1.118-.117,4.144,4.144,0,0,1,1.742.41,9.306,9.306,0,0,0,2.175-2.152c.16-.293.063-.366-.24-.366a60.053,60.053,0,0,0-6.266,1.068c-.623.161-.846.556-1.327.556a2.492,2.492,0,0,1-1.743-1.361,2.309,2.309,0,0,1-.112-1.127Z" transform="translate(-139.328 -34.604)" fill="#dcb200"/>
    <path id="パス_772" data-name="パス 772" d="M1120.818,189.512a6.419,6.419,0,0,1,2.589,1.1.288.288,0,0,1,.1.1c1.6-.087,5.147-.381,6.138-.5.335-.044.814-.468,1.151-.468.687,0,2.078,1.127,2.078,1.6,0,.381-.641.629-.783,1.01a13.47,13.47,0,0,1-8.647,8.547l-.225-.293a13.951,13.951,0,0,0,6.889-9.118c.032-.221,0-.264-.208-.264-.734,0-2.046.132-3.036.248s-1.9.337-2.318.337a1.5,1.5,0,0,1-.88-.366c.08.923.208,3.045.224,3.82,0,.483-.1.878-.783.878-.72,0-1.151-.936-1.151-1.45,0-.337.08-.746.064-1.258a11.478,11.478,0,0,0-.208-1.975,3.369,3.369,0,0,0-1.151-1.757Z" transform="translate(-142.556 -34.656)" fill="#dcb200"/>
    <path id="パス_773" data-name="パス 773" d="M1138.664,194.277c.479.586.75.981,1.6.981,1.71,0,6.538-.293,7.513-.365,1.071-.088,1.791-.206,2.174-.206.958,0,1.79.454,1.79,1.084,0,.424-.383.629-1.055.629-.64,0-1.2-.044-2.318-.044-1.215,0-4.8.205-6.027.337-1.151.1-1.391.454-2,.454-.623,0-1.614-.952-1.9-1.669a2.2,2.2,0,0,1-.048-1.111Z" transform="translate(-145.794 -35.528)" fill="#dcb200"/>
    <path id="パス_774" data-name="パス 774" d="M1158.846,188.826a4.037,4.037,0,0,1,1.454-.424c.8,0,2.221.717,2.221,1.2,0,.424-.351.57-.431,1.111a17.016,17.016,0,0,0-.144,2.21,11.492,11.492,0,0,1,3.981,1.039,1.773,1.773,0,0,1,1.167,1.6.887.887,0,0,1-.927.893c-1.023,0-1.087-.806-2.317-1.844a8.654,8.654,0,0,0-1.92-1.1c-.047,1.551-.032,3.424.016,4.683.032.747.064,1.244.064,1.449,0,.762-.175,1.068-.814,1.068-.832,0-1.279-.789-1.279-1.873,0-.395.144-.731.224-1.376.128-1.1.143-3.059.143-3.937a29.89,29.89,0,0,0-.175-3.717c-.1-.483-.591-.643-1.248-.746Zm5.355,1.039a5.46,5.46,0,0,1,2.141.878,1.053,1.053,0,0,1,.465.835.548.548,0,0,1-.592.541c-.256,0-.448-.22-.737-.556a6.628,6.628,0,0,0-1.438-1.507Zm1.438-1.186a5.492,5.492,0,0,1,2.078.717,1.044,1.044,0,0,1,.56.907.471.471,0,0,1-.527.5c-.3,0-.5-.22-.8-.586a6.747,6.747,0,0,0-1.454-1.346Z" transform="translate(-149.547 -34.453)" fill="#dcb200"/>
    <path id="パス_775" data-name="パス 775" d="M1106.876,148.4a12.579,12.579,0,0,0-2.849-7.04l-1.132,3.6a10.232,10.232,0,0,1,1.015,3.638v.007l-.013.017c.006.078.006.155.007.233h.006a1.474,1.474,0,0,0,1.481,1.064,1.426,1.426,0,0,0,1.511-1.312,1.156,1.156,0,0,0-.025-.205m-31.361-1.571a13.529,13.529,0,0,0-4.861-.894c-6.622,0-11.989,4.577-11.989,10.324s5.366,10.324,11.989,10.324l3.422.036a1.418,1.418,0,0,0,1.555-1.236,1.377,1.377,0,0,0-1.349-1.425,1.728,1.728,0,0,0-.206,0c-.023,0-.042-.006-.066-.006h-3.355c-4.955,0-8.987-3.406-8.987-7.7s4.032-7.754,8.987-7.754a10.11,10.11,0,0,1,3.64.693l3.5,1.365.675-3.273c1.09-5.306,6.414-9.156,12.633-9.156a14.571,14.571,0,0,1,3.163.346l3.94-1.481a17.752,17.752,0,0,0-7.12-1.468c-7.786,0-14.251,4.881-15.573,11.307" transform="translate(-131.208 -24.783)" fill="#dcb200"/>
    <path id="パス_776" data-name="パス 776" d="M1098.016,149.154l-.027-2.8,12.55-9.1L1107.2,147.85l-6.772-1.095Z" transform="translate(-138.406 -25.1)" fill="#dcb200"/>
    <path id="パス_777" data-name="パス 777" d="M1094.429,145.656l-3.88-1.334,18.113-6.81Z" transform="translate(-137.045 -25.147)" fill="#dcb200"/>
    <path id="パス_778" data-name="パス 778" d="M1103.34,169.407V158.222a1.163,1.163,0,0,1,.433-.917,1.632,1.632,0,0,1,2.081,0,1.209,1.209,0,0,1,.445.917v11.185a1.2,1.2,0,0,1-.445.914,1.626,1.626,0,0,1-2.081,0,1.154,1.154,0,0,1-.433-.914" transform="translate(-139.386 -28.698)" fill="#dcb200"/>
    <path id="パス_779" data-name="パス 779" d="M1128.256,169.42l-5.1-10.632a1.287,1.287,0,0,1-.141-.579,1.082,1.082,0,0,1,.114-.49,1.325,1.325,0,0,1,.311-.413,1.411,1.411,0,0,1,.467-.276,1.713,1.713,0,0,1,1.4.117,1.367,1.367,0,0,1,.58.634l3.982,8.246,3.982-8.272a1.479,1.479,0,0,1,.488-.595,1.53,1.53,0,0,1,.9-.228,1.643,1.643,0,0,1,.58.1,1.4,1.4,0,0,1,.786.689,1.062,1.062,0,0,1,.12.49,1.29,1.29,0,0,1-.155.579l-8.147,16.951a1.537,1.537,0,0,1-.565.62,1.581,1.581,0,0,1-.837.237,1.522,1.522,0,0,1-1.055-.369,1.169,1.169,0,0,1-.418-.919,1.218,1.218,0,0,1,.141-.568Z" transform="translate(-142.987 -28.698)" fill="#dcb200"/>
    <path id="パス_780" data-name="パス 780" d="M1119.121,158.04a1.475,1.475,0,0,0-1.682-1.115l-.035.007h-.04a9.145,9.145,0,0,0-1.536.33,8.694,8.694,0,0,0-2.334,1.142v-.248a1.17,1.17,0,0,0-.435-.909,1.665,1.665,0,0,0-2.117,0,1.161,1.161,0,0,0-.439.909v11.325a1.17,1.17,0,0,0,.439.914,1.667,1.667,0,0,0,2.117,0,1.173,1.173,0,0,0,.435-.914v-5.663a3.771,3.771,0,0,1,.4-1.7,4.418,4.418,0,0,1,1.073-1.384,5.154,5.154,0,0,1,1.6-.93,4.918,4.918,0,0,1,1.257-.3h.02a1.349,1.349,0,0,0,1.287-1.434l0-.021" transform="translate(-140.697 -28.687)" fill="#dcb200"/>
    <path id="パス_781" data-name="パス 781" d="M1093.078,169.42v-.243a8.568,8.568,0,0,1-2.31,1.129,8.742,8.742,0,0,1-2.662.395,8.266,8.266,0,0,1-5.61-2.017,6.264,6.264,0,0,1,0-9.736,8.81,8.81,0,0,1,11.219,0,6.221,6.221,0,0,1,2.325,4.864v5.608a1.152,1.152,0,0,1-.433.9,1.532,1.532,0,0,1-1.04.377,1.559,1.559,0,0,1-1.059-.377,1.156,1.156,0,0,1-.431-.9m-4.972-9.92a5.519,5.519,0,0,0-1.953.342,5.09,5.09,0,0,0-1.574.93,4.43,4.43,0,0,0-1.055,1.37,3.773,3.773,0,0,0,0,3.343,4.443,4.443,0,0,0,1.055,1.37,5.5,5.5,0,0,0,7.046-.006,4.429,4.429,0,0,0,1.065-1.37,3.771,3.771,0,0,0,0-3.331,4.414,4.414,0,0,0-1.065-1.369,5.3,5.3,0,0,0-3.519-1.28" transform="translate(-135.145 -28.698)" fill="#dcb200"/>
    <path id="パス_782" data-name="パス 782" d="M1084.237,221.221a.159.159,0,0,1,.169-.142.169.169,0,0,1,.171.179c0,.053-.02.321-.038.482-.17,1.322-.226,2.378-.264,3.056a.334.334,0,0,1-.378.34h-8.9a12.243,12.243,0,0,1,3.564-4.987c1.6-1.574,3.113-3.057,3.113-5.309,0-1.806-.905-2.771-2.3-2.771-1.207,0-2.246.768-2.246,1.68a.5.5,0,0,0,.566.536.914.914,0,0,1,.98,1,1.179,1.179,0,0,1-1.32,1.126,1.371,1.371,0,0,1-1.413-1.483c0-1.769,1.716-3.378,4.149-3.378,2.565,0,4.149,1.233,4.149,3.557,0,2.484-2.282,3.968-4.471,5.38a11.568,11.568,0,0,0-3.357,2.736h6.828c.51,0,.565-.036.66-.43Z" transform="translate(-134.197 -38.687)" fill="#dcb200"/>
    <path id="パス_783" data-name="パス 783" d="M1097.767,218.075c0,5.381-2.509,7.24-4.621,7.24-2.6,0-4.621-2.145-4.621-6.453,0-5.452,2.51-7.311,4.621-7.311,2.6,0,4.621,2.145,4.621,6.524m-2.565.465c0-4.809-.528-6.632-2.055-6.632s-2.056,2-2.056,6.489c0,4.737.528,6.56,2.056,6.56s2.055-2,2.055-6.417" transform="translate(-136.674 -38.687)" fill="#dcb200"/>
    <path id="パス_784" data-name="パス 784" d="M1110.557,221.221a.16.16,0,0,1,.171-.142.169.169,0,0,1,.17.179c0,.053-.02.321-.039.482-.168,1.322-.226,2.378-.262,3.056a.334.334,0,0,1-.377.34h-8.9a12.221,12.221,0,0,1,3.564-4.987c1.6-1.574,3.111-3.057,3.111-5.309,0-1.806-.905-2.771-2.3-2.771-1.207,0-2.245.768-2.245,1.68a.494.494,0,0,0,.566.536.914.914,0,0,1,.98,1,1.18,1.18,0,0,1-1.32,1.126,1.373,1.373,0,0,1-1.415-1.483c0-1.769,1.717-3.378,4.149-3.378,2.565,0,4.149,1.233,4.149,3.557,0,2.484-2.282,3.968-4.469,5.38a11.545,11.545,0,0,0-3.357,2.736h6.827c.51,0,.566-.036.661-.43Z" transform="translate(-139.016 -38.687)" fill="#dcb200"/>
    <path id="パス_785" data-name="パス 785" d="M1123.718,221.221a.159.159,0,0,1,.169-.142.169.169,0,0,1,.171.179c0,.053-.02.321-.038.482-.169,1.322-.226,2.378-.264,3.056a.334.334,0,0,1-.377.34h-8.9a12.232,12.232,0,0,1,3.566-4.987c1.6-1.574,3.111-3.057,3.111-5.309,0-1.806-.905-2.771-2.3-2.771-1.207,0-2.244.768-2.244,1.68a.493.493,0,0,0,.564.536.914.914,0,0,1,.98,1,1.178,1.178,0,0,1-1.318,1.126,1.372,1.372,0,0,1-1.415-1.483c0-1.769,1.716-3.378,4.149-3.378,2.565,0,4.149,1.233,4.149,3.557,0,2.484-2.282,3.968-4.469,5.38a11.555,11.555,0,0,0-3.358,2.736h6.829c.509,0,.564-.036.659-.43Z" transform="translate(-141.424 -38.687)" fill="#dcb200"/>
    <path id="パス_786" data-name="パス 786" d="M1018.07,113c-1.008,1.424-.219,1.733-2.392,3.75a29.388,29.388,0,0,1-4.4,3.291c-3.822,2.232-4.666,4.378-5.148,7.413-.384,2.41-3.389,5.32-5.429,7.351-1.536,1.541-5.1,6.455-6.173,7.183.4-2.544,5.2-3.817,3.528-8.794-.8-2.392-.352-2.6-2.141-5.284-.992-1.491-1.712-3.355-3.03-5.363-.349.543.119,1.445.4,2.115a2.849,2.849,0,0,1,0,1.892,14.319,14.319,0,0,1-1.222,3.509c-.743,1.789-2.438,5.244-1.058,7.335,2.013,3.064,3.321,3.744,2.143,6.548a49.078,49.078,0,0,1-3.113,5.6,52.362,52.362,0,0,0-2.564,5.73c-.5,1.2-1.5,5.044-1.988,5.737-1.686-2.71,1.924-5.365-.332-8.787l-.292-.447c-1.389-2.1-9.869-8.878-11.4-9.032.714,1.085,1.107.923,1.66,1.767l.294.446c2.349,3.566.731,7.138,2.86,10.373l.49.743c1.037,1.574,3.787,1.611,4.771,3.106L984.8,161.1c.712,1.076-.035,3.487-.283,4.607a27,27,0,0,0-.51,4.427c-.062,1.012-.092,8.9-.189,9.05-2.194-.22-3.463-3.079-4.875-5.158s-3.49-2.613-5.576-3.092c-1.963-.453-11.675-.48-13.859-.059.595.5,3.97.409,6.286,2.155,1.694,1.274,3.5,3.1,5.16,4.462a7.577,7.577,0,0,0,6.471,1.7c2.092-.428,1.7-.652,3.6-.209a4.785,4.785,0,0,1,2.794,1.713l.393.6c.5.751,1.644,6.646,2.3,8.475a40.441,40.441,0,0,0,4.188,8.91l2.542,3.857c-1.367.269-4.249-3.445-5.582-4.219a15.52,15.52,0,0,0-6.265-2.2c-3.2-.468-11.3.7-15.164,1.544,1.242.514,4.06-.256,6.963,1.288,2,1.066,4.029,2.07,6.038,3.137s3.96,2.434,6.444,2.151c3.739-.426,4.25-1.757,7.648-.735,1.029.308,4.082,4.318,5.1,5.394a55.273,55.273,0,0,0,5.228,5.077c1.867,1.515,3.823,2.821,5.607,4.162,1.348,1.016,5.149,3.037,5.729,3.872-2.685-.177-4.967-1.62-7.37-2.612a25.219,25.219,0,0,0-7.768-1.647c-2.069-.088-6.627,1.08-9.119,1.589-1.489.3-3.3,1.37-4.965,1.961-1.557.55-3.065.729-4.746,1.441l-4.264,1.81.2.3c5.8-2.006,9.813-1.115,14.39-.074,3.047.691,10.462,2.259,14.056.737l2.516-1.07c1.059-.449.881-.755,1.939-1.2l.581-.248a20.444,20.444,0,0,1,4.676-.5c2.482.233,1.9.428,3.91,1.341,2.625,1.195,4.744,2.193,7.411,3.281,2.5,1.02,5.129,1.712,7.7,2.575,2.223.749,6,1.081,7.987,1.9-5.551,2.355-13.466-2.646-21.54.78l-.194.087a44.809,44.809,0,0,0-11.587,7.461c-1.611,1.34-8.5,6.916-8.725,7.992,1.288-.655,1.483-1.39,2.711-1.909l3.1-1.315c2.238-.949,9.189-1.584,11.383-1.667,1.78-.063,9.508-.736,11.121-1.421l1.161-.494c4.591-1.945,5.772-6.057,7.638-6.848l3.489-1.481c2.627-1.113,6.371-.547,8.517-.142a73.567,73.567,0,0,0,8.163.707c1.984.134,15.525-.009,17.006-.6l-.59-.891c-.5-.762-5.933-.036-7.344.014q-3.665.137-7.332-.013c-2.417-.109-4.81-.2-7.15-.458-3.4-.386-3.815-.087-5.952-3.334-1.49-2.258-.535-3.094-.274-4.861.153-1.024.266-3.81-.452-4.9l-1.077-1.633c-.618-.945-6.068-4.865-7.235-5.615-2.034-1.3-5.618-3.367-7.085-5.6L1028,202.62c-.442-.676-.235-2.064-.691-2.937-.908,1.281.192,8.553.248,10.661.071,2.773,1.02,8.213,3.056,11.3,1.268,1.924,5.679,4.238,7.632,5.045,2.492,1.036,6.469,1.31,8.135,3.844-2.229.43-11.9-2.735-14.555-3.368-2.084-.5-12.35-4.368-13.346-5.882l-.295-.445a5.7,5.7,0,0,1,.942-7.108,6.038,6.038,0,0,0,.241-7.27c-.78-1.221-1.127-2.486-2.238-4.169-1.007-1.532-1.8-2.872-2.539-4.238-1.351-2.506-1.379-1.622-1.377-3.979,0-.99-.378-.894.056-1.879.3-.693.553-.923.31-1.695-1.55,1.757-3.607,8.039-4.59,10.442-.738,1.8-.685,3.542-.885,5.482-.252,2.46-.314,3.14,1.6,6.045,1.813,2.759,5.04,3.892,6.529,6.154l.2.3c.484.737.851,1.343.2,1.814-.649-.551-2.524-1.445-3.323-1.982-1.031-.687-2.177-1.459-3.234-2.207a49.413,49.413,0,0,1-6.224-4.976,67.961,67.961,0,0,1-5.829-5.927c-2.073-2.594-4.084-3.988-3.072-6.632,2.141-5.593,7.786-2.117,7.743-11.241a46.266,46.266,0,0,1,.012-6.562,6.674,6.674,0,0,1,.792-3.1,7.349,7.349,0,0,1,.98-1.422,13.5,13.5,0,0,0,1.161-1.247l-.275-.1c-.627.855-5.139,4.269-6.349,5.413a43.74,43.74,0,0,0-5.443,5.581c-5.036,6.495,2.2,10.64.143,13.542-2.521-3.827-5.106-9.242-5.849-12.693-.894-4.174-3.02-7.843-.815-11.421,1.377-2.239,3.352-2.547,6.937-4.106,2.45-1.068,2.876-3.3,3.532-4.877,1.11-2.673,1.936-8.278,5.8-9.917l.971-.413-.393-.593c-1.671.707-2.4,1.486-3.775,2.172a45.836,45.836,0,0,0-4.184,2.08c-1.314.8-2.608,1.37-3.886,2.144-.931.565-1.869,1.564-2.913,2.368-4.532,3.49-1.1,8.756-3.3,11.244-.838-1.6.282-9.574.568-11.486a54.973,54.973,0,0,1,1.451-5.477c.558-2.222,1.063-3.149,4.582-4.64,1.475-.623,3.522-.351,5.819-1.329l1.55-.655c1.392-.593,5.05-4.56,5.941-5.6,2.145-2.495,3.314-3.271,7.791-5.172-1.059-.389-10.535,2.57-12.409,3.364l-5.425,2.3c-1.166.494-3.372,3.117-3.794,3.934-.775,1.5-.986,2.951-2.766,4.168-.512-1.892,7.558-15.743,10.4-16.951l2.711-1.148c1.65-.7,4.509.555,8.826-1.279l.774-.327c2.461-1.044,6.444-5.2,9-6.285l2.714-1.152a9.683,9.683,0,0,1,3.3-.639c-1.135-.96-15.962,1.833-19.014,3.126l-.579.245a12.36,12.36,0,0,0-4.452,3.41c-.462.6-1,1.318-1.444,1.943-.6.832-1.18,1.039-1.841,1.727-.27-1.012,3.225-4.042,4.112-5.123,1.883-2.319,3.353-2.6,6.914-4.111a10.038,10.038,0,0,0,5.788-7.4c.336-1.624,2.143-6.944,1.709-8.323" transform="translate(-113.057 -20.663)" fill="#dcb200" fill-rule="evenodd"/>
    <path id="パス_787" data-name="パス 787" d="M1156.365,113c1.008,1.424.219,1.733,2.392,3.75a29.385,29.385,0,0,0,4.4,3.291c3.822,2.232,4.665,4.378,5.148,7.413.384,2.41,3.389,5.32,5.428,7.351,1.536,1.541,5.1,6.455,6.173,7.183-.4-2.544-5.2-3.817-3.528-8.794.8-2.392.352-2.6,2.141-5.284.992-1.491,1.712-3.355,3.03-5.363.349.543-.119,1.445-.4,2.115a2.849,2.849,0,0,0,0,1.892,14.322,14.322,0,0,0,1.222,3.509c.743,1.789,2.438,5.244,1.058,7.335-2.013,3.064-3.321,3.744-2.143,6.548a49.077,49.077,0,0,0,3.113,5.6,52.385,52.385,0,0,1,2.564,5.73c.5,1.2,1.5,5.044,1.989,5.737,1.686-2.71-1.924-5.365.332-8.787l.292-.447c1.389-2.1,9.869-8.878,11.4-9.032-.715,1.085-1.107.923-1.66,1.767l-.294.446c-2.349,3.566-.731,7.138-2.86,10.373l-.49.743c-1.037,1.574-3.787,1.611-4.771,3.106l-1.266,1.918c-.712,1.076.035,3.487.283,4.607a27,27,0,0,1,.51,4.427c.062,1.012.092,8.9.189,9.05,2.193-.22,3.463-3.079,4.875-5.158s3.49-2.613,5.576-3.092c1.963-.453,11.675-.48,13.859-.059-.595.5-3.97.409-6.286,2.155-1.694,1.274-3.5,3.1-5.16,4.462a7.577,7.577,0,0,1-6.471,1.7c-2.092-.428-1.7-.652-3.6-.209a4.785,4.785,0,0,0-2.793,1.713l-.393.6c-.5.751-1.645,6.646-2.3,8.475a40.444,40.444,0,0,1-4.188,8.91l-2.542,3.857c1.367.269,4.249-3.445,5.582-4.219a15.522,15.522,0,0,1,6.265-2.2c3.2-.468,11.3.7,15.164,1.544-1.242.514-4.06-.256-6.963,1.288-2,1.066-4.029,2.07-6.038,3.137s-3.96,2.434-6.444,2.151c-3.739-.426-4.25-1.757-7.649-.735-1.028.308-4.082,4.318-5.094,5.394a55.258,55.258,0,0,1-5.228,5.077c-1.867,1.515-3.823,2.821-5.607,4.162-1.348,1.016-5.15,3.037-5.729,3.872,2.685-.177,4.967-1.62,7.37-2.612a25.218,25.218,0,0,1,7.768-1.647c2.068-.088,6.627,1.08,9.119,1.589,1.489.3,3.3,1.37,4.965,1.961,1.557.55,3.065.729,4.746,1.441l4.264,1.81-.2.3c-5.8-2.006-9.813-1.115-14.39-.074-3.047.691-10.462,2.259-14.056.737l-2.516-1.07c-1.059-.449-.881-.755-1.938-1.2l-.581-.248a20.444,20.444,0,0,0-4.676-.5c-2.482.233-1.9.428-3.91,1.341-2.625,1.195-4.744,2.193-7.411,3.281-2.5,1.02-5.129,1.712-7.7,2.575-2.223.749-6,1.081-7.986,1.9,5.551,2.355,13.466-2.646,21.541.78l.194.087a44.811,44.811,0,0,1,11.587,7.461c1.611,1.34,8.5,6.916,8.725,7.992-1.288-.655-1.483-1.39-2.711-1.909l-3.1-1.315c-2.238-.949-9.189-1.584-11.383-1.667-1.78-.063-9.509-.736-11.121-1.421l-1.161-.494c-4.591-1.945-5.772-6.057-7.638-6.848l-3.489-1.481c-2.627-1.113-6.371-.547-8.517-.142a73.569,73.569,0,0,1-8.163.707c-1.984.134-15.525-.009-17.006-.6l.59-.891c.5-.762,5.933-.036,7.344.014q3.665.137,7.332-.013c2.417-.109,4.81-.2,7.15-.458,3.4-.386,3.815-.087,5.952-3.334,1.49-2.258.535-3.094.274-4.861-.153-1.024-.266-3.81.452-4.9l1.077-1.633c.618-.945,6.067-4.865,7.235-5.615,2.034-1.3,5.618-3.367,7.085-5.6l1.858-2.822c.442-.676.235-2.064.691-2.937.908,1.281-.192,8.553-.247,10.661-.071,2.773-1.02,8.213-3.056,11.3-1.268,1.924-5.679,4.238-7.632,5.045-2.493,1.036-6.469,1.31-8.135,3.844,2.229.43,11.9-2.735,14.556-3.368,2.084-.5,12.35-4.368,13.346-5.882l.295-.445a5.7,5.7,0,0,0-.942-7.108,6.038,6.038,0,0,1-.241-7.27c.78-1.221,1.127-2.486,2.238-4.169,1.007-1.532,1.8-2.872,2.539-4.238,1.351-2.506,1.379-1.622,1.378-3.979,0-.99.378-.894-.056-1.879-.3-.693-.553-.923-.31-1.695,1.551,1.757,3.607,8.039,4.59,10.442.738,1.8.686,3.542.885,5.482.252,2.46.314,3.14-1.6,6.045-1.813,2.759-5.04,3.892-6.529,6.154l-.2.3c-.484.737-.851,1.343-.2,1.814.649-.551,2.524-1.445,3.323-1.982,1.031-.687,2.177-1.459,3.233-2.207a49.344,49.344,0,0,0,6.225-4.976,67.943,67.943,0,0,0,5.829-5.927c2.073-2.594,4.084-3.988,3.072-6.632-2.142-5.593-7.786-2.117-7.743-11.241a46.239,46.239,0,0,0-.012-6.562,6.672,6.672,0,0,0-.792-3.1,7.347,7.347,0,0,0-.98-1.422,13.514,13.514,0,0,1-1.161-1.247l.275-.1c.627.855,5.139,4.269,6.349,5.413a43.678,43.678,0,0,1,5.442,5.581c5.037,6.495-2.2,10.64-.142,13.542,2.521-3.827,5.106-9.242,5.849-12.693.894-4.174,3.02-7.843.815-11.421-1.377-2.239-3.353-2.547-6.937-4.106-2.45-1.068-2.876-3.3-3.532-4.877-1.11-2.673-1.936-8.278-5.8-9.917l-.971-.413.393-.593c1.671.707,2.4,1.486,3.775,2.172a45.8,45.8,0,0,1,4.184,2.08c1.314.8,2.608,1.37,3.886,2.144.93.565,1.869,1.564,2.913,2.368,4.532,3.49,1.1,8.756,3.3,11.244.838-1.6-.282-9.574-.568-11.486a55.022,55.022,0,0,0-1.451-5.477c-.558-2.222-1.063-3.149-4.582-4.64-1.475-.623-3.522-.351-5.819-1.329l-1.55-.655c-1.392-.593-5.05-4.56-5.941-5.6-2.145-2.495-3.314-3.271-7.791-5.172,1.059-.389,10.535,2.57,12.409,3.364l5.425,2.3c1.166.494,3.372,3.117,3.794,3.934.775,1.5.986,2.951,2.766,4.168.512-1.892-7.558-15.743-10.4-16.951l-2.712-1.148c-1.65-.7-4.509.555-8.826-1.279l-.774-.327c-2.461-1.044-6.444-5.2-9-6.285l-2.714-1.152a9.684,9.684,0,0,0-3.3-.639c1.135-.96,15.962,1.833,19.014,3.126l.579.245a12.361,12.361,0,0,1,4.451,3.41c.462.6,1,1.318,1.444,1.943.6.832,1.18,1.039,1.841,1.727.27-1.012-3.225-4.042-4.112-5.123-1.884-2.319-3.353-2.6-6.914-4.111a10.038,10.038,0,0,1-5.788-7.4c-.336-1.624-2.143-6.944-1.709-8.323" transform="translate(-138.79 -20.663)" fill="#dcb200" fill-rule="evenodd"/>
    <path id="パス_788" data-name="パス 788" d="M1081.5,100.547c2.278,4.086,3.8,8.077,3.318,11.821h22.942c-.478-3.728,1.03-7.706,3.3-11.778a1.278,1.278,0,0,0,.8.279,1.261,1.261,0,0,0,1.344-1.157,1.244,1.244,0,0,0-1.247-1.248,1.261,1.261,0,0,0-1.344,1.158c0,.015,0,.03,0,.045a1.184,1.184,0,0,0,.37.855c-3.694,3.74-6.371,4.42-7.148-.6a1.313,1.313,0,0,0,.2.015,1.262,1.262,0,0,0,1.346-1.156,1.244,1.244,0,0,0-1.246-1.248,1.261,1.261,0,0,0-1.345,1.155c0,.016,0,.031,0,.047a1.2,1.2,0,0,0,.76,1.106c-2.657,3.923-4.875,3.248-6.627-2.346a2.16,2.16,0,1,0-3.032-2.146c0,.051,0,.1,0,.153a2.158,2.158,0,0,0,1.753,2.093c-1.751,5.51-3.965,6.149-6.612,2.223a1.2,1.2,0,0,0,.7-1.083,1.212,1.212,0,0,0-1.293-1.113,1.2,1.2,0,0,0-1.2,1.2,1.209,1.209,0,0,0,1.247,1.114,1.313,1.313,0,0,0,.271-.028c-.775,5.054-3.469,4.355-7.186.578a1.169,1.169,0,0,0,.332-.817,1.213,1.213,0,0,0-1.293-1.114,1.2,1.2,0,0,0-1.2,1.2,1.21,1.21,0,0,0,1.246,1.115,1.274,1.274,0,0,0,.85-.322" transform="translate(-135.004 -17.073)" fill="#dcb200" fill-rule="evenodd"/>
  </g>
</svg>
