<svg xmlns="http://www.w3.org/2000/svg" width="68.151" height="47.444" viewBox="0 0 68.151 47.444">
  <path id="合体_28" data-name="合体 28" d="M-270.936,45.418l-.89-.4a14.2,14.2,0,0,0-3.271-.508,17.867,17.867,0,0,1-3.2-.433l-.334-.151c-1.319-.592-1.659-1.846-2.195-2.087l-1-.452a4.42,4.42,0,0,0-2.447-.043,19.9,19.9,0,0,1-2.346.215,35.034,35.034,0,0,1-4.886-.184l.169-.272c.144-.232,1.705-.011,2.111,0q1.053.042,2.107,0c.694-.033,1.382-.06,2.054-.14.978-.117,1.1-.026,1.711-1.016.428-.688.154-.943.079-1.481a3.069,3.069,0,0,1,.13-1.493l.309-.5a16.6,16.6,0,0,1,2.079-1.711,7.383,7.383,0,0,0,2.036-1.705l.534-.86c.127-.206.067-.629.2-.895.261.391-.055,2.606-.071,3.249A8.132,8.132,0,0,1-278.936,38a6.172,6.172,0,0,1-2.193,1.537c-.716.316-1.859.4-2.338,1.172.64.131,3.419-.834,4.183-1.027.6-.151,3.549-1.331,3.835-1.792l.085-.136a1.814,1.814,0,0,0-.271-2.166,1.928,1.928,0,0,1-.069-2.215c.224-.372.324-.757.643-1.271.289-.467.518-.875.73-1.291.388-.764.4-.494.4-1.213,0-.3.109-.272-.016-.573-.087-.211-.159-.281-.089-.517a17.549,17.549,0,0,1,1.319,3.182,6.014,6.014,0,0,1,.254,1.671,2.189,2.189,0,0,1-.459,1.842c-.521.841-1.448,1.186-1.876,1.876l-.056.09c-.139.225-.245.409-.059.553.186-.168.725-.44.955-.6.3-.209.625-.445.929-.672a14.36,14.36,0,0,0,1.789-1.517,20.239,20.239,0,0,0,1.675-1.806c.6-.79,1.174-1.215.882-2.021-.615-1.7-2.237-.645-2.225-3.425a14.911,14.911,0,0,0,0-2,2.132,2.132,0,0,0-.228-.945,2.247,2.247,0,0,0-.282-.433,4.036,4.036,0,0,1-.333-.38l.079-.031c.18.261,1.476,1.3,1.824,1.649a12.987,12.987,0,0,1,1.564,1.7c1.447,1.979-.631,3.243-.041,4.127a14.052,14.052,0,0,0,1.681-3.868c.257-1.272.868-2.39.234-3.48-.4-.682-.964-.776-1.993-1.251-.7-.326-.827-1.007-1.015-1.486-.319-.814-.556-2.522-1.667-3.022l-.279-.126.113-.181c.48.215.688.453,1.085.662a12.809,12.809,0,0,1,1.2.634c.378.245.749.417,1.117.654.267.172.537.476.837.721,1.3,1.064.317,2.668.95,3.427a12.908,12.908,0,0,0-.163-3.5c-.082-.583-.285-1.119-.417-1.669-.16-.677-.305-.96-1.317-1.414-.424-.19-1.012-.107-1.672-.4l-.445-.2a9.867,9.867,0,0,1-1.707-1.705,4.716,4.716,0,0,0-2.239-1.576,16.25,16.25,0,0,1,3.566,1.025l1.559.7a3.948,3.948,0,0,1,1.091,1.2c.223.456.283.9.795,1.27.147-.576-2.172-4.8-2.99-5.166l-.779-.35a1.711,1.711,0,0,0-.713-.069,3.838,3.838,0,0,1-1.823-.32l-.222-.1c-.707-.319-1.852-1.586-2.587-1.916l-.78-.351a2.636,2.636,0,0,0-.947-.194c.326-.293,4.587.558,5.463.953l.167.075a3.584,3.584,0,0,1,1.279,1.039c.133.184.287.4.415.593.171.253.339.316.529.526.078-.308-.927-1.232-1.181-1.561-.541-.706-.964-.792-1.987-1.252a3.045,3.045,0,0,1-1.664-2.254,11.082,11.082,0,0,1-.492-2.534c.289.433.063.528.687,1.142a8.512,8.512,0,0,0,1.266,1A2.751,2.751,0,0,1-271.9,9.294a5.515,5.515,0,0,0,1.56,2.24c.442.47,1.466,1.967,1.774,2.189-.115-.775-1.495-1.163-1.014-2.68a4.266,4.266,0,0,1,.615-1.61c.285-.454.492-1.022.871-1.634.1.166-.035.44-.116.645a.92.92,0,0,0,0,.577,4.566,4.566,0,0,0,.351,1.069c.214.545.7,1.6.3,2.235-.579.934-.954,1.141-.616,2a15.231,15.231,0,0,0,.895,1.708,16.4,16.4,0,0,1,.737,1.746c.144.366.431,1.537.571,1.748.485-.826-.553-1.635.1-2.678l.084-.136a12.717,12.717,0,0,1,3.276-2.752c-.206.33-.318.282-.477.538l-.084.136c-.675,1.087-.21,2.175-.822,3.161l-.141.226c-.3.479-1.088.491-1.371.946l-.364.585c-.2.328.01,1.062.082,1.4a8.682,8.682,0,0,1,.146,1.349c.018.309.027,2.711.054,2.758.63-.067,1-.938,1.4-1.572a2.324,2.324,0,0,1,1.6-.942,19.852,19.852,0,0,1,3.982-.018c-.171.153-1.141.125-1.806.657-.487.388-1.007.945-1.483,1.36a2.089,2.089,0,0,1-1.859.518c-.6-.13-.487-.2-1.035-.064a1.367,1.367,0,0,0-.8.522l-.113.182c-.143.229-.473,2.025-.66,2.583a12.679,12.679,0,0,1-1.2,2.715l-.731,1.175c.393.082,1.221-1.05,1.6-1.286a4.292,4.292,0,0,1,1.8-.671,16.971,16.971,0,0,1,4.357.47c-.357.157-1.167-.078-2,.392-.575.325-1.158.631-1.735.956a3.048,3.048,0,0,1-1.852.656c-1.074-.13-1.221-.536-2.2-.224-.3.094-1.173,1.315-1.464,1.643a16.276,16.276,0,0,1-1.5,1.547c-.536.462-1.1.86-1.611,1.269a16.275,16.275,0,0,0-1.646,1.18,6.581,6.581,0,0,0,2.118-.8,6.9,6.9,0,0,1,2.232-.5,15.129,15.129,0,0,1,2.621.484,13.062,13.062,0,0,1,1.426.6c.448.168.881.222,1.364.439l1.225.552-.056.091a6.3,6.3,0,0,0-4.135-.023c-.876.211-3.006.688-4.039.225l-.723-.326c-.3-.137-.253-.23-.557-.366l-.167-.075a5.543,5.543,0,0,0-1.344-.152c-.713.071-.547.131-1.123.409-.754.364-1.363.669-2.129,1-.719.311-1.474.522-2.212.785-.638.229-1.724.33-2.3.579a4.709,4.709,0,0,0,2.609.03,6.055,6.055,0,0,1,3.581.208l.056.026a12.817,12.817,0,0,1,3.329,2.274A18.526,18.526,0,0,1-270.157,46C-270.527,45.8-270.583,45.576-270.936,45.418Zm-39.408-1.854a12.82,12.82,0,0,1,3.329-2.274l.056-.026a6.054,6.054,0,0,1,3.581-.208,4.709,4.709,0,0,0,2.609-.03c-.571-.249-1.657-.35-2.3-.579-.738-.263-1.493-.474-2.212-.785-.766-.331-1.375-.636-2.129-1-.577-.278-.41-.337-1.123-.409a5.543,5.543,0,0,0-1.344.152l-.167.075c-.3.136-.253.229-.557.366l-.723.326c-1.032.464-3.163-.014-4.039-.225a6.3,6.3,0,0,0-4.135.023l-.056-.091,1.225-.552c.483-.217.917-.271,1.364-.439a13.062,13.062,0,0,1,1.426-.6,15.128,15.128,0,0,1,2.621-.484,6.9,6.9,0,0,1,2.232.5,6.582,6.582,0,0,0,2.118.8,16.3,16.3,0,0,0-1.646-1.18c-.513-.409-1.075-.807-1.611-1.269a16.294,16.294,0,0,1-1.5-1.547c-.291-.328-1.169-1.55-1.464-1.643-.976-.312-1.123.094-2.2.224a3.048,3.048,0,0,1-1.852-.656c-.577-.325-1.16-.631-1.735-.956-.834-.47-1.644-.236-2-.392a16.971,16.971,0,0,1,4.357-.47,4.292,4.292,0,0,1,1.8.671c.383.236,1.211,1.367,1.6,1.286L-315.541,31a12.679,12.679,0,0,1-1.2-2.715c-.188-.557-.517-2.354-.66-2.583l-.113-.182a1.367,1.367,0,0,0-.8-.522c-.548-.135-.434-.066-1.035.064a2.089,2.089,0,0,1-1.859-.518c-.476-.415-1-.972-1.483-1.36-.666-.532-1.636-.5-1.806-.657a19.854,19.854,0,0,1,3.982.018,2.324,2.324,0,0,1,1.6.942c.406.634.771,1.5,1.4,1.572.028-.047.036-2.45.054-2.758a8.719,8.719,0,0,1,.146-1.349c.072-.342.286-1.076.082-1.4l-.364-.585c-.283-.455-1.073-.467-1.371-.946l-.141-.226c-.612-.986-.147-2.074-.822-3.161l-.085-.136c-.159-.257-.272-.208-.477-.538a12.723,12.723,0,0,1,3.277,2.752l.084.136c.648,1.043-.389,1.852.1,2.678.14-.211.428-1.383.571-1.748a16.53,16.53,0,0,1,.737-1.746,15.231,15.231,0,0,0,.895-1.708c.338-.854-.038-1.062-.616-2-.4-.637.091-1.69.3-2.235A4.573,4.573,0,0,0-314.8,9.02a.918.918,0,0,0,0-.577c-.081-.2-.216-.479-.116-.645.379.612.586,1.18.871,1.634a4.263,4.263,0,0,1,.615,1.61c.481,1.517-.9,1.9-1.014,2.68.308-.222,1.332-1.719,1.774-2.189a5.515,5.515,0,0,0,1.56-2.24,2.751,2.751,0,0,1,1.479-2.259,8.512,8.512,0,0,0,1.266-1c.624-.614.4-.709.687-1.142a11.091,11.091,0,0,1-.492,2.534,3.046,3.046,0,0,1-1.664,2.254c-1.023.46-1.445.546-1.986,1.252-.255.329-1.259,1.253-1.181,1.561.19-.21.357-.273.529-.526.128-.191.282-.409.415-.593a3.583,3.583,0,0,1,1.279-1.039l.167-.075c.877-.394,5.137-1.245,5.463-.953a2.636,2.636,0,0,0-.947.194l-.78.351c-.735.33-1.879,1.6-2.587,1.916l-.222.1a3.84,3.84,0,0,1-1.823.32,1.71,1.71,0,0,0-.713.069l-.779.35c-.818.368-3.137,4.59-2.989,5.166.512-.371.572-.814.795-1.27a3.95,3.95,0,0,1,1.091-1.2l1.559-.7a16.245,16.245,0,0,1,3.566-1.025,4.714,4.714,0,0,0-2.239,1.576,9.868,9.868,0,0,1-1.707,1.705l-.445.2c-.66.3-1.248.215-1.672.4-1.011.455-1.156.737-1.317,1.414-.131.55-.335,1.087-.417,1.669a12.9,12.9,0,0,0-.163,3.5c.632-.758-.353-2.363.95-3.427.3-.245.57-.549.837-.721.367-.236.739-.408,1.117-.654a12.828,12.828,0,0,1,1.2-.634c.4-.209.6-.447,1.085-.662l.113.181-.279.126c-1.11.5-1.348,2.207-1.667,3.022-.188.479-.311,1.161-1.015,1.486-1.03.475-1.6.569-1.993,1.251-.634,1.09-.023,2.208.234,3.48a14.067,14.067,0,0,0,1.681,3.868c.591-.884-1.488-2.147-.041-4.127a12.987,12.987,0,0,1,1.564-1.7c.348-.349,1.644-1.389,1.824-1.649l.079.031a4.036,4.036,0,0,1-.333.38,2.24,2.24,0,0,0-.282.433,2.134,2.134,0,0,0-.228.945,14.906,14.906,0,0,0,0,2c.012,2.78-1.61,1.721-2.225,3.425-.291.806.287,1.231.883,2.021a20.242,20.242,0,0,0,1.675,1.806,14.35,14.35,0,0,0,1.789,1.517c.3.228.633.463.929.672.23.163.769.436.955.6.186-.144.081-.328-.059-.553l-.056-.09c-.428-.689-1.355-1.035-1.876-1.876a2.189,2.189,0,0,1-.459-1.842,6.02,6.02,0,0,1,.254-1.671,17.547,17.547,0,0,1,1.319-3.182c.07.235,0,.305-.089.517-.125.3-.016.271-.016.573,0,.719.008.449.4,1.213.212.416.441.825.73,1.291.32.513.419.9.643,1.271a1.928,1.928,0,0,1-.069,2.215,1.814,1.814,0,0,0-.271,2.166l.085.136c.286.461,3.236,1.641,3.835,1.792.764.193,3.542,1.158,4.183,1.027-.479-.772-1.621-.856-2.338-1.172A6.173,6.173,0,0,1-304.072,38a8.134,8.134,0,0,1-.878-3.445c-.016-.642-.332-2.858-.071-3.249.131.266.072.689.2.895l.534.86a7.376,7.376,0,0,0,2.036,1.705,16.562,16.562,0,0,1,2.079,1.711l.309.5a3.073,3.073,0,0,1,.13,1.493c-.076.538-.35.793.078,1.481.614.989.733.9,1.71,1.016.672.08,1.36.107,2.054.14s1.405.032,2.107,0c.405-.015,1.966-.237,2.111,0l.169.272a35.033,35.033,0,0,1-4.886.184,19.9,19.9,0,0,1-2.346-.215,4.419,4.419,0,0,0-2.447.043l-1,.452c-.536.241-.876,1.494-2.195,2.087l-.334.151a17.865,17.865,0,0,1-3.2.433,14.2,14.2,0,0,0-3.271.508l-.89.4c-.353.158-.409.382-.779.582A18.526,18.526,0,0,1-310.344,43.565Zm18.794-4.071a1.21,1.21,0,0,1-1.159-1.257,1.209,1.209,0,0,1,1.25-1.166,1.187,1.187,0,0,1,1.16,1.212c0,.015,0,.03,0,.045a1.209,1.209,0,0,1-1.2,1.167Zm2.635-.769a.691.691,0,0,1-.662-.718.69.69,0,0,1,.714-.666.678.678,0,0,1,.662.691c0,.009,0,.018,0,.026a.69.69,0,0,1-.687.666Zm-5.106,0a.691.691,0,0,1-.662-.718.69.69,0,0,1,.714-.666.677.677,0,0,1,.662.691v.026a.69.69,0,0,1-.687.666Zm-2.109-.615a.489.489,0,0,1-.469-.509.489.489,0,0,1,.505-.472h0a.48.48,0,0,1,.468.491c0,.006,0,.012,0,.018a.488.488,0,0,1-.487.472Zm8.987-.472c0-.006,0-.012,0-.018a.48.48,0,0,1,.469-.491h0a.489.489,0,0,1,.505.472.489.489,0,0,1-.469.509h-.019A.489.489,0,0,1-287.143,37.638Zm-7.075-5.981c0-1.661.721-2.228,1.328-2.228.748,0,1.328.654,1.328,1.988,0,1.639-.721,2.206-1.328,2.206C-293.637,33.623-294.217,32.97-294.217,31.657Zm.737-.141c0,1.443.151,2,.591,2s.591-.61.591-1.956c0-1.465-.152-2.021-.591-2.021S-293.48,30.148-293.48,31.515Zm5.355,2.054a3.725,3.725,0,0,1,1.024-1.52,2.357,2.357,0,0,0,.894-1.618c0-.55-.26-.845-.661-.845a.6.6,0,0,0-.645.512.146.146,0,0,0,.162.163.27.27,0,0,1,.282.305.347.347,0,0,1-.379.343.408.408,0,0,1-.406-.452,1.114,1.114,0,0,1,1.192-1.029c.737,0,1.193.376,1.193,1.084,0,.757-.656,1.209-1.284,1.64a3.37,3.37,0,0,0-.965.833h1.962c.146,0,.162-.011.189-.131l.1-.479a.047.047,0,0,1,.048-.044.051.051,0,0,1,.049.055c0,.016-.006.1-.011.147-.048.4-.065.725-.076.932a.1.1,0,0,1-.108.1Zm-3.089,0a3.725,3.725,0,0,1,1.024-1.52,2.357,2.357,0,0,0,.894-1.618c0-.55-.26-.845-.661-.845a.6.6,0,0,0-.645.512.146.146,0,0,0,.162.163.27.27,0,0,1,.282.305.348.348,0,0,1-.38.343.408.408,0,0,1-.406-.452,1.114,1.114,0,0,1,1.192-1.029c.737,0,1.192.376,1.192,1.084,0,.757-.655,1.209-1.284,1.64a3.371,3.371,0,0,0-.965.833h1.962c.147,0,.163-.011.19-.131l.1-.479a.047.047,0,0,1,.049-.044.05.05,0,0,1,.049.055c0,.016-.006.1-.011.147-.049.4-.065.725-.076.932a.1.1,0,0,1-.109.1Zm-6.179,0a3.728,3.728,0,0,1,1.024-1.52,2.356,2.356,0,0,0,.894-1.618c0-.55-.26-.845-.661-.845a.6.6,0,0,0-.645.512.146.146,0,0,0,.163.163.27.27,0,0,1,.282.305.347.347,0,0,1-.379.343.408.408,0,0,1-.406-.452,1.113,1.113,0,0,1,1.192-1.029c.737,0,1.192.376,1.192,1.084,0,.757-.656,1.209-1.285,1.64a3.377,3.377,0,0,0-.965.833h1.962c.147,0,.163-.011.19-.131l.1-.479a.047.047,0,0,1,.049-.044.051.051,0,0,1,.049.055c0,.016-.006.1-.011.147-.049.4-.065.725-.076.932a.1.1,0,0,1-.108.1Zm-.941-6.162a2.28,2.28,0,0,0,1.4-1.931,9.36,9.36,0,0,0,.009-1.191c0-.1-.013-.151-.1-.2a1.156,1.156,0,0,0-.275-.1l0-.071a.943.943,0,0,1,.432-.192c.193,0,.6.223.6.356,0,.116-.092.165-.1.3-.014.258-.042.829-.055,1.1a2.169,2.169,0,0,1-1.856,2.012Zm7.706-.062a3.8,3.8,0,0,0,1.493-2.025c0-.143-.156-.223-.344-.3l.009-.067a1.264,1.264,0,0,1,.321-.036,1.145,1.145,0,0,1,.5.125,2.744,2.744,0,0,0,.625-.656c.046-.089.018-.111-.069-.111a16.278,16.278,0,0,0-1.8.325c-.179.049-.243.169-.381.169a.724.724,0,0,1-.5-.415.745.745,0,0,1-.032-.343l.069-.018c.129.138.188.2.335.2.423,0,1.916-.169,2.242-.214.17-.022.239-.107.354-.107.174,0,.629.41.629.6,0,.156-.253.169-.363.232-.2.112-.56.3-.942.482a.145.145,0,0,1-.009.107,3.745,3.745,0,0,1-2.071,2.132Zm-12.078,0a3.794,3.794,0,0,0,1.493-2.025c0-.143-.156-.223-.345-.3l.009-.067a1.266,1.266,0,0,1,.322-.036,1.144,1.144,0,0,1,.5.125,2.753,2.753,0,0,0,.625-.656c.046-.089.018-.111-.069-.111a16.28,16.28,0,0,0-1.8.325c-.179.049-.243.169-.381.169a.724.724,0,0,1-.5-.415.752.752,0,0,1-.032-.343l.069-.018c.129.138.188.2.336.2.422,0,1.915-.169,2.241-.214.17-.022.239-.107.354-.107.175,0,.629.41.629.6,0,.156-.252.169-.363.232-.2.112-.56.3-.941.482a.149.149,0,0,1-.009.107,3.748,3.748,0,0,1-2.072,2.132Zm25.305-.5c0-.12.041-.223.064-.419.037-.334.041-.932.041-1.2a9.6,9.6,0,0,0-.05-1.133c-.027-.147-.17-.2-.358-.228l0-.071a1.108,1.108,0,0,1,.418-.129c.23,0,.638.218.638.366,0,.129-.1.174-.124.339a5.5,5.5,0,0,0-.041.674,3.162,3.162,0,0,1,1.144.316.54.54,0,0,1,.335.486.262.262,0,0,1-.266.272c-.294,0-.313-.245-.666-.562a2.457,2.457,0,0,0-.552-.334c-.013.473-.009,1.043,0,1.427.009.227.018.379.018.441,0,.232-.05.325-.234.325C-277.273,27.416-277.4,27.175-277.4,26.845Zm-8.537.478a4.237,4.237,0,0,0,1.98-2.779c.009-.067,0-.081-.06-.081-.211,0-.588.04-.873.076s-.546.1-.666.1a.418.418,0,0,1-.252-.112c.023.281.06.928.064,1.164,0,.147-.027.268-.225.268s-.331-.285-.331-.442c0-.1.023-.227.019-.383a3.719,3.719,0,0,0-.06-.6,1.034,1.034,0,0,0-.331-.535l.046-.058a1.789,1.789,0,0,1,.744.334.088.088,0,0,1,.028.032c.459-.027,1.479-.116,1.764-.152.1-.013.234-.143.331-.143.2,0,.6.344.6.486,0,.116-.184.192-.225.308a3.992,3.992,0,0,1-2.485,2.6Zm-21.649-.866a.651.651,0,0,1-.051-.3l.06-.027a.654.654,0,0,0,.45.2c.207,0,.726-.044,1.263-.089.014-.286.027-.647.027-.883a.844.844,0,0,0-.1-.441,6.114,6.114,0,0,1-.629.089.515.515,0,0,1-.363-.245,1.237,1.237,0,0,1-.165-.352l.055-.031a.846.846,0,0,0,.505.2,7.692,7.692,0,0,0,.993-.1,2.371,2.371,0,0,0,.721-.237c.257,0,.648.165.648.312,0,.107-.065.2-.23.214s-.583.036-1.107.094c.17.076.3.169.3.268s-.078.187-.1.312c-.032.188-.064.469-.087.754.3-.026.574-.049.771-.062a3.6,3.6,0,0,0,.4-.085c.243,0,.7.259.7.441a.208.208,0,0,1-.216.214,10.517,10.517,0,0,0-1.268-.161,6.839,6.839,0,0,0-1.548.174,3.091,3.091,0,0,1-.515.143C-307.262,26.863-307.528,26.6-307.588,26.457Zm9.069-.669a4.117,4.117,0,0,0,.065-.549c0-.218,0-.691-.028-.874a.177.177,0,0,0-.1-.165,1.447,1.447,0,0,0-.262-.116v-.071a.928.928,0,0,1,.368-.1c.2,0,.624.223.624.383,0,.116-.1.183-.11.366s-.009.977-.009,1.28c0,.236-.092.335-.248.335S-298.518,26.051-298.518,25.788Zm16.023-.294a.713.713,0,0,1-.014-.339l.079-.027c.137.178.216.3.459.3.491,0,1.879-.089,2.159-.111.308-.027.515-.062.625-.062.275,0,.514.138.514.33,0,.129-.11.192-.3.192s-.344-.014-.666-.014c-.349,0-1.378.063-1.732.1-.331.032-.4.138-.574.138S-282.412,25.712-282.495,25.493Zm-12.689,0a.7.7,0,0,1-.014-.339l.078-.027c.138.178.216.3.46.3.491,0,1.879-.089,2.158-.111.308-.027.514-.062.625-.062.275,0,.514.138.514.33,0,.129-.11.192-.3.192s-.345-.014-.666-.014c-.349,0-1.378.063-1.732.1-.331.032-.4.138-.574.138S-295.1,25.712-295.184,25.493Zm19.381-.865a1.983,1.983,0,0,0-.413-.459l.046-.058a1.529,1.529,0,0,1,.615.268.327.327,0,0,1,.133.254.162.162,0,0,1-.17.165C-275.666,24.8-275.721,24.731-275.8,24.628Zm.423-.41a1.984,1.984,0,0,0-.418-.41l.041-.058a1.527,1.527,0,0,1,.6.218.321.321,0,0,1,.161.276.139.139,0,0,1-.151.152C-275.238,24.4-275.294,24.329-275.381,24.218Zm-9.891-2.509a.367.367,0,0,1-.12-.28.39.39,0,0,1,.041-.173l.737-1.621-1.465-3.24a.406.406,0,0,1-.041-.176.351.351,0,0,1,.033-.15.4.4,0,0,1,.089-.126.4.4,0,0,1,.134-.084.467.467,0,0,1,.4.035.408.408,0,0,1,.167.193l1.145,2.513,1.144-2.52a.442.442,0,0,1,.14-.181.418.418,0,0,1,.259-.069.452.452,0,0,1,.167.03.41.41,0,0,1,.134.084.437.437,0,0,1,.092.126.337.337,0,0,1,.034.149.4.4,0,0,1-.044.176l-2.341,5.165a.458.458,0,0,1-.163.189.431.431,0,0,1-.24.072h-.015A.422.422,0,0,1-285.272,21.709Zm-3.66-1.774a.365.365,0,0,1-.126-.279V16.206a.361.361,0,0,1,.126-.277.458.458,0,0,1,.609,0,.363.363,0,0,1,.125.277v.076a2.442,2.442,0,0,1,.671-.348,2.531,2.531,0,0,1,.442-.1h.011l.01,0a.425.425,0,0,1,.483.34h0v.006a.4.4,0,0,1-.37.437h-.005a1.369,1.369,0,0,0-.361.092,1.461,1.461,0,0,0-.459.284,1.331,1.331,0,0,0-.308.422,1.2,1.2,0,0,0-.114.519v1.726a.364.364,0,0,1-.125.279.455.455,0,0,1-.3.116A.455.455,0,0,1-288.932,19.935Zm-6.578-.525a1.947,1.947,0,0,1-.667-1.485,1.941,1.941,0,0,1,.667-1.482,2.3,2.3,0,0,1,1.612-.614,2.314,2.314,0,0,1,1.612.614,1.942,1.942,0,0,1,.668,1.482v1.709a.359.359,0,0,1-.124.275.425.425,0,0,1-.3.115.43.43,0,0,1-.3-.115.36.36,0,0,1-.124-.275h0v-.074a2.414,2.414,0,0,1-.664.344,2.4,2.4,0,0,1-.765.12h-.043A2.3,2.3,0,0,1-295.51,19.411Zm1.05-2.695a1.451,1.451,0,0,0-.452.283,1.341,1.341,0,0,0-.3.418,1.211,1.211,0,0,0,0,1.019,1.348,1.348,0,0,0,.3.418,1.485,1.485,0,0,0,1.013.388,1.481,1.481,0,0,0,1.011-.39,1.343,1.343,0,0,0,.306-.418,1.212,1.212,0,0,0,0-1.015,1.338,1.338,0,0,0-.306-.417,1.472,1.472,0,0,0-1.011-.39h-.01A1.5,1.5,0,0,0-294.46,16.716Zm3.845,3.193a.361.361,0,0,1-.124-.279V16.222a.362.362,0,0,1,.124-.279.449.449,0,0,1,.6,0,.377.377,0,0,1,.128.279V19.63a.374.374,0,0,1-.128.279.445.445,0,0,1-.3.115A.444.444,0,0,1-290.615,19.909Zm-6.183.065-.983-.011a3.3,3.3,0,0,1-3.445-3.146,3.3,3.3,0,0,1,3.445-3.146,3.691,3.691,0,0,1,1.4.272A4.459,4.459,0,0,1-291.91,10.5a4.86,4.86,0,0,1,2.046.447L-291,11.4a3.968,3.968,0,0,0-.909-.106,3.611,3.611,0,0,0-3.63,2.79l-.194,1-1.006-.416a2.761,2.761,0,0,0-1.046-.211,2.479,2.479,0,0,0-2.583,2.363,2.466,2.466,0,0,0,2.583,2.347h.964l.019,0a.463.463,0,0,1,.059,0,.411.411,0,0,1,.388.434.414.414,0,0,1-.417.378Zm9-5.09a.427.427,0,0,1-.426-.324h0c0-.024,0-.047,0-.071l0-.005v0a3.261,3.261,0,0,0-.292-1.109l.325-1.1a3.963,3.963,0,0,1,.819,2.145h0a.354.354,0,0,1,.007.062.418.418,0,0,1-.423.4ZM-292,13.7l3.607-2.772-.958,3.228-1.946-.334-.694.731Zm-1.747-.633,5.2-2.075-4.09,2.482Zm-.728-7.119V5.791h-.333a6.373,6.373,0,0,0-.953-3.6.353.353,0,0,1-.244.1.356.356,0,0,1-.358-.339.355.355,0,0,1,.345-.366.356.356,0,0,1,.372.339.369.369,0,0,1-.1.249c1.068,1.151,1.842,1.364,2.065-.177a.341.341,0,0,1-.078.009.356.356,0,0,1-.358-.339.355.355,0,0,1,.345-.366.356.356,0,0,1,.372.339.367.367,0,0,1-.2.33c.76,1.2,1.4,1,1.9-.677a.648.648,0,0,1-.5-.638.457.457,0,0,1,0-.047.634.634,0,0,1,.661-.6.632.632,0,0,1,.614.651.651.651,0,0,1-.4.607c.5,1.7,1.141,1.91,1.9.715a.366.366,0,0,1-.219-.337s0-.01,0-.014a.37.37,0,0,1,.386-.352.369.369,0,0,1,.358.38.37.37,0,0,1-.386.352.39.39,0,0,1-.056,0c.223,1.53.992,1.323,2.054.183a.37.37,0,0,1-.106-.26s0-.01,0-.014a.37.37,0,0,1,.386-.353.369.369,0,0,1,.358.38.37.37,0,0,1-.386.352.351.351,0,0,1-.23-.085,6.359,6.359,0,0,0-.947,3.589h-.326V5.95Zm19.139-1.061h0v0Zm-32.347,0h0Z" transform="translate(325.579 0.501)" fill="#f0c200" stroke="rgba(0,0,0,0)" stroke-miterlimit="10" stroke-width="1"/>
</svg>
