<svg xmlns="http://www.w3.org/2000/svg" xmlns:xlink="http://www.w3.org/1999/xlink" width="981" height="48" viewBox="0 0 981 48">
  <defs>
    <clipPath id="clip-path">
      <path id="パス_215" data-name="パス 215" d="M2.443,11.195s4.977-2,6.009,5.875c-4.8-.756-7.718-3.189-6.009-5.875m976.115,0c1.709,2.685-1.208,5.118-6,5.875,1.032-7.87,6-5.875,6-5.875M19.738,11.027a10.145,10.145,0,0,0-.309-4.477H29.941c-.158,2-1.3,4.339-4.665,6.613a16.184,16.184,0,0,0-5.537-2.136M36.631,6.55H63.275c.863,1.764,1.108,4.122-.394,7.155-1.324,2.685-6.165,4.125-11.36,4.125-8.114,0-17.091-3.512-14.89-11.281m881.488,7.155c-1.5-3.033-1.257-5.391-.394-7.155h26.644c2.2,7.769-6.772,11.281-14.886,11.281-5.2,0-10.038-1.44-11.364-4.125M951.064,6.55h10.512a10.215,10.215,0,0,0-.316,4.477,16.176,16.176,0,0,0-5.533,2.136c-3.359-2.274-4.51-4.611-4.663-6.613M62.986,4.192H918.023a8.654,8.654,0,0,0-1.744,1.632H64.723a8.784,8.784,0,0,0-1.738-1.632M35.777,3.56l-.5.953c-.258.452-.463.881-.665,1.311H31.692A8.974,8.974,0,0,0,31.5,3.672a5.7,5.7,0,0,0,2.027.376,5.115,5.115,0,0,0,2.249-.488m909.95.953-.5-.953a5.46,5.46,0,0,0,4.276.112,8.976,8.976,0,0,0-.191,2.152h-2.917c-.2-.43-.407-.859-.667-1.311m-1.6,1.311h-26A9.762,9.762,0,0,1,921.772,2.6l.28-.143.069-.031h-.007l.024-.011H58.863l.02.011h-.007s.033.013.056.024l.323.161a9.791,9.791,0,0,1,3.62,3.21h-26A19.193,19.193,0,0,1,40.482,0S35.51,5.6,28.043,1.159a7.969,7.969,0,0,1,1.913,4.665H19.191L17.028,5.8c.768.461,1.21,2.173,1.25,2.9.08,1.5,0,2.878,0,2.878a11,11,0,0,1,4.639,2.967,24.983,24.983,0,0,1-11.162,2.763c-1.006-6.37-6.374-8.014-8.2-7.866C2.314,9.363.031,9.946,0,11.772v.079a5.172,5.172,0,0,0,1.482,3.03c1.228,1.461,3.856,2.584,7.073,3.164.053.662.085,1.378.085,2.164V48H11.9V20.258a15.864,15.864,0,0,0-.027-1.825A26.285,26.285,0,0,0,23.7,16.508c0,.066.02.132.02.2,0,5.259-8.795,6.02-8.795,6.02V48h1.551V23.5s11.066-2.23,11.066-6.693a3.7,3.7,0,0,0-.681-2.121A11.133,11.133,0,0,0,31.65,6.55h2.636c-6.979,16.985,30.531,17.472,32.15,7.566A10.442,10.442,0,0,0,65.242,6.55H915.759a10.432,10.432,0,0,0-1.193,7.566c1.62,9.906,39.127,9.419,32.15-7.566h2.636a11.122,11.122,0,0,0,4.785,8.137,3.712,3.712,0,0,0-.681,2.121c0,4.462,11.068,6.693,11.068,6.693V48h1.551V22.727s-8.8-.761-8.8-6.02a1.507,1.507,0,0,1,.024-.2,26.251,26.251,0,0,0,11.823,1.924,14.928,14.928,0,0,0-.027,1.825V48h3.266V20.208c0-.785.031-1.5.082-2.164,3.217-.58,5.847-1.7,7.07-3.164,3.613-4.308-.3-5.551-2.067-5.439-1.831-.149-7.2,1.5-8.207,7.866a24.991,24.991,0,0,1-11.162-2.763,11.044,11.044,0,0,1,4.641-2.967,26.963,26.963,0,0,1,0-2.878c.08-.713,1.459-2.483,2.819-3.72l-2.514.843H951.046a7.974,7.974,0,0,1,1.911-4.665C945.493,5.6,940.52,0,940.52,0a19.239,19.239,0,0,1,3.606,5.824" transform="translate(0 0)" fill="#e6da95"/>
    </clipPath>
  </defs>
  <g id="グループ_175" data-name="グループ 175" transform="translate(0 0)" clip-path="url(#clip-path)">
    <rect id="長方形_44" data-name="長方形 44" width="983.132" height="48" transform="translate(0 0)" fill="#e6da95"/>
  </g>
</svg>
