<svg xmlns="http://www.w3.org/2000/svg" xmlns:xlink="http://www.w3.org/1999/xlink" width="67.721" height="67.032" viewBox="0 0 67.721 67.032">
  <defs>
    <clipPath id="clip-path">
      <rect id="長方形_10" data-name="長方形 10" width="50" height="46" fill="#c5a237"/>
    </clipPath>
  </defs>
  <g id="賞のそばの飾り_右" data-name="賞のそばの飾り　右" transform="matrix(0.788, -0.616, 0.616, 0.788, 0, 30.783)">
    <g id="グループ_13" data-name="グループ 13" transform="translate(0 0)" clip-path="url(#clip-path)">
      <path id="パス_48" data-name="パス 48" d="M46.089,0a17.2,17.2,0,0,0-1.767,2.955,3.926,3.926,0,0,0-.479,3.463c.51,1.174.81,1.55.679,2.651-.06.514.031,2.154-.307,2.419a4.876,4.876,0,0,1-.012-.905c.051-.284.1-.614.146-.894a4.014,4.014,0,0,0-.235-1.946l-.083-.191C43.593,6.545,40.541,2.757,40,2.837a2.462,2.462,0,0,1,.673.848l.389.9c.366.843.283,2.933.636,3.744l.11.255c.619,1.424,1.682,1.588,1.918,2.133l.389.894c.407.938-1.2,6.882-1.83,7.377a3.513,3.513,0,0,1,.4-1.855,4.808,4.808,0,0,0,.072-1.983l-.778-1.789c-.267-.618-1.906-3.408-2.28-3.493a5.122,5.122,0,0,1,.623,3.156,11.631,11.631,0,0,0,.036,2.927l.223.51c.328.758.924,1.074,1.134,1.56a2.1,2.1,0,0,1-.058,2.36c-.361.658-.646,1.351-1.08,2.009s-2.257,3.387-2.9,3.727c.1-1.214,2.368-2.2,2.134-4.187-.055-.458-.03-.958-.117-1.317-.123-.495-.3-.927-.425-1.437A13.036,13.036,0,0,0,38.75,17.7c-.171-.488-.151-.874-.39-1.424l-.257.11.139.321c.554,1.274-.719,3.2-1.143,4.26a2.874,2.874,0,0,0-.389,2.228c.5,1.194.926,1.679.686,2.653-.384,1.56-1.9,2.3-3.233,3.435a22.079,22.079,0,0,1-4.856,2.848c.244-1.316,3.189-1.2,3.621-4.235a15.73,15.73,0,0,0,.087-2.824c-.006-.6-.255-2.557-.188-2.95l-.1-.021a4.914,4.914,0,0,0-.034.622,2.928,2.928,0,0,1-.126.64,3.268,3.268,0,0,1-.618,1.132,24.374,24.374,0,0,1-1.735,2.068c-2.426,2.865-.064,2.878-1,5.059-.442,1.031-1.325,1.075-2.541,1.485a27.748,27.748,0,0,1-3.059.722,18.557,18.557,0,0,1-2.909.345c-.467.028-.964.046-1.41.06-.346.012-1.062-.074-1.375-.028-.041-.276.215-.4.534-.531l.129-.055c.979-.419,2.1-.144,3.3-.656A3.513,3.513,0,0,0,23.9,31.368a9.482,9.482,0,0,0,1.225-1.9,25.52,25.52,0,0,0,1.592-4.189c-.266.2-.264.317-.37.6-.15.4-.221.291-.484.6-.623.742-.4.458-1.4.982-.55.286-1.108.551-1.771.836-.729.311-1.153.642-1.678.873A3.031,3.031,0,0,0,19.144,31.5,2.8,2.8,0,0,1,17.5,33.925l-.192.082c-.655.282-4.3-.514-4.968-.766-.847-.322-4.156-1.223-4.612-1.8,1.1-.471,2.185.222,3.1.385a7.552,7.552,0,0,0,3.286-.09,13.171,13.171,0,0,0,3.774-2.958c.572-.653,2.779-2.726,2.886-3.307-.347.185-.662.663-.954.788l-1.222.525a9.482,9.482,0,0,1-3.292.371,21.174,21.174,0,0,0-3.336.348l-.708.3a5,5,0,0,0-1.413,1.455c-.4.608-.379,1.058-1.357,1.477-1.407.6-1.432.428-2.4-.12-.667-.376-1.3-.818-1.948-1.258A23.262,23.262,0,0,1,2.26,27.929C1.913,27.637.717,26.341.387,26.484L0,26.649a32.524,32.524,0,0,0,4.186,3.527A19.077,19.077,0,0,0,6.46,31.555,4.147,4.147,0,0,1,8.6,33.271l.5,1.151c.267.616-.52,2.142.138,3.653l.166.383a16.631,16.631,0,0,0,2.467,2.63,13.075,13.075,0,0,1,2.467,2.758l.445,1.021c.176.405.031.674.187,1.133.227-.382-.057-3.489-.113-4.227a13.693,13.693,0,0,0-.985-4.622l-.028-.065c-1.157-2.663-4.5-2.641-5.3-4.472.724.133,1.777.77,2.544.97.885.231,1.74.53,2.65.7.969.182,1.775.283,2.763.421.753.106.658-.068,1.354.345a5.163,5.163,0,0,1,1.063,1.074l.083.192c.151.348.024.409.177.757l.36.832c.515,1.184,2.825,2.146,3.787,2.525a5.955,5.955,0,0,1,3.658,2.847l.129-.054L26.5,41.817c-.241-.555-.579-.906-.831-1.386a12.9,12.9,0,0,0-.749-1.59,14.026,14.026,0,0,0-1.91-2.289,6.885,6.885,0,0,0-2.422-1.006,7.037,7.037,0,0,1-2.575-.624,19.86,19.86,0,0,1,2.489-.095c.813-.072,1.658-.1,2.535-.21a22.147,22.147,0,0,0,2.682-.572,14.19,14.19,0,0,1,2.729-.7c1.139.346.918.865,1.759,1.732a3.234,3.234,0,0,0,2.217.587c.8.06,1.579.14,2.374.2,1.15.083,1.667.878,2.12.961a15.693,15.693,0,0,0-3.465-3.46,4.572,4.572,0,0,0-2.184-.536c-.546-.018-2.265.585-2.544.233l1.671-.716a19.853,19.853,0,0,0,3.43-1.982c.651-.448,2.505-2.078,2.832-2.217l.258-.111a1.642,1.642,0,0,1,1.168.009c.6.233.443.227.864.772a2.161,2.161,0,0,0,2.1.735c.785-.106,1.73-.324,2.5-.393,1.053-.094,1.893.6,2.177.556a18.549,18.549,0,0,0-3.558-2.7,2.717,2.717,0,0,0-2.243-.121c-.911.377-1.993,1.029-2.612.667.016-.066,2.1-2.555,2.347-2.885A13.8,13.8,0,0,0,40.7,23.178c.233-.4.681-1.307,1.146-1.506l.836-.359c.646-.277,1.36.25,2.042-.041l.322-.137c1.4-.6,1.933-2.042,3.478-2.7l.193-.082c.365-.157.422-.029.891-.23-.43-.252-4.393.216-5.3.606l-.193.082c-1.483.636-1.263,2.179-2.411,2.7.059-.314.82-1.72,1.011-2.2a23.981,23.981,0,0,0,.862-2.306,20.985,20.985,0,0,1,.689-2.375c.442-1.114.956-1.072,2.282-1.641.906-.388,1.388-1.808,1.672-2.517a6.8,6.8,0,0,1,.617-1.344,1.483,1.483,0,0,1,.5-.6c.25-.153.609-.346.663-.585-.869.372-1.546.819-2.195,1.093a6.787,6.787,0,0,0-1.947,1.243c-1.745,1.238-.855,2.581-1.426,3.46-.08-.44.309-2.686.323-3.472a7.213,7.213,0,0,1,.559-3.38,3.645,3.645,0,0,0,.647-3.344,9.344,9.344,0,0,1-.254-1.9c-.021-1.061.262-1,.382-1.65" transform="translate(0 0)" fill="#c5a237" fill-rule="evenodd"/>
    </g>
  </g>
</svg>
