<svg xmlns="http://www.w3.org/2000/svg" width="46.985" height="36.495" viewBox="0 0 46.985 36.495">
  <g id="_位" data-name="４位" transform="translate(0.808 -3.986)">
    <path id="パス_305" data-name="パス 305" d="M11.431-.713a20.616,20.616,0,0,0-2.3-.115V3.243H6.463V-.828H.184v-.483l8.579-10.9h.368V-3.2h.184a3.513,3.513,0,0,0,.932-.092.676.676,0,0,0,.425-.3,2.052,2.052,0,0,0,.184-.644h.483Q11.339-1.794,11.431-.713ZM6.463-3.2V-8.556L2.3-3.2Z" transform="translate(16 26)" fill="#bfaa71"/>
    <path id="合体_26" data-name="合体 26" d="M36.524,34.557l-.607-.3a8.746,8.746,0,0,0-2.23-.387,10.955,10.955,0,0,1-2.18-.329l-.227-.114c-.9-.451-1.131-1.4-1.5-1.589l-.684-.343a2.713,2.713,0,0,0-1.669-.033,12.134,12.134,0,0,1-1.6.164,21.426,21.426,0,0,1-3.332-.139l.116-.207c.1-.176,1.162-.008,1.439,0,.478.021.958.02,1.436,0s.942-.045,1.4-.106c.667-.089.748-.02,1.166-.773.292-.523.1-.717.053-1.127a2.586,2.586,0,0,1,.089-1.136l.211-.379a11.786,11.786,0,0,1,1.417-1.3,5.211,5.211,0,0,0,1.389-1.3l.364-.655c.086-.157.046-.478.135-.68a10.99,10.99,0,0,1-.048,2.471,6.785,6.785,0,0,1-.6,2.622,4.248,4.248,0,0,1-1.495,1.169c-.489.24-1.267.3-1.594.892a13.6,13.6,0,0,0,2.852-.781,9.487,9.487,0,0,0,2.615-1.364l.058-.1a1.5,1.5,0,0,0-.184-1.649,1.605,1.605,0,0,1-.047-1.685c.152-.284.22-.577.438-.968.2-.355.354-.665.5-.982.265-.581.27-.376.27-.923,0-.229.074-.207-.012-.436-.059-.16-.108-.214-.06-.392a14.259,14.259,0,0,1,.9,2.421,5.064,5.064,0,0,1,.174,1.271,1.817,1.817,0,0,1-.313,1.4c-.355.64-.987.9-1.28,1.427l-.038.068c-.1.171-.167.311-.04.421.127-.128.494-.336.651-.46.2-.159.427-.338.634-.511a10.216,10.216,0,0,0,1.22-1.154A15.03,15.03,0,0,0,37.455,25.2c.406-.6.8-.925.6-1.538-.419-1.3-1.525-.49-1.516-2.606a12.785,12.785,0,0,0,0-1.521,1.778,1.778,0,0,0-.155-.719,1.739,1.739,0,0,0-.193-.33,2.911,2.911,0,0,1-.227-.289l.054-.023c.122.2,1.006.99,1.244,1.255a9.608,9.608,0,0,1,1.066,1.294c.987,1.506-.43,2.467-.028,3.14a11.346,11.346,0,0,0,1.146-2.943c.175-.968.592-1.819.16-2.648-.269-.519-.657-.591-1.359-.952-.481-.248-.563-.767-.692-1.131-.218-.619-.379-1.919-1.137-2.3l-.19-.1.077-.138c.328.164.469.345.74.5a8.364,8.364,0,0,1,.82.482c.257.186.51.317.761.5.182.13.366.363.571.549.887.809.216,2.03.647,2.607a10.929,10.929,0,0,0-.111-2.663c-.056-.444-.194-.852-.284-1.27-.11-.516-.208-.731-.9-1.076-.289-.145-.689-.082-1.139-.308l-.3-.152a7.182,7.182,0,0,1-1.164-1.3,3.257,3.257,0,0,0-1.526-1.2,10.255,10.255,0,0,1,2.431.779l1.063.535a2.908,2.908,0,0,1,.743.912,2.05,2.05,0,0,0,.542.967,10.05,10.05,0,0,0-2.038-3.93l-.531-.266a1.044,1.044,0,0,0-.487-.053A2.382,2.382,0,0,1,34.9,9.03l-.151-.076c-.482-.242-1.264-1.207-1.764-1.458l-.532-.267a1.651,1.651,0,0,0-.646-.148c.222-.222,3.128.425,3.725.725l.113.058a2.51,2.51,0,0,1,.872.79c.091.139.2.305.284.451a3.117,3.117,0,0,0,.36.4c.053-.234-.632-.937-.806-1.187-.369-.537-.656-.6-1.354-.953a2.319,2.319,0,0,1-1.135-1.714,9.343,9.343,0,0,1-.335-1.929c.2.33.043.4.468.869a5.924,5.924,0,0,0,.863.763,2.124,2.124,0,0,1,1.008,1.719,4.24,4.24,0,0,0,1.064,1.7c.3.357,1,1.5,1.21,1.666-.078-.59-1.019-.886-.691-2.039a3.484,3.484,0,0,1,.419-1.225c.194-.346.336-.779.594-1.244.068.126-.023.335-.079.49a.773.773,0,0,0,0,.438,3.714,3.714,0,0,0,.239.814c.146.415.478,1.216.207,1.7-.394.711-.651.869-.419,1.518a12.087,12.087,0,0,0,.609,1.3,13.267,13.267,0,0,1,.5,1.328c.1.278.294,1.169.391,1.33.33-.628-.377-1.244.065-2.038l.057-.1a8.987,8.987,0,0,1,2.235-2.094c-.14.252-.217.214-.326.41l-.058.1c-.46.827-.143,1.655-.561,2.406l-.1.172c-.2.365-.743.373-.935.72l-.248.445c-.139.249.007.808.056,1.068a7.267,7.267,0,0,1,.1,1.026c.013.235.018,2.063.037,2.1.43-.05.679-.714.956-1.2a1.56,1.56,0,0,1,1.092-.716A12.107,12.107,0,0,1,45,17.141c-.116.116-.778.094-1.231.5-.332.3-.687.719-1.011,1.034a1.326,1.326,0,0,1-1.268.4c-.41-.1-.332-.151-.706-.049a.929.929,0,0,0-.547.4l-.077.139c-.1.174-.322,1.541-.45,1.965a10.257,10.257,0,0,1-.821,2.066l-.5.894c.267.062.833-.8,1.094-.978a2.747,2.747,0,0,1,1.228-.51,10.433,10.433,0,0,1,2.971.358c-.244.119-.8-.059-1.364.3-.392.247-.789.48-1.183.727a1.949,1.949,0,0,1-1.263.5c-.733-.1-.833-.407-1.5-.17a7.473,7.473,0,0,0-1,1.25,11.855,11.855,0,0,1-1.025,1.177c-.365.352-.749.654-1.1.966a11.16,11.16,0,0,0-1.122.9,4.214,4.214,0,0,0,1.444-.606,4.289,4.289,0,0,1,1.522-.382,9.306,9.306,0,0,1,1.787.368,8.455,8.455,0,0,1,.973.455c.305.128.6.169.93.335l.836.419-.039.069a3.875,3.875,0,0,0-2.819-.018,4.981,4.981,0,0,1-2.754.171l-.493-.248c-.207-.1-.173-.175-.38-.278l-.114-.058a3.4,3.4,0,0,0-.915-.115c-.487.054-.374.1-.767.31-.514.277-.929.509-1.452.76-.49.237-1,.4-1.508.6-.435.174-1.175.25-1.564.44a2.894,2.894,0,0,0,1.778.022,3.724,3.724,0,0,1,2.442.159l.039.02a8.788,8.788,0,0,1,2.27,1.73A13.457,13.457,0,0,1,37.055,35C36.8,34.849,36.764,34.678,36.524,34.557ZM9.655,33.147a8.757,8.757,0,0,1,2.27-1.73l.038-.02a3.724,3.724,0,0,1,2.442-.159,2.9,2.9,0,0,0,1.779-.022c-.39-.19-1.129-.266-1.565-.44-.5-.2-1.018-.361-1.508-.6-.523-.252-.938-.483-1.452-.76-.393-.212-.28-.257-.766-.31a3.406,3.406,0,0,0-.916.115l-.114.058c-.207.1-.172.175-.38.278l-.493.248a4.977,4.977,0,0,1-2.753-.171,3.877,3.877,0,0,0-2.82.018l-.038-.069.835-.419c.329-.166.625-.207.93-.335a8.526,8.526,0,0,1,.973-.455A9.32,9.32,0,0,1,7.9,28.008a4.279,4.279,0,0,1,1.522.382A4.211,4.211,0,0,0,10.869,29a11.264,11.264,0,0,0-1.122-.9c-.35-.311-.734-.614-1.1-.966a11.729,11.729,0,0,1-1.024-1.177,7.565,7.565,0,0,0-1-1.25c-.666-.237-.767.071-1.5.17a1.947,1.947,0,0,1-1.263-.5c-.393-.248-.791-.481-1.184-.727-.569-.358-1.121-.18-1.364-.3a10.437,10.437,0,0,1,2.971-.358,2.747,2.747,0,0,1,1.228.51c.262.18.826,1.04,1.094.978l-.5-.894a10.257,10.257,0,0,1-.821-2.066c-.128-.424-.353-1.791-.45-1.965l-.076-.139a.934.934,0,0,0-.548-.4c-.373-.1-.3-.05-.706.049a1.324,1.324,0,0,1-1.267-.4c-.325-.315-.679-.739-1.012-1.034-.454-.405-1.115-.383-1.231-.5a12.107,12.107,0,0,1,2.715.014,1.562,1.562,0,0,1,1.093.716c.276.482.526,1.146.955,1.2.019-.036.025-1.864.037-2.1a7.267,7.267,0,0,1,.1-1.026c.049-.26.2-.819.056-1.068l-.248-.445c-.193-.347-.732-.356-.934-.72l-.1-.172c-.417-.751-.1-1.579-.561-2.406l-.058-.1c-.108-.2-.185-.158-.325-.41a8.985,8.985,0,0,1,2.234,2.094l.058.1c.442.794-.266,1.409.065,2.038.1-.161.292-1.052.39-1.33a13.491,13.491,0,0,1,.5-1.328,12.269,12.269,0,0,0,.61-1.3c.23-.65-.026-.807-.42-1.518-.27-.485.062-1.286.208-1.7a3.816,3.816,0,0,0,.239-.814.773.773,0,0,0,0-.438c-.055-.156-.147-.365-.078-.49.258.465.4.9.593,1.244A3.466,3.466,0,0,1,7.551,8.4c.329,1.154-.613,1.449-.691,2.039.21-.169.909-1.309,1.21-1.666a4.24,4.24,0,0,0,1.064-1.7,2.125,2.125,0,0,1,1.009-1.719A5.964,5.964,0,0,0,11,4.589c.425-.467.272-.539.468-.869a9.283,9.283,0,0,1-.335,1.929A2.32,2.32,0,0,1,10,7.364c-.7.35-.985.416-1.354.953-.174.25-.859.953-.806,1.187a2.988,2.988,0,0,0,.36-.4c.088-.146.193-.311.284-.451a2.526,2.526,0,0,1,.872-.79l.113-.058c.6-.3,3.5-.947,3.725-.725a1.658,1.658,0,0,0-.646.148L12.02,7.5c-.5.251-1.282,1.216-1.764,1.458L10.1,9.03a2.384,2.384,0,0,1-1.243.243,1.039,1.039,0,0,0-.486.053l-.531.266a10.074,10.074,0,0,0-2.039,3.93,2.043,2.043,0,0,0,.542-.967,2.908,2.908,0,0,1,.743-.912l1.063-.535a10.248,10.248,0,0,1,2.432-.779,3.256,3.256,0,0,0-1.527,1.2,7.182,7.182,0,0,1-1.164,1.3l-.3.152c-.45.226-.851.163-1.14.308-.689.346-.788.561-.9,1.076-.089.418-.229.826-.283,1.27A10.93,10.93,0,0,0,5.158,18.3c.431-.577-.24-1.8.648-2.607.2-.186.388-.419.571-.549.25-.18.5-.311.761-.5a8.457,8.457,0,0,1,.819-.482c.271-.159.412-.34.74-.5l.076.138-.19.1c-.757.38-.919,1.679-1.137,2.3-.128.365-.211.883-.692,1.131-.7.361-1.089.433-1.359.952-.432.829-.015,1.679.16,2.648A11.378,11.378,0,0,0,6.7,23.864c.4-.673-1.014-1.634-.028-3.14A9.548,9.548,0,0,1,7.74,19.429c.237-.265,1.121-1.057,1.244-1.255l.054.023a2.919,2.919,0,0,1-.228.289,1.734,1.734,0,0,0-.192.33,1.765,1.765,0,0,0-.156.719,12.6,12.6,0,0,0,0,1.521c.008,2.116-1.1,1.309-1.517,2.606-.2.613.2.936.6,1.538a14.743,14.743,0,0,0,1.142,1.374A10.081,10.081,0,0,0,9.907,27.73c.206.173.431.352.633.511.157.124.525.332.652.46.127-.11.055-.25-.041-.421l-.038-.068c-.292-.525-.924-.788-1.279-1.427a1.81,1.81,0,0,1-.313-1.4,5.063,5.063,0,0,1,.173-1.271,14.183,14.183,0,0,1,.9-2.421c.048.178,0,.232-.061.392-.086.229-.011.206-.011.436,0,.547.005.342.269.923.145.317.3.627.5.982.218.391.286.684.439.968a1.607,1.607,0,0,1-.048,1.685,1.506,1.506,0,0,0-.185,1.649l.059.1a9.462,9.462,0,0,0,2.615,1.364,13.581,13.581,0,0,0,2.851.781c-.326-.588-1.105-.652-1.594-.892a4.248,4.248,0,0,1-1.495-1.169,6.767,6.767,0,0,1-.6-2.622,10.994,10.994,0,0,1-.049-2.471c.089.2.049.524.135.68l.365.655a5.194,5.194,0,0,0,1.388,1.3,11.718,11.718,0,0,1,1.418,1.3l.212.379a2.6,2.6,0,0,1,.088,1.136c-.051.41-.239.6.053,1.127.419.753.5.684,1.166.773.458.061.928.081,1.4.106s.958.024,1.436,0c.276-.012,1.341-.18,1.439,0l.115.207a21.426,21.426,0,0,1-3.332.139,12.15,12.15,0,0,1-1.6-.164,2.713,2.713,0,0,0-1.669.033l-.683.343c-.366.184-.6,1.138-1.5,1.589l-.228.114a10.957,10.957,0,0,1-2.179.329,8.733,8.733,0,0,0-2.23.387l-.608.3c-.24.121-.278.292-.531.443A13.468,13.468,0,0,1,9.655,33.147Zm12.912-3.1a.923.923,0,1,1,.07-1.844.907.907,0,0,1,.89.923c0,.012,0,.023,0,.034a.924.924,0,0,1-.923.888Zm-1.921-.426a.5.5,0,1,1,.038-1,.489.489,0,0,1,.481.5v.02a.5.5,0,0,1-.5.481Zm3.875,0a.5.5,0,0,1,.038-1,.492.492,0,0,1,.482.5.153.153,0,0,1,0,.02.5.5,0,0,1-.5.481Zm-5.233-.672a.373.373,0,1,1,.028-.746h0a.366.366,0,0,1,.36.373v.014a.375.375,0,0,1-.375.359Zm6.239-.359v-.014a.367.367,0,0,1,.361-.373.373.373,0,1,1,.028.745H25.9A.373.373,0,0,1,25.528,28.592ZM19.8,4.945V4.824h-.009a5.357,5.357,0,0,0-.783-3,.29.29,0,0,1-.2.082.294.294,0,1,1,.3-.305.316.316,0,0,1-.078.208c.878.959,1.515,1.136,1.7-.148a.253.253,0,0,1-.064.007.294.294,0,1,1,.294-.305.306.306,0,0,1-.167.275c.625,1,1.148.834,1.562-.564a.538.538,0,0,1-.414-.531.278.278,0,0,1,0-.039.525.525,0,0,1,1.049.039.543.543,0,0,1-.332.506c.413,1.42.938,1.591,1.565.6a.3.3,0,0,1-.179-.282V1.351a.306.306,0,1,1,.294.317.266.266,0,0,1-.047,0c.184,1.275.816,1.1,1.689.153A.306.306,0,0,1,25.88,1.6V1.589a.306.306,0,1,1,.294.317.287.287,0,0,1-.189-.071,5.348,5.348,0,0,0-.778,2.99h0v.121ZM33.527,3.72h0v0Zm-22.055,0h0Z" transform="translate(0.184 4.487)" fill="#bfaa71" stroke="rgba(0,0,0,0)" stroke-miterlimit="10" stroke-width="1"/>
  </g>
</svg>
