<svg xmlns="http://www.w3.org/2000/svg" width="67.063" height="49.47" viewBox="0 0 67.063 49.47">
  <g id="大きい_位" data-name="大きい４位" transform="translate(2.259 -3)">
    <path id="パス_310" data-name="パス 310" d="M16.9-1.054a30.476,30.476,0,0,0-3.4-.17V4.794H9.554V-1.224H.272v-.714L12.954-18.054H13.5V-4.726h.272a5.192,5.192,0,0,0,1.377-.136,1,1,0,0,0,.629-.442,3.033,3.033,0,0,0,.272-.952h.714Q16.762-2.652,16.9-1.054ZM9.554-4.726v-7.922L3.4-4.726Z" transform="translate(22.5 33)" fill="#bfaa71"/>
    <path id="合体_20" data-name="合体 20" d="M52.757,47.392l-.878-.417a13.221,13.221,0,0,0-3.221-.531,16.6,16.6,0,0,1-3.147-.452l-.328-.157c-1.3-.618-1.633-1.927-2.162-2.178l-.987-.47a4.118,4.118,0,0,0-2.41-.046,18.445,18.445,0,0,1-2.31.225,32.579,32.579,0,0,1-4.812-.191l.167-.284c.142-.242,1.679-.011,2.078,0q1.038.043,2.075,0c.684-.035,1.362-.062,2.023-.146.963-.122,1.08-.027,1.685-1.06.421-.717.151-.984.077-1.545a3.379,3.379,0,0,1,.128-1.558l.305-.52a16.589,16.589,0,0,1,2.048-1.786A7.382,7.382,0,0,0,45.092,34.5l.526-.9c.125-.215.067-.655.2-.933.257.407-.055,2.719-.07,3.389a8.894,8.894,0,0,1-.865,3.6,6.091,6.091,0,0,1-2.16,1.6c-.7.33-1.831.417-2.3,1.223.631.136,3.368-.87,4.119-1.071.59-.158,3.495-1.39,3.777-1.871l.084-.141a1.98,1.98,0,0,0-.267-2.261,2.109,2.109,0,0,1-.068-2.311c.221-.389.319-.791.634-1.327.284-.486.51-.912.718-1.347.382-.8.391-.516.39-1.266,0-.315.107-.284-.016-.6-.085-.22-.157-.294-.087-.538a18.918,18.918,0,0,1,1.3,3.32,6.579,6.579,0,0,1,.25,1.743,2.384,2.384,0,0,1-.452,1.922c-.513.878-1.426,1.238-1.848,1.958l-.055.094c-.138.235-.241.427-.059.578.184-.175.715-.46.941-.631.292-.218.617-.464.915-.7a14.32,14.32,0,0,0,1.761-1.582,20.74,20.74,0,0,0,1.65-1.885c.587-.826,1.157-1.269.869-2.109-.607-1.779-2.2-.673-2.191-3.574a16.616,16.616,0,0,0,0-2.086,2.388,2.388,0,0,0-.5-1.439,3.941,3.941,0,0,1-.328-.4l.078-.032c.177.272,1.453,1.358,1.8,1.721a13.361,13.361,0,0,1,1.54,1.775c1.426,2.065-.622,3.383-.041,4.306a15.109,15.109,0,0,0,1.655-4.036c.254-1.328.855-2.494.231-3.631-.39-.712-.949-.811-1.963-1.306-.694-.341-.814-1.052-1-1.551-.314-.849-.548-2.631-1.642-3.152l-.275-.132.112-.189c.473.225.678.473,1.068.691a12.147,12.147,0,0,1,1.183.662c.373.255.738.434,1.1.681.264.179.529.5.824.753,1.283,1.11.312,2.785.936,3.576a14.278,14.278,0,0,0-.161-3.652c-.08-.608-.281-1.169-.41-1.742-.157-.707-.3-1-1.3-1.476-.418-.2-1-.112-1.647-.422l-.438-.209a10.028,10.028,0,0,1-1.681-1.78,4.666,4.666,0,0,0-2.2-1.644,15.375,15.375,0,0,1,3.512,1.069l1.535.733a4.04,4.04,0,0,1,1.075,1.25,2.768,2.768,0,0,0,.782,1.326c.146-.6-2.138-5.006-2.944-5.39L52.9,12.79a1.582,1.582,0,0,0-.7-.073,3.6,3.6,0,0,1-1.795-.333l-.22-.1c-.7-.332-1.824-1.655-2.547-2l-.769-.367a2.494,2.494,0,0,0-.933-.2c.321-.3,4.518.583,5.381.994l.164.079a3.583,3.583,0,0,1,1.26,1.084c.131.191.283.418.409.618.168.264.334.33.521.548.076-.321-.914-1.285-1.164-1.628-.533-.737-.949-.827-1.957-1.307a3.172,3.172,0,0,1-1.638-2.351A12.147,12.147,0,0,1,48.429,5.1c.284.452.062.551.676,1.191A8.416,8.416,0,0,0,50.351,7.34,2.888,2.888,0,0,1,51.808,9.7a5.78,5.78,0,0,0,1.537,2.338c.435.49,1.444,2.053,1.747,2.285-.113-.81-1.472-1.215-1-2.8a4.592,4.592,0,0,1,.606-1.68c.281-.474.484-1.068.858-1.706.1.173-.034.459-.114.673a1.007,1.007,0,0,0,0,.6,4.951,4.951,0,0,0,.346,1.116c.211.569.69,1.667.3,2.333-.57.975-.94,1.191-.607,2.082a16.413,16.413,0,0,0,.881,1.782,17.61,17.61,0,0,1,.725,1.822c.142.381.425,1.6.563,1.824.477-.862-.545-1.706.094-2.794l.083-.142a12.737,12.737,0,0,1,3.227-2.872c-.2.346-.313.294-.47.562l-.083.142c-.665,1.134-.207,2.27-.81,3.3l-.139.236c-.293.5-1.072.512-1.35.987l-.358.61c-.2.342.01,1.108.08,1.465a9.477,9.477,0,0,1,.144,1.407c.018.322.026,2.829.053,2.878.621-.069.981-.979,1.381-1.64a2.267,2.267,0,0,1,1.578-.982A18.414,18.414,0,0,1,65,23.507c-.168.159-1.124.13-1.779.685-.48.4-.991.986-1.46,1.418a1.98,1.98,0,0,1-1.831.542c-.592-.136-.48-.207-1.02-.067a1.343,1.343,0,0,0-.79.544l-.112.19c-.14.238-.465,2.113-.65,2.694a13.684,13.684,0,0,1-1.185,2.834l-.72,1.226c.387.085,1.2-1.095,1.58-1.342a4.084,4.084,0,0,1,1.773-.7,15.83,15.83,0,0,1,4.291.491c-.352.163-1.149-.081-1.971.41-.566.338-1.14.658-1.708,1a2.9,2.9,0,0,1-1.824.684c-1.057-.136-1.2-.558-2.165-.233A10.441,10.441,0,0,0,53.988,35.6a16.428,16.428,0,0,1-1.48,1.614c-.528.483-1.082.9-1.587,1.324A16.069,16.069,0,0,0,49.3,39.765a6.261,6.261,0,0,0,2.085-.831,6.458,6.458,0,0,1,2.2-.523,14.1,14.1,0,0,1,2.581.5,12.551,12.551,0,0,1,1.4.623c.441.175.868.232,1.344.459l1.207.575-.055.1a5.877,5.877,0,0,0-4.073-.025c-.862.221-2.961.718-3.978.235l-.712-.341c-.3-.142-.249-.239-.549-.381l-.165-.079a5.167,5.167,0,0,0-1.323-.158c-.7.074-.538.136-1.106.426-.743.38-1.343.7-2.1,1.043-.708.325-1.452.546-2.179.82-.629.238-1.7.343-2.261.6a4.395,4.395,0,0,0,2.569.03,5.648,5.648,0,0,1,3.527.218l.055.027a12.616,12.616,0,0,1,3.279,2.372A18.853,18.853,0,0,1,53.524,48C53.159,47.792,53.1,47.558,52.757,47.392ZM13.946,45.458a12.616,12.616,0,0,1,3.279-2.372l.055-.027a5.645,5.645,0,0,1,3.526-.218,4.4,4.4,0,0,0,2.569-.03c-.562-.26-1.631-.365-2.26-.6-.727-.274-1.471-.495-2.179-.82-.754-.346-1.354-.663-2.1-1.043-.568-.29-.4-.352-1.106-.426a5.179,5.179,0,0,0-1.324.158l-.165.079c-.3.142-.248.239-.548.381l-.712.341c-1.017.484-3.116-.014-3.978-.235a5.877,5.877,0,0,0-4.073.025l-.055-.1L6.087,40c.476-.227.9-.284,1.344-.459a12.551,12.551,0,0,1,1.4-.623,14.1,14.1,0,0,1,2.581-.5,6.448,6.448,0,0,1,2.2.523,6.273,6.273,0,0,0,2.086.831,16.069,16.069,0,0,0-1.621-1.231c-.5-.427-1.058-.842-1.587-1.324A16.55,16.55,0,0,1,11.012,35.6a10.4,10.4,0,0,0-1.441-1.714c-.962-.325-1.107.1-2.165.233a2.9,2.9,0,0,1-1.823-.684c-.568-.339-1.142-.659-1.709-1-.821-.491-1.618-.247-1.97-.41a15.827,15.827,0,0,1,4.291-.491,4.088,4.088,0,0,1,1.773.7c.378.247,1.193,1.427,1.58,1.342l-.72-1.226a13.635,13.635,0,0,1-1.185-2.834c-.184-.581-.509-2.456-.65-2.694l-.112-.19a1.345,1.345,0,0,0-.791-.544c-.539-.141-.427-.069-1.019.067a1.98,1.98,0,0,1-1.832-.542c-.469-.432-.981-1.013-1.46-1.418C1.123,23.636.168,23.666,0,23.507a18.414,18.414,0,0,1,3.922.019,2.267,2.267,0,0,1,1.578.982c.4.662.759,1.571,1.38,1.64.028-.049.036-2.556.054-2.878a9.477,9.477,0,0,1,.144-1.407c.07-.357.282-1.123.08-1.465l-.358-.61c-.279-.475-1.057-.488-1.35-.987l-.139-.236c-.6-1.029-.145-2.165-.81-3.3l-.083-.142c-.157-.268-.268-.216-.471-.562a12.725,12.725,0,0,1,3.227,2.872l.083.142c.638,1.089-.383,1.933.094,2.794.139-.221.421-1.443.563-1.824a17.609,17.609,0,0,1,.725-1.822,16.413,16.413,0,0,0,.881-1.782c.333-.891-.037-1.107-.607-2.082-.391-.665.089-1.764.3-2.333A5,5,0,0,0,9.56,9.411a1.014,1.014,0,0,0,0-.6c-.08-.214-.212-.5-.114-.673.374.638.577,1.232.858,1.706a4.608,4.608,0,0,1,.606,1.68c.474,1.582-.885,1.987-1,2.8.3-.232,1.312-1.795,1.747-2.285A5.777,5.777,0,0,0,13.192,9.7,2.891,2.891,0,0,1,14.649,7.34,8.462,8.462,0,0,0,15.9,6.294c.614-.64.392-.739.676-1.191a12.2,12.2,0,0,1-.484,2.645A3.172,3.172,0,0,1,14.45,10.1c-1.008.48-1.424.57-1.957,1.307-.251.343-1.24,1.307-1.164,1.628.187-.218.352-.284.521-.548.126-.2.277-.427.409-.618a3.575,3.575,0,0,1,1.26-1.084l.164-.079c.863-.411,5.06-1.3,5.38-.994a2.489,2.489,0,0,0-.932.2l-.769.367c-.724.344-1.85,1.667-2.547,2l-.22.1a3.605,3.605,0,0,1-1.8.333,1.576,1.576,0,0,0-.7.073l-.767.365c-.806.384-3.09,4.789-2.945,5.39a2.77,2.77,0,0,0,.783-1.326,4.049,4.049,0,0,1,1.074-1.25l1.535-.733a15.375,15.375,0,0,1,3.512-1.069,4.662,4.662,0,0,0-2.2,1.644,10.061,10.061,0,0,1-1.681,1.78l-.439.209c-.65.31-1.229.223-1.646.422-1,.474-1.139.769-1.3,1.476-.13.573-.33,1.133-.41,1.742a14.277,14.277,0,0,0-.161,3.652c.623-.791-.347-2.466.935-3.576.3-.255.562-.574.824-.753.363-.247.728-.426,1.1-.681a12.268,12.268,0,0,1,1.184-.662c.391-.218.6-.467,1.068-.691l.111.189-.274.132c-1.094.521-1.328,2.3-1.642,3.152-.185.5-.306,1.211-1,1.551-1.014.495-1.573.594-1.963,1.306-.625,1.137-.023,2.3.23,3.631A15.143,15.143,0,0,0,9.68,32.727c.581-.923-1.466-2.241-.04-4.306a13.3,13.3,0,0,1,1.54-1.775c.342-.363,1.619-1.449,1.8-1.721l.078.032a4.067,4.067,0,0,1-.328.4,2.378,2.378,0,0,0-.278.453,2.35,2.35,0,0,0-.224.986,16.447,16.447,0,0,0,0,2.086c.012,2.9-1.586,1.8-2.191,3.574-.287.841.283,1.284.869,2.109a20.741,20.741,0,0,0,1.65,1.885,14.32,14.32,0,0,0,1.761,1.582c.3.237.623.483.914.7.227.17.757.455.941.631.183-.151.079-.343-.059-.578l-.055-.094c-.421-.72-1.335-1.08-1.848-1.958a2.384,2.384,0,0,1-.452-1.922A6.579,6.579,0,0,1,14,33.067a18.848,18.848,0,0,1,1.3-3.32c.069.244,0,.318-.087.538-.123.314-.016.283-.016.6,0,.75.007.469.39,1.266.208.434.434.86.718,1.347.315.536.413.938.634,1.327a2.107,2.107,0,0,1-.068,2.311,1.981,1.981,0,0,0-.266,2.261l.084.141c.283.481,3.187,1.713,3.777,1.871.752.2,3.488,1.207,4.118,1.071-.472-.806-1.6-.894-2.3-1.223a6.1,6.1,0,0,1-2.159-1.6,8.894,8.894,0,0,1-.865-3.6c-.016-.67-.328-2.982-.07-3.389.129.278.07.718.2.933l.526.9a7.365,7.365,0,0,0,2,1.779,16.589,16.589,0,0,1,2.048,1.786l.305.52a3.379,3.379,0,0,1,.128,1.558c-.074.562-.345.828.077,1.545.6,1.033.722.938,1.685,1.06.662.084,1.339.111,2.023.146s1.383.033,2.074,0c.4-.016,1.937-.247,2.079,0l.167.284a32.579,32.579,0,0,1-4.812.191,18.445,18.445,0,0,1-2.31-.225,4.118,4.118,0,0,0-2.41.046l-.987.47c-.528.252-.862,1.56-2.162,2.178l-.329.157a16.6,16.6,0,0,1-3.147.452,13.221,13.221,0,0,0-3.221.531l-.878.417c-.347.165-.4.4-.767.607A18.8,18.8,0,0,1,13.946,45.458ZM32.6,41.21A1.3,1.3,0,0,1,31.314,39.9,1.309,1.309,0,0,1,32.7,38.681a1.275,1.275,0,0,1,1.285,1.265c0,.016,0,.032,0,.047a1.3,1.3,0,0,1-1.332,1.218Zm-2.775-.584a.686.686,0,1,1,.054-1.37.688.688,0,0,1,.695.684v.027a.706.706,0,0,1-.72.66Zm5.6,0a.687.687,0,1,1,.054-1.371.691.691,0,0,1,.695.685v.027a.707.707,0,0,1-.722.66ZM27.861,39.7a.513.513,0,1,1,.04-1.023h0a.515.515,0,0,1,.52.511v.02a.53.53,0,0,1-.542.493Zm9.013-.492a.136.136,0,0,1,0-.019.516.516,0,0,1,.521-.512.53.53,0,0,1,.562.492.523.523,0,0,1-.52.529h-.022A.527.527,0,0,1,36.874,39.212Zm-8.28-32.43V6.616h-.013A7.076,7.076,0,0,0,27.449,2.5a.431.431,0,0,1-.291.112.4.4,0,1,1-.015-.806.417.417,0,0,1,.441.388.412.412,0,0,1-.113.285c1.269,1.314,2.188,1.558,2.452-.2a.39.39,0,0,1-.093.01.414.414,0,0,1-.425-.388.412.412,0,0,1,.409-.417.417.417,0,0,1,.442.386.42.42,0,0,1-.24.378c.9,1.366,1.659,1.144,2.256-.774a.748.748,0,0,1-.6-.728V.691A.743.743,0,0,1,32.459,0a.735.735,0,0,1,.729.744.742.742,0,0,1-.48.694c.6,1.948,1.355,2.182,2.262.817a.416.416,0,0,1-.259-.386V1.853a.443.443,0,0,1,.884.032.433.433,0,0,1-.459.4.4.4,0,0,1-.067,0c.265,1.749,1.178,1.512,2.439.21a.411.411,0,0,1-.126-.3V2.179a.443.443,0,0,1,.884.032.454.454,0,0,1-.732.3,7.1,7.1,0,0,0-1.129,4.071h0l0,.03h0v.165ZM16.571,5.1h0v0Zm31.857,0h0v0Z" transform="translate(-1.227 3.502)" fill="#bfaa71" stroke="rgba(0,0,0,0)" stroke-miterlimit="10" stroke-width="1"/>
  </g>
</svg>
