<svg xmlns="http://www.w3.org/2000/svg" width="67.063" height="49.47" viewBox="0 0 67.063 49.47">
  <g id="大きい_位" data-name="大きい１位" transform="translate(27.591 12.169)">
    <path id="パス_307" data-name="パス 307" d="M11.2-.418A3.473,3.473,0,0,0,11.856,2a3.111,3.111,0,0,0,2.278.671v.854Q9.74,3.365,8.52,3.365q-1.342,0-5.858.122l-1.139.041V2.674a4.68,4.68,0,0,0,2.868-.732,3.1,3.1,0,0,0,.956-2.6v-9.926A8.726,8.726,0,0,0,5-13.457a1.958,1.958,0,0,0-1.159-1.22,7.53,7.53,0,0,0-2.482-.305v-.895a33.616,33.616,0,0,0,5.817-.549A12.629,12.629,0,0,0,11.2-17.952Z" transform="translate(-1.36 17.952)" fill="#ffdb46"/>
    <path id="合体_2" data-name="合体 2" d="M52.757,47.393l-.877-.418a13.26,13.26,0,0,0-3.221-.53,16.661,16.661,0,0,1-3.148-.452l-.328-.157c-1.3-.618-1.633-1.926-2.162-2.178l-.987-.471a4.119,4.119,0,0,0-2.41-.045,18.543,18.543,0,0,1-2.31.225,32.607,32.607,0,0,1-4.812-.192l.167-.284c.142-.243,1.679-.011,2.079,0q1.037.043,2.075,0c.684-.035,1.361-.062,2.023-.146.963-.122,1.08-.027,1.685-1.06.422-.718.152-.984.077-1.546a3.386,3.386,0,0,1,.128-1.558l.3-.519a16.567,16.567,0,0,1,2.047-1.786A7.389,7.389,0,0,0,45.091,34.5l.526-.9c.125-.215.066-.656.2-.934.257.408-.054,2.72-.07,3.39a8.893,8.893,0,0,1-.865,3.594,6.091,6.091,0,0,1-2.16,1.6c-.705.329-1.831.416-2.3,1.222.63.136,3.367-.87,4.119-1.071.59-.158,3.495-1.389,3.777-1.87l.084-.142a1.98,1.98,0,0,0-.267-2.26,2.109,2.109,0,0,1-.068-2.311c.221-.388.319-.79.633-1.326.285-.487.51-.913.719-1.348.382-.8.39-.516.39-1.265,0-.315.107-.284-.016-.6-.086-.22-.157-.294-.088-.539a18.915,18.915,0,0,1,1.3,3.32,6.613,6.613,0,0,1,.25,1.743,2.387,2.387,0,0,1-.452,1.922c-.513.877-1.426,1.238-1.848,1.957l-.055.094c-.137.234-.241.427-.058.577.184-.175.714-.46.94-.63.292-.219.616-.464.915-.7a14.387,14.387,0,0,0,1.762-1.583,20.7,20.7,0,0,0,1.65-1.885c.586-.825,1.156-1.268.869-2.109-.606-1.778-2.2-.673-2.191-3.574a16.527,16.527,0,0,0,0-2.087,2.336,2.336,0,0,0-.224-.986,2.367,2.367,0,0,0-.278-.452,4.113,4.113,0,0,1-.328-.4l.078-.032c.178.272,1.454,1.357,1.8,1.721a13.3,13.3,0,0,1,1.54,1.775c1.425,2.066-.622,3.384-.04,4.306a15.127,15.127,0,0,0,1.655-4.036c.253-1.328.855-2.494.231-3.632-.389-.712-.949-.81-1.963-1.306-.694-.34-.814-1.051-1-1.551-.314-.85-.548-2.632-1.642-3.153l-.275-.132.111-.189c.473.225.678.473,1.068.691a12.431,12.431,0,0,1,1.184.661c.372.256.738.436,1.1.682.263.18.529.5.824.753,1.283,1.11.312,2.785.935,3.576a14.267,14.267,0,0,0-.161-3.652c-.081-.608-.281-1.168-.411-1.742-.158-.707-.3-1-1.3-1.476-.417-.2-1-.112-1.647-.422l-.439-.208a10.025,10.025,0,0,1-1.681-1.779,4.664,4.664,0,0,0-2.205-1.645,15.31,15.31,0,0,1,3.512,1.07l1.535.732a4.045,4.045,0,0,1,1.074,1.251,2.772,2.772,0,0,0,.783,1.326c.145-.6-2.139-5.006-2.944-5.391L52.9,12.79a1.6,1.6,0,0,0-.7-.072,3.592,3.592,0,0,1-1.8-.334l-.219-.1c-.7-.332-1.824-1.654-2.548-2l-.768-.366a2.476,2.476,0,0,0-.933-.2c.321-.305,4.517.583,5.381.994l.164.078a3.579,3.579,0,0,1,1.26,1.084c.131.192.283.419.409.618.169.264.334.33.521.549.077-.322-.913-1.285-1.163-1.629-.533-.737-.949-.827-1.956-1.307a3.174,3.174,0,0,1-1.638-2.352A12.178,12.178,0,0,1,48.429,5.1c.284.452.062.551.676,1.191a8.484,8.484,0,0,0,1.246,1.047A2.89,2.89,0,0,1,51.808,9.7a5.773,5.773,0,0,0,1.536,2.337c.435.49,1.444,2.053,1.747,2.284-.113-.809-1.472-1.214-1-2.8a4.613,4.613,0,0,1,.606-1.68c.281-.474.484-1.067.858-1.705.1.173-.034.459-.114.673a1.014,1.014,0,0,0,0,.6,4.959,4.959,0,0,0,.346,1.116c.21.569.69,1.667.3,2.332-.57.975-.94,1.191-.607,2.082a16.253,16.253,0,0,0,.881,1.782,17.656,17.656,0,0,1,.726,1.822c.142.381.425,1.6.563,1.824.477-.861-.545-1.706.094-2.794l.083-.142a12.728,12.728,0,0,1,3.227-2.872c-.2.345-.313.294-.47.562l-.083.142c-.665,1.134-.207,2.27-.81,3.3l-.139.236c-.293.5-1.072.512-1.35.987l-.358.61c-.2.342.01,1.109.08,1.465a9.6,9.6,0,0,1,.144,1.408c.018.322.026,2.829.053,2.878.621-.07.98-.979,1.38-1.64a2.268,2.268,0,0,1,1.578-.983A18.469,18.469,0,0,1,65,23.507c-.168.159-1.124.13-1.779.685-.48.405-.991.986-1.46,1.419a1.979,1.979,0,0,1-1.831.541c-.592-.136-.48-.207-1.019-.066a1.342,1.342,0,0,0-.791.545l-.111.189c-.141.239-.465,2.114-.65,2.7a13.642,13.642,0,0,1-1.185,2.833l-.72,1.226c.387.085,1.2-1.1,1.58-1.342a4.088,4.088,0,0,1,1.773-.7,15.814,15.814,0,0,1,4.291.491c-.352.163-1.149-.081-1.971.409-.566.339-1.14.658-1.709,1a2.9,2.9,0,0,1-1.824.684c-1.058-.136-1.2-.559-2.165-.234A10.421,10.421,0,0,0,53.988,35.6a16.608,16.608,0,0,1-1.48,1.614c-.528.482-1.082.9-1.587,1.324A16.092,16.092,0,0,0,49.3,39.765a6.265,6.265,0,0,0,2.086-.831,6.483,6.483,0,0,1,2.2-.524,14.159,14.159,0,0,1,2.581.505,12.446,12.446,0,0,1,1.4.624c.441.175.867.232,1.343.458l1.207.575-.055.095a5.876,5.876,0,0,0-4.072-.024c-.862.22-2.961.718-3.978.234l-.712-.34c-.3-.143-.25-.24-.549-.382l-.165-.078a5.16,5.16,0,0,0-1.323-.159c-.7.074-.538.136-1.106.426-.743.38-1.342.7-2.1,1.043-.708.325-1.452.545-2.179.819-.629.239-1.7.344-2.26.6a4.388,4.388,0,0,0,2.57.031,5.645,5.645,0,0,1,3.527.217l.055.027a12.625,12.625,0,0,1,3.279,2.373A18.779,18.779,0,0,1,53.524,48C53.159,47.792,53.1,47.558,52.757,47.393ZM13.946,45.459a12.627,12.627,0,0,1,3.279-2.373l.055-.027a5.645,5.645,0,0,1,3.527-.217,4.388,4.388,0,0,0,2.57-.031c-.562-.26-1.632-.365-2.26-.6-.727-.274-1.471-.494-2.179-.819-.755-.345-1.354-.663-2.1-1.043-.568-.29-.4-.352-1.106-.426a5.16,5.16,0,0,0-1.323.159l-.165.078c-.3.142-.249.239-.549.382l-.712.34c-1.017.484-3.115-.015-3.977-.234a5.876,5.876,0,0,0-4.072.024l-.055-.095L6.086,40c.476-.226.9-.283,1.344-.458a12.437,12.437,0,0,1,1.4-.624,14.155,14.155,0,0,1,2.581-.505,6.484,6.484,0,0,1,2.2.524,6.265,6.265,0,0,0,2.086.831,16.083,16.083,0,0,0-1.621-1.231c-.505-.427-1.059-.842-1.587-1.324a16.58,16.58,0,0,1-1.48-1.614A10.417,10.417,0,0,0,9.57,33.881c-.962-.325-1.106.1-2.164.234a2.9,2.9,0,0,1-1.824-.684c-.568-.339-1.142-.659-1.709-1-.821-.491-1.619-.246-1.971-.409a15.815,15.815,0,0,1,4.291-.491,4.089,4.089,0,0,1,1.773.7c.377.246,1.193,1.427,1.58,1.342l-.72-1.226a13.638,13.638,0,0,1-1.185-2.833c-.185-.581-.51-2.456-.65-2.7L6.88,26.63a1.343,1.343,0,0,0-.791-.545c-.539-.141-.427-.069-1.019.066a1.979,1.979,0,0,1-1.831-.541c-.469-.433-.981-1.014-1.46-1.419C1.123,23.637.168,23.666,0,23.507a18.469,18.469,0,0,1,3.922.019,2.268,2.268,0,0,1,1.578.983c.4.661.759,1.57,1.38,1.64.027-.049.036-2.556.054-2.878a9.6,9.6,0,0,1,.144-1.408c.07-.356.282-1.123.08-1.465l-.358-.61c-.278-.475-1.057-.487-1.35-.987l-.139-.236c-.6-1.029-.145-2.164-.809-3.3l-.083-.142c-.157-.268-.268-.217-.47-.562a12.728,12.728,0,0,1,3.227,2.872l.083.142c.638,1.088-.383,1.933.094,2.794.138-.22.421-1.443.563-1.824a17.745,17.745,0,0,1,.725-1.822,16.226,16.226,0,0,0,.881-1.782c.333-.891-.037-1.108-.607-2.082-.39-.665.089-1.764.3-2.332A4.97,4.97,0,0,0,9.56,9.412a1.013,1.013,0,0,0,0-.6c-.08-.213-.213-.5-.114-.673.373.638.577,1.231.858,1.705a4.614,4.614,0,0,1,.606,1.68c.474,1.583-.885,1.987-1,2.8.3-.232,1.312-1.794,1.747-2.284A5.773,5.773,0,0,0,13.192,9.7a2.89,2.89,0,0,1,1.457-2.357A8.492,8.492,0,0,0,15.9,6.294c.615-.641.392-.739.676-1.191a12.177,12.177,0,0,1-.484,2.644A3.175,3.175,0,0,1,14.449,10.1c-1.008.48-1.423.57-1.957,1.307-.251.344-1.24,1.307-1.163,1.629.187-.219.352-.285.521-.549.126-.2.278-.427.409-.618a3.579,3.579,0,0,1,1.26-1.084l.164-.078c.863-.412,5.059-1.3,5.381-.994a2.475,2.475,0,0,0-.933.2l-.768.366c-.724.345-1.851,1.667-2.548,2l-.219.1a3.593,3.593,0,0,1-1.8.334,1.6,1.6,0,0,0-.7.072l-.767.365c-.805.384-3.089,4.789-2.944,5.391a2.773,2.773,0,0,0,.783-1.326,4.045,4.045,0,0,1,1.074-1.251l1.535-.732a15.314,15.314,0,0,1,3.512-1.07,4.664,4.664,0,0,0-2.205,1.645A10.027,10.027,0,0,1,11.4,17.591l-.439.208c-.65.311-1.229.224-1.647.422-1,.474-1.139.769-1.3,1.476-.129.574-.33,1.134-.41,1.742a14.248,14.248,0,0,0-.161,3.652c.623-.791-.347-2.466.935-3.576.3-.255.561-.573.824-.753.362-.246.728-.426,1.1-.682a12.431,12.431,0,0,1,1.184-.661c.391-.218.6-.466,1.068-.691l.111.189-.275.132c-1.094.521-1.328,2.3-1.642,3.153-.186.5-.306,1.211-1,1.551-1.014.5-1.573.594-1.963,1.306-.624,1.138-.022,2.3.231,3.632A15.148,15.148,0,0,0,9.68,32.727c.582-.923-1.466-2.241-.04-4.306a13.3,13.3,0,0,1,1.54-1.775c.342-.364,1.619-1.449,1.8-1.721l.078.032a4.12,4.12,0,0,1-.328.4,2.363,2.363,0,0,0-.278.452,2.338,2.338,0,0,0-.224.986,16.527,16.527,0,0,0,0,2.087c.012,2.9-1.585,1.8-2.191,3.574-.287.841.283,1.284.869,2.109a20.68,20.68,0,0,0,1.65,1.885,14.368,14.368,0,0,0,1.762,1.583c.3.238.623.483.915.7.226.17.757.455.941.63.183-.15.08-.343-.058-.577l-.055-.094c-.421-.719-1.335-1.079-1.848-1.957a2.388,2.388,0,0,1-.452-1.922A6.628,6.628,0,0,1,14,33.067a18.925,18.925,0,0,1,1.3-3.32c.069.245,0,.319-.088.539-.123.313-.016.282-.016.6,0,.75.008.468.39,1.265.208.434.434.86.719,1.348.315.536.413.938.633,1.326a2.11,2.11,0,0,1-.068,2.311,1.979,1.979,0,0,0-.267,2.26l.084.142c.282.481,3.187,1.712,3.777,1.87.752.2,3.489,1.208,4.119,1.071-.472-.806-1.6-.893-2.3-1.222a6.092,6.092,0,0,1-2.16-1.6,8.9,8.9,0,0,1-.865-3.594c-.015-.67-.327-2.983-.07-3.39.129.278.071.719.2.934l.526.9a7.382,7.382,0,0,0,2,1.779,16.55,16.55,0,0,1,2.047,1.786l.3.519a3.387,3.387,0,0,1,.128,1.558c-.074.562-.344.828.077,1.546.6,1.033.722.938,1.685,1.06.662.084,1.34.111,2.023.146s1.384.033,2.075,0c.4-.016,1.937-.247,2.079,0l.167.284a32.6,32.6,0,0,1-4.812.192,18.543,18.543,0,0,1-2.31-.225,4.119,4.119,0,0,0-2.41.045l-.987.471c-.528.252-.862,1.559-2.161,2.178l-.329.157a16.658,16.658,0,0,1-3.148.452,13.263,13.263,0,0,0-3.221.53l-.877.418c-.347.165-.4.4-.767.607A18.776,18.776,0,0,1,13.946,45.459Zm18.509-4.248A1.236,1.236,0,0,1,31.313,39.9a1.221,1.221,0,0,1,1.231-1.217,1.209,1.209,0,0,1,1.143,1.265c0,.016,0,.031,0,.047A1.225,1.225,0,0,1,32.5,41.212Zm2.6-.8a.705.705,0,0,1-.652-.749.7.7,0,0,1,.7-.7.69.69,0,0,1,.652.721c0,.009,0,.018,0,.028a.7.7,0,0,1-.677.7Zm-5.029,0a.705.705,0,0,1-.652-.749.7.7,0,0,1,.7-.7.689.689,0,0,1,.652.721v.028a.7.7,0,0,1-.676.7Zm-2.077-.642a.5.5,0,0,1-.462-.531.494.494,0,0,1,.5-.492h0a.489.489,0,0,1,.461.512c0,.006,0,.012,0,.019a.5.5,0,0,1-.479.492Zm8.851-.493c0-.006,0-.013,0-.019a.489.489,0,0,1,.462-.512h0a.494.494,0,0,1,.5.492.5.5,0,0,1-.462.531h-.018A.5.5,0,0,1,36.8,39.274ZM29.579,6.209V6.043H29.25a6.961,6.961,0,0,0-.939-3.759.338.338,0,0,1-.241.1A.368.368,0,1,1,28.424,2a.4.4,0,0,1-.094.26c1.052,1.2,1.814,1.423,2.034-.184a.311.311,0,0,1-.077.009.368.368,0,1,1,.353-.382.386.386,0,0,1-.2.344c.749,1.249,1.376,1.045,1.871-.707a.67.67,0,0,1-.5-.665q0-.024,0-.049A.629.629,0,1,1,33.071.68a.681.681,0,0,1-.4.633c.5,1.779,1.124,1.993,1.875.746a.383.383,0,0,1-.215-.352s0-.01,0-.015a.367.367,0,1,1,.733.029.374.374,0,0,1-.381.368.354.354,0,0,1-.055,0c.22,1.6.977,1.38,2.023.191a.4.4,0,0,1-.1-.271c0-.005,0-.01,0-.015a.367.367,0,1,1,.353.4.335.335,0,0,1-.226-.089,6.944,6.944,0,0,0-.933,3.745h-.321v.165ZM48.428,5.1h0v0Zm-31.857,0h0Z" transform="translate(-26.56 -11.669)" fill="#ffdb46" stroke="rgba(0,0,0,0)" stroke-miterlimit="10" stroke-width="1"/>
  </g>
</svg>
