<svg xmlns="http://www.w3.org/2000/svg" width="67.066" height="49.47" viewBox="0 0 67.066 49.47">
  <g id="大きい2位" transform="translate(2.363 0.948)">
    <path id="パス_303" data-name="パス 303" d="M9.011-12.744A6.859,6.859,0,0,1,13.2-11.595,3.771,3.771,0,0,1,14.74-8.387a4.585,4.585,0,0,1-.806,2.607,10.228,10.228,0,0,1-1.9,2.127q-1.1.926-3.019,2.3A25.059,25.059,0,0,0,5.547,1.39h7.41a5.239,5.239,0,0,0,1.389-.137A1.008,1.008,0,0,0,14.98.806a3.06,3.06,0,0,0,.274-.961h.72q0,4.048.137,5.8A39.273,39.273,0,0,0,11,5.472H1.018V4.82q.446-.48,1.75-1.647,1.99-1.818,3.31-3.242a15.09,15.09,0,0,0,2.3-3.293,8.3,8.3,0,0,0,.978-3.894,3.735,3.735,0,0,0-.806-2.659,3.154,3.154,0,0,0-2.384-.84,4.87,4.87,0,0,0-2.556.669A6.911,6.911,0,0,0,1.567-8.113L.984-8.456Q3.523-12.744,9.011-12.744Z" transform="translate(22.623 27.103)" fill="#c4c4c4"/>
    <path id="合体_4" data-name="合体 4" d="M52.757,47.394l-.878-.418a13.218,13.218,0,0,0-3.221-.53,16.7,16.7,0,0,1-3.147-.452l-.328-.158c-1.3-.618-1.633-1.926-2.162-2.177l-.987-.472a4.118,4.118,0,0,0-2.41-.046,18.678,18.678,0,0,1-2.31.226,32.743,32.743,0,0,1-4.812-.193l.167-.284c.142-.242,1.679-.011,2.078,0q1.038.044,2.075,0c.684-.035,1.362-.063,2.023-.147.963-.122,1.08-.027,1.685-1.059.421-.718.151-.985.077-1.547a3.382,3.382,0,0,1,.128-1.558l.305-.52a16.479,16.479,0,0,1,2.048-1.785,7.407,7.407,0,0,0,2.005-1.78l.526-.9c.125-.215.067-.657.2-.934.257.409-.055,2.72-.07,3.391a8.889,8.889,0,0,1-.865,3.594,6.08,6.08,0,0,1-2.16,1.6c-.7.33-1.831.416-2.3,1.222.631.137,3.368-.87,4.119-1.071.59-.158,3.495-1.389,3.777-1.87l.084-.142a1.978,1.978,0,0,0-.267-2.26,2.112,2.112,0,0,1-.068-2.312c.221-.388.319-.79.634-1.326.284-.488.51-.913.718-1.348.382-.8.391-.516.39-1.265,0-.315.107-.285-.016-.6-.085-.221-.157-.294-.087-.539a18.919,18.919,0,0,1,1.3,3.32,6.6,6.6,0,0,1,.25,1.744,2.386,2.386,0,0,1-.452,1.922c-.513.878-1.426,1.238-1.848,1.956l-.055.1c-.138.235-.241.427-.059.576.184-.175.715-.459.941-.629.292-.218.617-.464.915-.7a14.319,14.319,0,0,0,1.761-1.582,20.576,20.576,0,0,0,1.65-1.885c.587-.825,1.157-1.268.869-2.109-.607-1.779-2.2-.673-2.191-3.573a16.637,16.637,0,0,0,0-2.087,2.346,2.346,0,0,0-.225-.986,2.284,2.284,0,0,0-.277-.452,4.1,4.1,0,0,1-.328-.4l.078-.032c.177.272,1.453,1.358,1.8,1.722a13.352,13.352,0,0,1,1.54,1.774c1.426,2.066-.622,3.384-.041,4.306a15.12,15.12,0,0,0,1.655-4.035c.254-1.328.855-2.495.231-3.633-.39-.712-.949-.81-1.963-1.306-.694-.339-.814-1.05-1-1.55-.314-.85-.548-2.633-1.642-3.154l-.275-.132.112-.189c.473.226.678.473,1.068.691a12.411,12.411,0,0,1,1.183.662c.373.255.738.436,1.1.681.264.18.529.5.824.753,1.283,1.11.312,2.785.936,3.576a14.283,14.283,0,0,0-.161-3.652c-.08-.609-.281-1.168-.41-1.742-.157-.707-.3-1-1.3-1.476-.418-.2-1-.111-1.647-.422l-.438-.209a10.021,10.021,0,0,1-1.681-1.779,4.668,4.668,0,0,0-2.2-1.645,15.321,15.321,0,0,1,3.512,1.07l1.535.732a4.044,4.044,0,0,1,1.075,1.252,2.779,2.779,0,0,0,.782,1.326c.146-.6-2.138-5.006-2.944-5.391L52.9,12.79a1.578,1.578,0,0,0-.7-.073,3.592,3.592,0,0,1-1.8-.334l-.22-.1c-.7-.332-1.824-1.654-2.547-2l-.769-.367a2.471,2.471,0,0,0-.933-.2c.321-.3,4.518.583,5.381.995l.164.078a3.583,3.583,0,0,1,1.26,1.084c.131.191.283.42.409.618.168.264.334.331.521.549.076-.322-.914-1.285-1.164-1.629-.533-.737-.949-.827-1.957-1.307a3.172,3.172,0,0,1-1.638-2.351A12.124,12.124,0,0,1,48.429,5.1c.284.452.062.55.676,1.191a8.492,8.492,0,0,0,1.247,1.047A2.888,2.888,0,0,1,51.808,9.7a5.784,5.784,0,0,0,1.537,2.337c.435.49,1.444,2.053,1.747,2.285-.113-.808-1.472-1.213-1-2.8A4.589,4.589,0,0,1,54.7,9.843c.281-.474.484-1.066.858-1.706.1.173-.034.46-.114.673a1.011,1.011,0,0,0,0,.6,4.951,4.951,0,0,0,.346,1.116c.211.569.69,1.668.3,2.332-.57.975-.94,1.191-.607,2.083a16.4,16.4,0,0,0,.881,1.781,17.611,17.611,0,0,1,.725,1.822c.142.381.425,1.6.563,1.824.477-.862-.545-1.706.094-2.793l.083-.143a12.731,12.731,0,0,1,3.227-2.871c-.2.344-.313.294-.47.562l-.083.142c-.665,1.133-.207,2.27-.81,3.3l-.139.236c-.293.5-1.072.512-1.35.987l-.358.611c-.2.342.01,1.108.08,1.464a9.511,9.511,0,0,1,.144,1.408c.018.322.026,2.829.053,2.878.621-.07.981-.98,1.381-1.64a2.269,2.269,0,0,1,1.578-.984A18.577,18.577,0,0,1,65,23.507c-.168.159-1.124.131-1.779.685-.48.4-.991.986-1.46,1.419a1.979,1.979,0,0,1-1.831.541c-.592-.136-.48-.207-1.02-.067a1.339,1.339,0,0,0-.79.546l-.112.189c-.14.239-.465,2.113-.65,2.7a13.7,13.7,0,0,1-1.185,2.833l-.72,1.227c.387.085,1.2-1.1,1.58-1.342a4.068,4.068,0,0,1,1.773-.7,15.826,15.826,0,0,1,4.291.49c-.352.164-1.149-.08-1.971.41-.566.339-1.14.658-1.708,1a2.907,2.907,0,0,1-1.824.685c-1.057-.136-1.2-.559-2.165-.235A10.454,10.454,0,0,0,53.988,35.6a16.57,16.57,0,0,1-1.48,1.614c-.528.481-1.082.9-1.587,1.323A16.061,16.061,0,0,0,49.3,39.766a6.263,6.263,0,0,0,2.085-.832,6.516,6.516,0,0,1,2.2-.523,14.214,14.214,0,0,1,2.581.506,12.329,12.329,0,0,1,1.4.623c.441.175.868.232,1.344.458l1.207.575-.055.1a5.877,5.877,0,0,0-4.073-.023c-.862.22-2.961.718-3.978.235l-.712-.341c-.3-.143-.249-.241-.549-.383l-.165-.078a5.168,5.168,0,0,0-1.323-.159c-.7.074-.538.136-1.106.427-.743.379-1.343.7-2.1,1.043-.708.325-1.452.544-2.179.818-.629.238-1.7.344-2.261.6a4.395,4.395,0,0,0,2.569.03,5.648,5.648,0,0,1,3.527.218l.055.027a12.619,12.619,0,0,1,3.279,2.374A18.778,18.778,0,0,1,53.524,48C53.159,47.793,53.1,47.558,52.757,47.394ZM13.946,45.46a12.619,12.619,0,0,1,3.279-2.374l.055-.027a5.645,5.645,0,0,1,3.526-.218,4.4,4.4,0,0,0,2.569-.03c-.562-.259-1.631-.365-2.26-.6-.727-.274-1.471-.494-2.179-.818-.754-.346-1.354-.664-2.1-1.043-.568-.291-.4-.353-1.106-.427a5.18,5.18,0,0,0-1.324.159l-.165.078c-.3.142-.248.239-.548.383l-.712.341c-1.017.484-3.116-.015-3.978-.235a5.877,5.877,0,0,0-4.073.023l-.055-.1L6.087,40c.476-.226.9-.283,1.344-.458a12.329,12.329,0,0,1,1.4-.623,14.214,14.214,0,0,1,2.581-.506,6.506,6.506,0,0,1,2.2.523,6.275,6.275,0,0,0,2.086.832,16.061,16.061,0,0,0-1.621-1.232c-.5-.426-1.058-.842-1.587-1.323A16.694,16.694,0,0,1,11.012,35.6a10.408,10.408,0,0,0-1.441-1.716c-.962-.325-1.107.1-2.165.235a2.906,2.906,0,0,1-1.823-.685c-.568-.339-1.142-.658-1.709-1-.821-.49-1.618-.246-1.97-.41a15.822,15.822,0,0,1,4.291-.49,4.073,4.073,0,0,1,1.773.7c.378.246,1.193,1.427,1.58,1.342l-.72-1.227a13.654,13.654,0,0,1-1.185-2.833c-.184-.583-.509-2.456-.65-2.7l-.112-.189a1.341,1.341,0,0,0-.791-.546c-.539-.141-.427-.069-1.019.067a1.979,1.979,0,0,1-1.832-.541c-.469-.433-.981-1.015-1.46-1.419C1.123,23.637.168,23.666,0,23.507a18.577,18.577,0,0,1,3.922.019,2.269,2.269,0,0,1,1.578.984c.4.66.759,1.57,1.38,1.64.028-.049.036-2.556.054-2.878a9.511,9.511,0,0,1,.144-1.408c.07-.355.282-1.122.08-1.464L6.8,19.788c-.279-.475-1.057-.486-1.35-.987l-.139-.236c-.6-1.028-.145-2.165-.81-3.3l-.083-.142c-.157-.268-.268-.217-.471-.562a12.718,12.718,0,0,1,3.227,2.871l.083.143c.638,1.087-.383,1.932.094,2.793.139-.22.421-1.443.563-1.824a17.61,17.61,0,0,1,.725-1.822,16.4,16.4,0,0,0,.881-1.781c.333-.892-.037-1.108-.607-2.083-.391-.664.089-1.763.3-2.332A5,5,0,0,0,9.56,9.412a1.018,1.018,0,0,0,0-.6c-.08-.212-.212-.5-.114-.673.374.639.577,1.232.858,1.706a4.606,4.606,0,0,1,.606,1.681c.474,1.582-.885,1.987-1,2.8.3-.232,1.312-1.795,1.747-2.285A5.782,5.782,0,0,0,13.192,9.7a2.891,2.891,0,0,1,1.457-2.358A8.539,8.539,0,0,0,15.9,6.294c.614-.641.392-.739.676-1.191a12.178,12.178,0,0,1-.484,2.643A3.172,3.172,0,0,1,14.45,10.1c-1.008.48-1.424.57-1.957,1.307-.251.344-1.24,1.307-1.164,1.629.187-.218.352-.285.521-.549.126-.2.277-.427.409-.618a3.575,3.575,0,0,1,1.26-1.084l.164-.078c.863-.412,5.06-1.3,5.38-.995a2.466,2.466,0,0,0-.932.2l-.769.367c-.724.344-1.85,1.666-2.547,2l-.22.1a3.6,3.6,0,0,1-1.8.334,1.572,1.572,0,0,0-.7.073l-.767.364c-.806.385-3.09,4.789-2.945,5.391a2.781,2.781,0,0,0,.783-1.326,4.053,4.053,0,0,1,1.074-1.252l1.535-.732a15.321,15.321,0,0,1,3.512-1.07,4.663,4.663,0,0,0-2.2,1.645A10.053,10.053,0,0,1,11.4,17.591l-.439.209c-.65.311-1.229.225-1.646.422-1,.475-1.139.769-1.3,1.476-.13.574-.33,1.133-.41,1.742a14.283,14.283,0,0,0-.161,3.652c.623-.791-.347-2.466.935-3.576.3-.256.562-.573.824-.753.363-.246.728-.426,1.1-.681a12.538,12.538,0,0,1,1.184-.662c.391-.218.6-.465,1.068-.691l.111.189-.274.132c-1.094.521-1.328,2.3-1.642,3.154-.185.5-.306,1.211-1,1.55-1.014.5-1.573.594-1.963,1.306-.625,1.138-.023,2.3.23,3.633A15.154,15.154,0,0,0,9.68,32.727c.581-.922-1.466-2.24-.04-4.306a13.287,13.287,0,0,1,1.54-1.774c.342-.364,1.619-1.45,1.8-1.722l.078.032a4.234,4.234,0,0,1-.328.4,2.332,2.332,0,0,0-.278.452,2.359,2.359,0,0,0-.224.986,16.468,16.468,0,0,0,0,2.087c.012,2.9-1.586,1.795-2.191,3.573-.287.842.283,1.285.869,2.109a20.576,20.576,0,0,0,1.65,1.885,14.319,14.319,0,0,0,1.761,1.582c.3.238.623.484.914.7.227.17.757.454.941.629.183-.149.079-.342-.059-.576l-.055-.1c-.421-.718-1.335-1.079-1.848-1.956a2.386,2.386,0,0,1-.452-1.922A6.6,6.6,0,0,1,14,33.067a18.848,18.848,0,0,1,1.3-3.32c.069.246,0,.318-.087.539-.123.312-.016.283-.016.6,0,.749.007.468.39,1.265.208.434.434.86.718,1.348.315.536.413.938.634,1.326a2.11,2.11,0,0,1-.068,2.312,1.979,1.979,0,0,0-.266,2.26l.084.142c.283.481,3.187,1.712,3.777,1.87.752.2,3.488,1.208,4.118,1.071-.472-.806-1.6-.892-2.3-1.222a6.085,6.085,0,0,1-2.159-1.6,8.889,8.889,0,0,1-.865-3.594c-.016-.67-.328-2.982-.07-3.391.129.278.07.72.2.934l.526.9a7.391,7.391,0,0,0,2,1.78,16.479,16.479,0,0,1,2.048,1.785l.305.52a3.382,3.382,0,0,1,.128,1.558c-.074.562-.345.828.077,1.547.6,1.032.722.937,1.685,1.059.662.084,1.339.112,2.023.147s1.383.033,2.074,0c.4-.016,1.937-.247,2.079,0l.167.284a32.743,32.743,0,0,1-4.812.193,18.678,18.678,0,0,1-2.31-.226,4.118,4.118,0,0,0-2.41.046l-.987.472c-.528.252-.862,1.559-2.162,2.177l-.329.158a16.7,16.7,0,0,1-3.147.452,13.218,13.218,0,0,0-3.221.53l-.878.418c-.347.164-.4.4-.767.606A18.724,18.724,0,0,1,13.946,45.46ZM32.6,41.211a1.267,1.267,0,1,1,.1-2.529,1.273,1.273,0,0,1,1.285,1.264c0,.016,0,.032,0,.048a1.306,1.306,0,0,1-1.335,1.218Zm2.822-.585a.687.687,0,1,1,.054-1.37.69.69,0,0,1,.695.685v.026a.705.705,0,0,1-.72.66Zm-5.6,0a.7.7,0,0,1-.695-.711.708.708,0,0,1,.749-.659.689.689,0,0,1,.695.685v.026a.705.705,0,0,1-.72.66ZM27.861,39.7a.525.525,0,0,1-.521-.531.531.531,0,0,1,.562-.492h0a.516.516,0,0,1,.52.512v.019a.528.528,0,0,1-.54.493Zm9.013-.492a.128.128,0,0,1,0-.019.517.517,0,0,1,.521-.512.53.53,0,0,1,.562.492.524.524,0,0,1-.52.531h-.019A.529.529,0,0,1,36.874,39.212ZM28.594,6.781V6.615h-.013A7.072,7.072,0,0,0,27.449,2.5a.43.43,0,0,1-.291.111.415.415,0,0,1-.425-.388.426.426,0,0,1,.851-.03.411.411,0,0,1-.113.284c1.269,1.315,2.188,1.558,2.452-.2a.466.466,0,0,1-.093.01.415.415,0,0,1-.425-.388.412.412,0,0,1,.409-.418.417.417,0,0,1,.442.388.419.419,0,0,1-.24.376c.9,1.368,1.659,1.144,2.256-.773a.75.75,0,0,1-.6-.729V.69A.742.742,0,0,1,32.459,0a.734.734,0,0,1,.729.743.742.742,0,0,1-.48.694c.6,1.948,1.355,2.182,2.262.817a.414.414,0,0,1-.259-.385V1.853a.443.443,0,0,1,.884.032.434.434,0,0,1-.459.4.588.588,0,0,1-.067,0c.265,1.748,1.178,1.511,2.439.209a.408.408,0,0,1-.126-.3V2.179a.443.443,0,0,1,.884.031.454.454,0,0,1-.732.3,7.1,7.1,0,0,0-1.129,4.071h0l0,.03h0v.165ZM16.571,5.1h0v0Zm31.857,0h0v0Z" transform="translate(-1.33 -0.447)" fill="#c4c4c4" stroke="rgba(0,0,0,0)" stroke-miterlimit="10" stroke-width="1"/>
  </g>
</svg>
